<svg width="44" height="151" viewBox="0 0 44 151" fill="none" xmlns="http://www.w3.org/2000/svg">
<g style="mix-blend-mode:difference">
<path d="M0 31.5L40.5 6V122L0 147.5" stroke="white" stroke-width="6"/>
</g>
<g filter="url(#filter0_d_499_1281)">
<path d="M20.7518 78.5589L15.7998 79.5039L19.4248 76.0969L20.7518 78.5589Z" fill="#45BDEC"/>
<path d="M19.4248 76.0979L24.2998 75.2349L20.7528 78.5589L19.4248 76.0979Z" fill="black"/>
<path d="M20.0034 76.7959C19.6924 76.7959 19.4404 77.0479 19.4404 77.3589C19.4404 77.6699 19.6924 77.9219 20.0034 77.9219C20.3144 77.9219 20.5664 77.6699 20.5664 77.3589C20.5664 77.0479 20.3144 76.7959 20.0034 76.7959Z" fill="white"/>
<path d="M20.0034 76.7959C19.6924 76.7959 19.4404 77.0479 19.4404 77.3589C19.4404 77.6699 19.6924 77.9219 20.0034 77.9219C20.3144 77.9219 20.5664 77.6699 20.5664 77.3589C20.5664 77.0479 20.3144 76.7959 20.0034 76.7959Z" fill="white"/>
</g>
<path d="M20 62C11.7153 62 5 68.7163 5 77C5 85.2837 11.7153 92 20 92C28.2847 92 35 85.2847 35 77C35 68.7153 28.2837 62 20 62ZM29.7672 78.2038C29.4715 80.6204 28.2977 82.7612 26.5794 84.3087L26.5844 84.3247H26.5624C25.1009 85.6354 23.2507 86.5195 21.1988 86.7692L20.001 90.5904L18.7972 86.7672C16.7592 86.5185 14.9221 85.6404 13.4655 84.3427H13.4376L13.4436 84.3237C13.1798 84.0879 12.9251 83.8432 12.6883 83.5804L12.6773 83.5834V83.5684C11.3616 82.1059 10.4735 80.2518 10.2248 78.1958C10.0959 78.1558 6.41159 77 6.41159 77C6.41159 77 10.0569 75.8521 10.2248 75.7992C10.4735 73.7542 11.3546 71.9091 12.6583 70.4486V70.4356L12.6673 70.4386C12.9051 70.1728 13.1528 69.9151 13.4176 69.6763V69.6753H13.4196C14.8841 68.3586 16.7473 67.4825 18.8032 67.2318L20.002 63.4096L21.2058 67.2328C23.2458 67.4835 25.0909 68.3546 26.5495 69.6563H26.5654L26.5614 69.6683C28.2957 71.2208 29.4795 73.3736 29.7752 75.8032L33.5914 77L29.7672 78.2038Z" fill="url(#paint0_linear_499_1281)"/>
<defs>
<filter id="filter0_d_499_1281" x="14.7998" y="75.2349" width="10.5" height="6.26904" filterUnits="userSpaceOnUse" color-interpolation-filters="sRGB">
<feFlood flood-opacity="0" result="BackgroundImageFix"/>
<feColorMatrix in="SourceAlpha" type="matrix" values="0 0 0 0 0 0 0 0 0 0 0 0 0 0 0 0 0 0 127 0" result="hardAlpha"/>
<feOffset dy="1"/>
<feGaussianBlur stdDeviation="0.5"/>
<feComposite in2="hardAlpha" operator="out"/>
<feColorMatrix type="matrix" values="0 0 0 0 0 0 0 0 0 0 0 0 0 0 0 0 0 0 0.48 0"/>
<feBlend mode="normal" in2="BackgroundImageFix" result="effect1_dropShadow_499_1281"/>
<feBlend mode="normal" in="SourceGraphic" in2="effect1_dropShadow_499_1281" result="shape"/>
</filter>
<linearGradient id="paint0_linear_499_1281" x1="19.9998" y1="92" x2="19.9998" y2="62.0004" gradientUnits="userSpaceOnUse">
<stop offset="0.489583" stop-color="#14222A"/>
<stop offset="0.510417" stop-color="#47C3FF"/>
</linearGradient>
</defs>
</svg>
