<svg width="42" height="175" viewBox="0 0 42 175" fill="none" xmlns="http://www.w3.org/2000/svg">
<g style="mix-blend-mode:difference">
<path d="M0 1.5L40.5 31.5V147.5L0 173" stroke="white" stroke-width="3"/>
</g>
<path d="M20.802 123.854L19.7198 123.854C19.3809 123.858 19.0376 123.889 18.6899 123.945C18.3422 123.998 18.0076 124.08 17.686 124.193C17.3644 124.31 17.0646 124.458 16.7864 124.636C16.5039 124.81 16.2584 125.019 16.0498 125.262C15.8412 125.506 15.6782 125.786 15.5609 126.103C15.4392 126.42 15.3784 126.775 15.3784 127.166C15.3784 127.557 15.4392 127.911 15.5609 128.228C15.6782 128.541 15.8412 128.819 16.0498 129.063C16.2628 129.306 16.5105 129.517 16.7929 129.695C17.0711 129.869 17.3709 130.012 17.6925 130.125C18.0141 130.242 18.3487 130.329 18.6964 130.386C19.0397 130.438 19.3809 130.466 19.7198 130.471L20.802 130.471C21.1409 130.466 21.4821 130.436 21.8254 130.379C22.1687 130.323 22.5012 130.236 22.8228 130.119C23.1443 130.006 23.4464 129.86 23.7289 129.682C24.007 129.504 24.2503 129.293 24.4589 129.05C24.6675 128.806 24.8327 128.528 24.9544 128.215C25.0717 127.898 25.1304 127.544 25.1304 127.153C25.1304 126.761 25.0717 126.409 24.9544 126.097C24.8327 125.779 24.6675 125.499 24.4589 125.256C24.2503 125.012 24.007 124.804 23.7289 124.63C23.4507 124.452 23.1509 124.306 22.8293 124.193C22.5077 124.08 22.1752 123.998 21.8319 123.945C21.4842 123.889 21.1409 123.858 20.802 123.854ZM19.7068 125.047L20.802 125.047C21.0279 125.051 21.2648 125.067 21.5125 125.093C21.7602 125.114 22.0036 125.156 22.2426 125.217C22.486 125.282 22.7185 125.366 22.9401 125.471C23.1574 125.571 23.3486 125.697 23.5137 125.849C23.6832 126.005 23.8179 126.192 23.9179 126.409C24.0178 126.622 24.0678 126.87 24.0678 127.153C24.0678 127.435 24.0178 127.683 23.9179 127.896C23.8179 128.109 23.6832 128.293 23.5137 128.45C23.3486 128.606 23.1552 128.737 22.9336 128.841C22.7119 128.945 22.4794 129.03 22.2361 129.095C21.997 129.16 21.7537 129.208 21.506 129.239C21.2583 129.265 21.0236 129.28 20.802 129.284L19.7068 129.284C19.4852 129.28 19.2527 129.265 19.0093 129.239C18.7616 129.208 18.5161 129.16 18.2727 129.095C18.0337 129.034 17.8055 128.952 17.5882 128.847C17.3666 128.743 17.171 128.613 17.0015 128.456C16.8364 128.3 16.7039 128.115 16.6039 127.902C16.5039 127.689 16.454 127.444 16.454 127.166C16.454 126.883 16.5039 126.635 16.6039 126.423C16.6995 126.21 16.8299 126.025 16.995 125.868C17.1645 125.712 17.3601 125.582 17.5817 125.477C17.799 125.373 18.0272 125.288 18.2662 125.223C18.5095 125.162 18.7551 125.119 19.0028 125.093C19.2462 125.067 19.4808 125.051 19.7068 125.047ZM21.9949 111.703L25 109.011L25 107.479L21.343 110.739L17.9468 107.714L17.9468 109.181L20.9323 111.808L20.9323 112.851L17.9468 112.851L17.9468 114.057L25 114.057L25 112.851L21.9949 112.851L21.9949 111.703ZM21.4082 106.312L21.5516 106.312C22.0601 106.312 22.5316 106.238 22.9662 106.091C23.4007 105.943 23.7788 105.73 24.1004 105.452C24.422 105.178 24.6741 104.843 24.8566 104.448C25.0391 104.048 25.1304 103.598 25.1304 103.099C25.1304 102.603 25.0391 102.158 24.8566 101.762C24.6741 101.367 24.422 101.03 24.1004 100.752C23.7788 100.478 23.4007 100.267 22.9662 100.12C22.5316 99.9718 22.0601 99.8979 21.5516 99.8979L21.4082 99.8979C20.8997 99.8979 20.4282 99.9718 19.9936 100.12C19.5547 100.267 19.1744 100.478 18.8529 100.752C18.5313 101.03 18.2792 101.369 18.0967 101.769C17.9098 102.164 17.8164 102.612 17.8164 103.112C17.8164 103.607 17.9098 104.052 18.0967 104.448C18.2792 104.843 18.5313 105.178 18.8529 105.452C19.1744 105.73 19.5547 105.943 19.9936 106.091C20.4282 106.238 20.8997 106.312 21.4082 106.312ZM21.5516 105.106L21.4082 105.106C21.0649 105.106 20.7368 105.065 20.4239 104.982C20.1066 104.9 19.8285 104.774 19.5895 104.604C19.3505 104.439 19.1614 104.233 19.0223 103.985C18.8789 103.737 18.8072 103.446 18.8072 103.112C18.8072 102.777 18.8789 102.486 19.0223 102.238C19.1614 101.986 19.3505 101.775 19.5895 101.606C19.8285 101.441 20.1066 101.317 20.4239 101.234C20.7368 101.147 21.0649 101.104 21.4082 101.104L21.5516 101.104C21.8993 101.104 22.2317 101.145 22.549 101.228C22.8619 101.31 23.1378 101.434 23.3768 101.599C23.6159 101.769 23.8049 101.98 23.944 102.232C24.083 102.479 24.1526 102.768 24.1526 103.099C24.1526 103.433 24.083 103.727 23.944 103.979C23.8049 104.231 23.6159 104.439 23.3768 104.604C23.1378 104.774 22.8619 104.9 22.549 104.982C22.2317 105.065 21.8993 105.106 21.5516 105.106ZM23.4029 95.1523L17.9468 96.6385L17.9468 98.1965L25 98.1965L25 96.9905L20.4956 96.9905L25 95.5695L25 94.7351L20.652 93.3531L25 93.3531L25 92.1471L17.9468 92.1471L17.9468 93.653L23.4029 95.1523ZM25 84.1422L17.9468 84.1422L17.9468 89.996L25 89.996L25 88.79L18.9441 88.79L18.9441 85.3481L25 85.3481L25 84.1422ZM25 77.2845L25 76.0264L24.8957 76.0264C24.7001 76.1046 24.472 76.1654 24.2112 76.2089C23.9461 76.2524 23.6963 76.2741 23.4616 76.2741L20.1827 76.2741C19.7872 76.2741 19.4417 76.3458 19.1462 76.4892C18.8507 76.6326 18.603 76.8282 18.4031 77.0759C18.2075 77.3279 18.0619 77.6256 17.9663 77.9689C17.8664 78.3123 17.8164 78.6838 17.8164 79.0836C17.8164 79.5226 17.8772 79.9159 17.9989 80.2635C18.1206 80.6069 18.2792 80.898 18.4748 81.137C18.6747 81.3804 18.8985 81.5673 19.1462 81.6977C19.3939 81.8237 19.646 81.8889 19.9024 81.8932L19.9024 80.6807C19.7546 80.6807 19.6134 80.646 19.4787 80.5764C19.3396 80.5026 19.2201 80.4004 19.1201 80.2701C19.0202 80.1397 18.9398 79.9811 18.8789 79.7942C18.8181 79.603 18.7877 79.3879 18.7877 79.1488C18.7877 78.8924 18.8203 78.6621 18.8854 78.4579C18.9506 78.2493 19.0419 78.0732 19.1592 77.9298C19.2809 77.7864 19.4265 77.6756 19.596 77.5974C19.7655 77.5192 19.9567 77.48 20.1696 77.48L20.7237 77.48L20.7237 78.7968C20.7237 79.2879 20.7715 79.7333 20.8671 80.1332C20.9627 80.5286 21.1062 80.8676 21.2974 81.1501C21.4929 81.4326 21.7363 81.652 22.0275 81.8085C22.3186 81.9606 22.6576 82.0366 23.0444 82.0366C23.3399 82.0366 23.6159 81.9801 23.8723 81.8671C24.1243 81.7498 24.3416 81.5847 24.5241 81.3717C24.711 81.1631 24.8588 80.9089 24.9674 80.609C25.076 80.3048 25.1304 79.9658 25.1304 79.5921C25.1304 79.3618 25.1065 79.1445 25.0587 78.9402C25.0109 78.736 24.9457 78.5426 24.8631 78.3601C24.7805 78.1819 24.6849 78.0189 24.5763 77.8712C24.4676 77.7191 24.3525 77.5822 24.2308 77.4605C24.3785 77.4475 24.522 77.4279 24.661 77.4018C24.7957 77.3714 24.9087 77.3323 25 77.2845ZM24.0809 79.4161C24.0809 79.6508 24.0504 79.8572 23.9896 80.0354C23.9288 80.2136 23.844 80.3613 23.7354 80.4787C23.6311 80.596 23.505 80.6851 23.3573 80.7459C23.2095 80.8024 23.0487 80.8307 22.8749 80.8307C22.6924 80.8307 22.5294 80.7981 22.386 80.7329C22.2426 80.6633 22.1187 80.5634 22.0144 80.433C21.8667 80.2505 21.758 80.005 21.6885 79.6964C21.6146 79.3835 21.5777 79.0185 21.5777 78.6013L21.5777 77.48L23.0053 77.48C23.1443 77.5496 23.2791 77.6452 23.4094 77.7669C23.5355 77.8886 23.6485 78.032 23.7484 78.1971C23.8484 78.3666 23.9288 78.5535 23.9896 78.7577C24.0504 78.962 24.0809 79.1814 24.0809 79.4161ZM25 68.1061L17.9468 68.1061L17.9468 69.3121L21.004 69.3121L21.004 72.754L17.9468 72.754L17.9468 73.9599L25 73.9599L25 72.754L21.9884 72.754L21.9884 69.3121L25 69.3121L25 68.1061ZM17.9468 61.2941L23.1552 64.7425L17.9468 64.7425L17.9468 65.9419L25 65.9419L25 64.7425L19.7981 61.2941L25 61.2941L25 60.0881L17.9468 60.0881L17.9468 61.2941ZM17.9468 53.2761L23.1552 56.7245L17.9468 56.7245L17.9468 57.9239L25 57.9239L25 56.7245L19.7981 53.2761L25 53.2761L25 52.0701L17.9468 52.0701L17.9468 53.2761Z" fill="#EDEDED"/>
</svg>
