<svg width="44" height="178" viewBox="0 0 44 178" fill="none" xmlns="http://www.w3.org/2000/svg">
<g style="mix-blend-mode:difference">
<path d="M0 3L40.5 33V149L0 174.5" stroke="white" stroke-width="7"/>
</g>
<path d="M25 125.713L15.5088 125.713L15.5088 131.606L25 131.606L25 130.4L16.4996 130.4L16.4996 126.919L25 126.919L25 125.713ZM25.1304 120.393C25.1304 119.707 24.9935 119.131 24.7197 118.666C24.4416 118.197 24.1243 117.845 23.768 117.61L23.1943 118.347C23.4811 118.568 23.7115 118.846 23.8853 119.181C24.0591 119.516 24.146 119.898 24.146 120.328C24.146 120.654 24.0852 120.952 23.9635 121.221C23.8418 121.491 23.6745 121.721 23.4616 121.912C23.2617 122.099 23.0313 122.247 22.7706 122.356C22.5099 122.46 22.2078 122.527 21.8645 122.558L21.8189 122.558L21.8189 117.519L21.2778 117.519C20.7867 117.519 20.3304 117.582 19.9089 117.708C19.4873 117.829 19.1201 118.016 18.8072 118.268C18.4987 118.52 18.2575 118.838 18.0836 119.22C17.9055 119.598 17.8164 120.041 17.8164 120.55C17.8164 120.954 17.899 121.349 18.0641 121.736C18.2292 122.119 18.4661 122.46 18.7746 122.76C19.0875 123.064 19.47 123.307 19.9219 123.49C20.3695 123.672 20.878 123.764 21.4473 123.764L21.7211 123.764C22.2122 123.764 22.6663 123.681 23.0835 123.516C23.5007 123.351 23.8614 123.12 24.1656 122.825C24.4698 122.529 24.7067 122.175 24.8761 121.762C25.0456 121.345 25.1304 120.889 25.1304 120.393ZM18.8072 120.55C18.8072 120.241 18.8637 119.976 18.9767 119.755C19.0897 119.529 19.2375 119.342 19.42 119.194C19.6025 119.046 19.8198 118.931 20.0719 118.848C20.3196 118.766 20.5521 118.725 20.7694 118.725L20.828 118.725L20.828 122.519C20.5021 122.471 20.2153 122.388 19.9676 122.271C19.7155 122.149 19.5026 122.001 19.3287 121.828C19.1592 121.654 19.031 121.458 18.9441 121.241C18.8529 121.024 18.8072 120.793 18.8072 120.55ZM27.7118 115.498L27.7118 114.292L24.3221 114.292C24.4177 114.205 24.5068 114.112 24.5893 114.012C24.6675 113.912 24.7393 113.805 24.8044 113.692C24.9087 113.505 24.9891 113.297 25.0456 113.066C25.1021 112.832 25.1304 112.58 25.1304 112.31C25.1304 111.867 25.0391 111.474 24.8566 111.13C24.6741 110.783 24.422 110.491 24.1004 110.257C23.7788 110.022 23.4007 109.844 22.9662 109.722C22.5272 109.601 22.0557 109.54 21.5516 109.54L21.4147 109.54C20.8889 109.54 20.4065 109.601 19.9676 109.722C19.5243 109.844 19.144 110.022 18.8268 110.257C18.5095 110.491 18.2618 110.783 18.0836 111.13C17.9055 111.478 17.8164 111.878 17.8164 112.33C17.8164 112.586 17.8446 112.827 17.9011 113.053C17.9533 113.275 18.0315 113.477 18.1358 113.66C18.2053 113.79 18.2901 113.912 18.39 114.025C18.4856 114.138 18.5943 114.242 18.716 114.338L17.9468 114.396L17.9468 115.498L27.7118 115.498ZM21.4147 110.746L21.5516 110.746C21.8949 110.746 22.223 110.785 22.5359 110.863C22.8488 110.937 23.1248 111.052 23.3638 111.209C23.6028 111.365 23.794 111.565 23.9374 111.808C24.0765 112.052 24.146 112.341 24.146 112.675C24.146 112.884 24.12 113.075 24.0678 113.249C24.0157 113.418 23.944 113.573 23.8527 113.712C23.7745 113.833 23.6789 113.942 23.5659 114.038C23.4529 114.133 23.3312 114.218 23.2008 114.292L19.8046 114.292C19.6568 114.209 19.5221 114.114 19.4004 114.005C19.2787 113.896 19.1766 113.773 19.094 113.634C19.0115 113.507 18.9485 113.366 18.905 113.21C18.8615 113.049 18.8398 112.875 18.8398 112.688C18.8398 112.349 18.9094 112.058 19.0484 111.815C19.1875 111.571 19.3744 111.369 19.609 111.209C19.848 111.052 20.124 110.937 20.4369 110.863C20.7455 110.785 21.0714 110.746 21.4147 110.746ZM24.1526 104.468C24.1526 104.846 24.0787 105.164 23.9309 105.42C23.7788 105.672 23.5811 105.874 23.3377 106.026C23.0987 106.183 22.8293 106.296 22.5294 106.365C22.2252 106.43 21.9188 106.463 21.6103 106.463L21.3365 106.463C21.0323 106.463 20.7302 106.43 20.4304 106.365C20.1305 106.296 19.8589 106.183 19.6155 106.026C19.3765 105.87 19.1831 105.665 19.0354 105.413C18.8833 105.157 18.8072 104.842 18.8072 104.468C18.8072 104.225 18.8485 103.999 18.9311 103.79C19.0137 103.577 19.1266 103.395 19.2701 103.243C19.4135 103.091 19.5808 102.971 19.772 102.884C19.9589 102.793 20.1588 102.745 20.3717 102.741L20.3717 101.6C20.0154 101.6 19.6807 101.672 19.3678 101.815C19.0549 101.958 18.7833 102.156 18.553 102.408C18.327 102.665 18.1488 102.969 18.0185 103.321C17.8837 103.669 17.8164 104.051 17.8164 104.468C17.8164 105.003 17.912 105.47 18.1032 105.87C18.2944 106.27 18.5508 106.602 18.8724 106.867C19.1983 107.137 19.5743 107.339 20.0001 107.473C20.426 107.608 20.8715 107.675 21.3365 107.675L21.6103 107.675C22.0796 107.675 22.5272 107.608 22.9531 107.473C23.3747 107.339 23.7462 107.137 24.0678 106.867C24.3938 106.602 24.6523 106.27 24.8435 105.87C25.0348 105.47 25.1304 105.003 25.1304 104.468C25.1304 104.094 25.0674 103.736 24.9413 103.393C24.811 103.049 24.6371 102.745 24.4198 102.48C24.2069 102.215 23.9592 102.004 23.6767 101.848C23.3899 101.687 23.09 101.604 22.7771 101.6L22.7771 102.741C22.9727 102.745 23.1552 102.797 23.3247 102.897C23.4898 102.993 23.6332 103.121 23.7549 103.282C23.881 103.443 23.9787 103.627 24.0483 103.836C24.1178 104.04 24.1526 104.251 24.1526 104.468ZM21.4082 99.7943L21.5516 99.7943C22.0601 99.7943 22.5316 99.7204 22.9662 99.5726C23.4007 99.4249 23.7788 99.2119 24.1004 98.9338C24.422 98.66 24.6741 98.3254 24.8566 97.9299C25.0391 97.5301 25.1304 97.0803 25.1304 96.5806C25.1304 96.0851 25.0391 95.6397 24.8566 95.2442C24.6741 94.8488 24.422 94.512 24.1004 94.2338C23.7788 93.96 23.4007 93.7493 22.9662 93.6015C22.5316 93.4538 22.0601 93.3799 21.5516 93.3799L21.4082 93.3799C20.8997 93.3799 20.4282 93.4538 19.9936 93.6015C19.5547 93.7493 19.1744 93.96 18.8529 94.2338C18.5313 94.512 18.2792 94.8509 18.0967 95.2507C17.9098 95.6462 17.8164 96.0938 17.8164 96.5936C17.8164 97.089 17.9098 97.5345 18.0967 97.9299C18.2792 98.3254 18.5313 98.66 18.8529 98.9338C19.1744 99.2119 19.5547 99.4249 19.9936 99.5726C20.4282 99.7204 20.8997 99.7943 21.4082 99.7943ZM21.5516 98.5883L21.4082 98.5883C21.0649 98.5883 20.7368 98.547 20.4239 98.4645C20.1066 98.3819 19.8285 98.2559 19.5895 98.0864C19.3505 97.9212 19.1614 97.7148 19.0223 97.4671C18.8789 97.2194 18.8072 96.9282 18.8072 96.5936C18.8072 96.259 18.8789 95.9678 19.0223 95.7201C19.1614 95.468 19.3504 95.2573 19.5895 95.0878C19.8285 94.9226 20.1066 94.7988 20.4239 94.7162C20.7368 94.6293 21.0649 94.5858 21.4082 94.5858L21.5516 94.5858C21.8993 94.5858 22.2317 94.6271 22.549 94.7097C22.8619 94.7923 23.1378 94.9161 23.3768 95.0813C23.6159 95.2507 23.8049 95.4615 23.944 95.7136C24.083 95.9613 24.1526 96.2503 24.1526 96.5806C24.1526 96.9152 24.083 97.2085 23.944 97.4606C23.8049 97.7126 23.6159 97.9212 23.3768 98.0864C23.1378 98.2559 22.8619 98.3819 22.549 98.4645C22.2317 98.547 21.8993 98.5883 21.5516 98.5883ZM25 85.6422L17.9468 85.6422L17.9468 86.8481L21.004 86.8481L21.004 90.29L17.9468 90.29L17.9468 91.496L25 91.496L25 90.29L21.9884 90.29L21.9884 86.8481L25 86.8481L25 85.6422ZM25 78.7845L25 77.5264L24.8957 77.5264C24.7001 77.6046 24.472 77.6654 24.2112 77.7089C23.9461 77.7524 23.6963 77.7741 23.4616 77.7741L20.1827 77.7741C19.7872 77.7741 19.4417 77.8458 19.1462 77.9892C18.8507 78.1326 18.603 78.3282 18.4031 78.5759C18.2075 78.8279 18.0619 79.1256 17.9663 79.4689C17.8664 79.8123 17.8164 80.1838 17.8164 80.5836C17.8164 81.0226 17.8772 81.4159 17.9989 81.7635C18.1206 82.1069 18.2792 82.398 18.4748 82.637C18.6747 82.8804 18.8985 83.0673 19.1462 83.1977C19.3939 83.3237 19.646 83.3889 19.9024 83.3932L19.9024 82.1807C19.7546 82.1807 19.6134 82.146 19.4787 82.0764C19.3396 82.0026 19.2201 81.9004 19.1201 81.7701C19.0202 81.6397 18.9398 81.4811 18.8789 81.2942C18.8181 81.103 18.7877 80.8879 18.7877 80.6488C18.7877 80.3924 18.8203 80.1621 18.8854 79.9579C18.9506 79.7493 19.0419 79.5732 19.1592 79.4298C19.2809 79.2864 19.4265 79.1756 19.596 79.0974C19.7655 79.0192 19.9567 78.98 20.1696 78.98L20.7237 78.98L20.7237 80.2968C20.7237 80.7879 20.7715 81.2333 20.8671 81.6332C20.9627 82.0286 21.1062 82.3676 21.2974 82.6501C21.4929 82.9326 21.7363 83.152 22.0275 83.3085C22.3186 83.4606 22.6576 83.5366 23.0444 83.5366C23.3399 83.5366 23.6159 83.4801 23.8723 83.3671C24.1243 83.2498 24.3416 83.0847 24.5241 82.8717C24.711 82.6631 24.8588 82.4089 24.9674 82.109C25.076 81.8048 25.1304 81.4658 25.1304 81.0921C25.1304 80.8618 25.1065 80.6445 25.0587 80.4402C25.0109 80.236 24.9457 80.0426 24.8631 79.8601C24.7805 79.6819 24.6849 79.5189 24.5763 79.3712C24.4676 79.2191 24.3525 79.0822 24.2308 78.9605C24.3785 78.9475 24.522 78.9279 24.661 78.9018C24.7957 78.8714 24.9087 78.8323 25 78.7845ZM24.0809 80.9161C24.0809 81.1508 24.0504 81.3572 23.9896 81.5354C23.9288 81.7136 23.844 81.8613 23.7354 81.9787C23.6311 82.096 23.505 82.1851 23.3573 82.2459C23.2095 82.3024 23.0487 82.3307 22.8749 82.3307C22.6924 82.3307 22.5294 82.2981 22.386 82.2329C22.2426 82.1633 22.1187 82.0634 22.0144 81.933C21.8667 81.7505 21.758 81.505 21.6885 81.1964C21.6146 80.8835 21.5777 80.5185 21.5777 80.1013L21.5777 78.98L23.0053 78.98C23.1443 79.0496 23.2791 79.1452 23.4094 79.2669C23.5355 79.3886 23.6485 79.532 23.7484 79.6971C23.8484 79.8666 23.9288 80.0535 23.9896 80.2577C24.0504 80.462 24.0809 80.6814 24.0809 80.9161ZM17.9468 69.6127L17.9468 74.6255L20.9649 74.6386C21.1822 74.6386 21.3886 74.6429 21.5842 74.6516C21.7754 74.656 21.9558 74.6647 22.1252 74.6777C22.3382 74.6994 22.5338 74.7277 22.7119 74.7624C22.8858 74.7972 23.04 74.8385 23.1748 74.8863C23.4225 74.9819 23.6093 75.1123 23.7354 75.2774C23.8571 75.4382 23.9179 75.6425 23.9179 75.8902L23.9244 76.1574L25 76.177L25 75.825C25 75.3643 24.9109 74.9797 24.7327 74.6712C24.5502 74.3626 24.2873 74.1171 23.944 73.9346C23.731 73.8216 23.4855 73.7281 23.2074 73.6543C22.9292 73.5804 22.625 73.5261 22.2947 73.4913C22.0948 73.4696 21.8841 73.4544 21.6624 73.4457C21.4364 73.4326 21.2039 73.4261 20.9649 73.4261L18.9441 73.4196L18.9441 70.8251L25 70.8251L25 69.6127L17.9468 69.6127Z" fill="#EDEDED"/>
</svg>
