<svg width="1920" height="2125" viewBox="0 0 1920 2125" fill="none" xmlns="http://www.w3.org/2000/svg">
<g style="mix-blend-mode:darken" filter="url(#filter0_dd_499_943)">
<path fill-rule="evenodd" clip-rule="evenodd" d="M1526.61 1048.22L1518.63 1059.79L1518.38 1060.18L1517.93 1060.36L1496.39 1067.93L1477.47 1079.49L1481.51 1101.63L1489.27 1115.95L1489.59 1116.51L1489.41 1117.02L1481.3 1143.64L1495.01 1160.31L1495.23 1160.58L1495.27 1160.93L1501.17 1187.65L1501.28 1188.05L1501.15 1188.43L1488.01 1224.79L1487.88 1225.17L1487.55 1225.39L1460.62 1247.32L1474.05 1264.62L1474.63 1265.39L1474.14 1266.24L1463.92 1284.95L1473.42 1306.2L1499.57 1310.9L1500.37 1311.04L1500.65 1311.84L1506.35 1327.82L1506.62 1328.5L1506.16 1329.1L1490.29 1351.09L1491 1364.82L1503.17 1366.48L1503.91 1366.56L1504.24 1367.24L1512.39 1384.1L1512.79 1384.89L1512.23 1385.62L1500.21 1401.27L1497.14 1422.78L1496.91 1424.67L1495.19 1423.93L1467.38 1412.06L1467 1411.87L1466.77 1411.47L1450.96 1386.18L1428.53 1400.24L1428.08 1423.39L1428.08 1423.87L1427.82 1424.21L1382.9 1488.18L1388.65 1514.25L1388.85 1515.3L1387.9 1515.85L1374.61 1523.54L1373.44 1524.23L1372.69 1523.07L1346.84 1482.07L1335.38 1501.97L1335.04 1502.55L1334.39 1502.64L1280.35 1512.05L1264.04 1554.54L1293.24 1589.45L1293.66 1589.88L1293.62 1590.48L1291.72 1612.26L1291.61 1613.3L1290.62 1613.55L1267.15 1620.11L1256.98 1647.96L1261.49 1718.75L1261.57 1720.25L1260.07 1720.26L1236.67 1720.98L1221.25 1730.75L1223.04 1744.47L1267.19 1774.72L1331.97 1808.4L1355.69 1803.74L1356.92 1803.52L1357.37 1804.66L1358.84 1808.56L1374.19 1806.91L1398.81 1783.91L1399.88 1782.92L1400.86 1783.94L1421.12 1805.16L1478.68 1839.67L1504.19 1836.34L1504.9 1836.24L1505.38 1836.72L1528.35 1859.4L1528.63 1859.66L1528.74 1860.07L1533.53 1879.23L1561.51 1880.98L1562.42 1881.04L1562.78 1881.9L1568.18 1895.68L1590.95 1884.65L1593.59 1867.64L1568.73 1870.9L1567.84 1871.01L1567.32 1870.24L1560.28 1859.13L1559.59 1858.02L1560.63 1857.22L1571.51 1848.58L1571.73 1848.37L1572.01 1848.27L1587.9 1843.85L1617.49 1817.07L1626.79 1797.63L1626.88 1797.44L1627.04 1797.3L1648.29 1772.33L1651.54 1755.42L1651.58 1755.24L1651.62 1755.11L1662.61 1728.84L1662.66 1728.77L1676.42 1699.85L1685.96 1657.1L1692.78 1622.89L1677.57 1597.04L1677.4 1596.7L1677.42 1596.34L1676.59 1566.62L1676.6 1566.19L1676.85 1565.8L1689.67 1545.84L1669.55 1532.96L1669.09 1532.66L1668.97 1532.19L1663.7 1515.38L1663.27 1513.93L1664.79 1513.55L1695.58 1505.56L1697.04 1486.84L1697.18 1485.2L1698.79 1485.53L1716.28 1489.26L1744.24 1475.68L1749.66 1456.03L1750.06 1454.53L1751.52 1455.12L1767.38 1461.1L1782.21 1459.17L1782.92 1459.07L1783.41 1459.61L1795.8 1472.6L1855.51 1447.77L1858.9 1420.39L1859.09 1419.1L1860.41 1419.11L1873.06 1419.38L1886.41 1399.71L1888.28 1397L1889.06 1400.21L1893.45 1419.12L1931.95 1419.97L1952.14 1401.64L1949.31 1372.66L1923.5 1359.02L1922.86 1358.68L1922.76 1357.97L1915.99 1321.81L1915.83 1321.05L1916.36 1320.5L1928.15 1308.67L1928.47 1308.33L1928.94 1308.27L1961.06 1303.11L1921.77 1238.3L1904.05 1229.13L1877.22 1245.81L1875.88 1246.65L1875.21 1245.17L1860.72 1215.25L1812.8 1203L1790.56 1209.76L1765 1290.86L1764.96 1291.04L1764.87 1291.24L1744.6 1322.27L1743.75 1323.59L1742.49 1322.67L1722.8 1307.63L1714.38 1328.69L1714.06 1329.46L1713.24 1329.62L1680.69 1335.2L1660.71 1355.14L1659.8 1356.04L1658.73 1355.16L1634.51 1335.35L1634.04 1334.93L1634.02 1334.33L1630.32 1275.28L1630.29 1275.04L1630.37 1274.79L1643.8 1227.21L1617.77 1222.97L1617.09 1222.82L1616.78 1222.26L1601.37 1197.21L1601.13 1196.76L1601.18 1196.28L1605.32 1157.61L1583.51 1148.85L1582.68 1148.54L1582.63 1147.64L1579.11 1110.64L1560.34 1083.8L1549.44 1093.71L1549.07 1094.06L1548.59 1094.06L1531.17 1095.02L1529.79 1095.08L1529.62 1093.78L1527.19 1075.15L1527.09 1074.38L1527.74 1073.87L1540.04 1063.61L1526.61 1048.22ZM1480.2 1777.41L1475.63 1763.57L1475.23 1762.36L1476.36 1761.8L1489.55 1755.62L1480.92 1735.58L1480.4 1734.38L1481.58 1733.75L1497.2 1725.45L1498.38 1724.82L1499.12 1725.92L1515.29 1749.91L1544.76 1726.69L1545.8 1725.89L1546.7 1726.86L1559.77 1740.84L1570.35 1748.3L1582.09 1742.07L1582.32 1741.92L1582.55 1741.89L1599.62 1739.66L1600.39 1739.56L1600.89 1740.22L1611.1 1752.53L1611.74 1753.29L1611.19 1754.14L1583.52 1800.76L1582.83 1801.94L1581.61 1801.31L1559.62 1789.76L1535.23 1795.29L1534.76 1795.41L1534.32 1795.23L1518.65 1787.96L1518.58 1787.91L1499.63 1777.58L1481.6 1778.43L1480.53 1778.51L1480.2 1777.41Z" fill="url(#paint0_linear_499_943)"/>
<path fill-rule="evenodd" clip-rule="evenodd" d="M161.717 1601.57L186.979 1597.84L212.266 1630.25L229.303 1630.69L229.782 1630.06L233.379 1614.65L233.463 1614.22L233.712 1613.97L259.678 1582.37L261.48 1560.74L261.485 1560.24L261.794 1559.92L277.011 1537.87L277.542 1537.1L278.466 1537.19L301.394 1538.68L305.937 1528.89L307.422 1512.35L299.108 1496.53L279.26 1491.76L278.387 1491.52L278.081 1490.79L273.899 1480.81L273.584 1480.01L274.046 1479.25L281.666 1467.24L280.816 1439.28L280.804 1438.65L281.164 1438.18L308.992 1403.11L310.011 1401.79L311.337 1402.81L331.462 1418.28L332.564 1419.18L331.958 1420.46L323.958 1435.46L336.682 1436.19L337.105 1436.2L337.408 1436.37L372.636 1455.2L396.784 1448.32L397.327 1448.18L397.915 1448.38L422.642 1458.27L445.248 1456.23L472.875 1431.42L413.254 1397.76L412.882 1397.59L412.699 1397.27L379.677 1349.17L379.668 1349.1L354.696 1308.38L339.12 1306.77L338.982 1306.79L338.835 1306.73L305.251 1297.8L304.957 1297.69L304.723 1297.51L286.743 1284.5L283.704 1297.74L283.434 1298.9L282.192 1299.06L256.689 1301.48L251.521 1309.17L251.341 1309.41L251.083 1309.58L236.249 1320.08L235.802 1320.42L235.173 1320.43L222.473 1319.36L215.472 1326.45L215.034 1326.86L214.482 1326.93L198.547 1329.01L198.202 1329.06L197.839 1328.96L176.629 1322.9L170.084 1340.45L169.829 1341.19L169.02 1341.43L141.261 1350.75L127.053 1384.81L126.687 1385.77L125.712 1385.83L74.6556 1390.82L64.6935 1421.94L69.2474 1450.32L69.4188 1451.64L68.2312 1452.21L55.1979 1457.7L53.5353 1480.94L68.5469 1506.13L68.6339 1506.25L68.721 1506.38L75.7214 1523.43L97.9541 1527.12L98.317 1527.21L98.629 1527.45L120.773 1542.8L121.388 1543.21L121.478 1543.9L124.517 1562.3L156.956 1583.95L157.494 1584.3L157.653 1584.98L161.699 1601.43L161.717 1601.57Z" fill="url(#paint1_linear_499_943)"/>
<path fill-rule="evenodd" clip-rule="evenodd" d="M744.713 483.907L726.818 487.293L722.051 520.688L689.067 497.739L684.6 526.492L720.376 556.398L726.023 585.711L662.11 542.194L656.114 510.207L676.38 477.504L673.75 429.667L664.529 435.405L657.089 469.15L641.304 487.6L623.219 495.404L608.841 524.617L618.977 595.179L584.113 669.814L592.283 711.488L637.048 705.633L679.463 744.711L684.959 786.734L663.075 821.461L672.147 834.847L694.237 843.812L656.944 857.754L640.918 818.92L663.019 765.06L645.561 729.133L600.93 728.555L579.779 755.029L584.009 808.165L549.148 854.56L514.16 872.802L492.653 902.948L401.75 862.054L398.469 836.963L458.218 855.575L486.24 840.057L529.699 803.414L553.491 734.76L543.58 700.565L581.185 563.725L584.491 540.492L574.398 511.83L605.735 473.147L606.661 424.775L574.159 391.653L602.125 384.23L593.433 350.294L564.911 351.863L566.136 377.223L574.159 391.653L555.334 386.863L531.151 410.944L504.319 456.359L482.453 483.762L445.992 497.665L428.773 519.022L451.838 542.362L435.419 583.696L407.038 596.472L407.904 610.025L437.401 633.5L431.693 659.697L438.324 675.215L450.001 688.261L420.871 723.029L407.953 707.427L393.934 670.074L351.637 618.57L333.807 637.915L348.324 657.213L348.843 657.982L348.539 658.858L329.699 705.668L343.221 735.486L343.594 736.204L343.195 736.884L331.12 762.379L330.84 762.904L330.318 763.181L306.98 774.531L293.139 795.586L292.799 796.188L292.054 796.355L230.852 807.149L202.903 837.091L202.477 837.565L201.928 837.637L181.75 840.625L186.809 893.164L186.88 893.713L186.66 894.16L166.967 931.25L186.91 962.18L246.792 958.88L247.349 958.877L247.728 959.107L278.978 977.332L279.658 977.731L279.765 978.554L284.387 1006.96L295.597 1014.83L364 1009.51L364.763 1009.48L365.323 1010.04L389.762 1033.75L390.158 1034.12L390.299 1034.66L397.747 1077.75L411.315 1091.39L411.72 1091.82L411.792 1092.37L414.622 1120.94L459.524 1115.07L460.141 1114.98L460.684 1115.4L506.479 1147.27L566.117 1164.51L566.624 1164.65L566.952 1165.02L592.225 1196.72L631.97 1214.32L669.798 1213L697.432 1186.52L698.421 1185.55L699.575 1186.38L730.747 1208.8L759.217 1204.17L760.099 1203.98L760.746 1204.66L786.301 1233.19L797.514 1232.56L798.14 1232.54L798.614 1232.97L821.939 1250.84L857.428 1191.11L855.537 1155.87L855.543 1155.38L855.773 1155L878.855 1112.38L869.539 1081.66L834.24 1061.8L833.337 1061.29L833.339 1060.25L835.466 1013.6L810.231 986.99L809.817 986.486L809.805 985.86L808.238 921.638L776.87 890.25L776.232 889.636L776.39 888.709L782.888 855.227L768.954 831.32L767.966 829.637L769.755 828.915L803.086 815.072L812.897 775.998L799.481 733.127L762.101 728.812L761.535 728.747L761.129 728.312L722.142 688.786L721.582 688.232L721.62 687.46L724.791 659.991L724.889 659.142L725.599 658.7L772.455 629.911L774.859 609.376L747.967 567.432L747.699 566.979L747.764 566.412L749.223 536.518L749.276 535.326L750.415 534.968L771.74 528.483L745.722 487.889L745.558 487.701L745.513 487.358L744.713 483.907Z" fill="url(#paint2_linear_499_943)"/>
<path fill-rule="evenodd" clip-rule="evenodd" d="M2421.48 -71.5898L2415.5 -54.9835L2375.44 -24.9035L2340.09 -50.702L2308.24 -49.7253L2267.23 -14.7368L2241.5 27.0237L2235.53 67.0602L2215.93 76.0026L2189.1 66.6922L2165.07 72.2269L2154.65 90.4572L2142.39 82.4311L2133.59 94.8062L2119.52 84.6252L2135.16 64.1783L2092.34 66.5285L2070.73 91.0067L2090.07 134.908L2068.76 161.678L2064.13 126.279L2047.62 128.438L2033.07 145.552L2026.79 127.973L2048.3 102.711L2022.55 107.734L1950.65 157.129L1967.89 173.275L1948.69 197.438L1959.42 212.043L1974.11 202.086L1978.67 224.737L2000.4 244.282L1972.24 255.203L1965.17 268.149L1975.47 286.001L1952.43 293.001L1919.69 287.714L1914.93 324.341L1860.2 321.869L1870.5 400.627L1831.96 399.227L1766.88 354.131L1786.13 336.403L1743.87 288.261L1719.59 280.211L1686.56 296.553L1646.05 286.64L1648.4 347.179L1582.31 386.244L1553.2 371.651L1555.32 356.959L1483.66 365.535L1468.04 393.216L1465.5 410.354L1457.61 386.545L1442.69 376.474L1429.13 395.054L1408.75 408.821L1409.51 423.994L1421.47 436.231L1421.69 436.509L1421.85 436.855L1429.6 460.499L1469.57 503.788L1469.86 504.118L1469.93 504.601L1473.99 535.657L1493.85 554.036L1495.03 555.048L1493.95 556.17L1458.76 592.545L1458.9 610.927L1458.88 611.297L1458.74 611.622L1451.33 626.637L1448.8 661.133L1448.67 662.499L1447.33 662.552L1427.75 662.781L1400.04 692.166L1399.94 692.303L1399.77 692.387L1390.05 699.177L1419.62 733.645L1419.9 733.915L1419.95 734.277L1442.12 838.654L1442.26 839.249L1441.9 839.786L1423.35 866.624L1439.13 875.784L1439.92 876.233L1439.86 877.161L1437.68 905.906L1452.14 918.122L1452.56 918.497L1452.63 919.039L1455.19 938.638L1471.49 947.057L1472.54 947.594L1472.25 948.674L1467.59 968.789L1467.5 969.046L1467.41 969.242L1448.5 999.438L1448.88 1019.2L1485.57 1014.4L1486.05 1014.34L1486.51 1014.59L1504.05 1025.05L1519.61 1011.42L1520.66 1010.55L1521.64 1011.46L1532.78 1022.21L1533.69 1023.07L1533.58 1023.15L1548.66 1040.56L1549.6 1041.66L1548.44 1042.61L1535.41 1053.52L1537.62 1070.4L1553.56 1069.54L1565.42 1058.61L1566.69 1057.52L1567.66 1058.87L1587.94 1087.93L1588.23 1088.26L1588.22 1088.69L1591.74 1125.89L1614.19 1134.97L1615.22 1135.33L1615.12 1136.45L1610.8 1176.51L1625.96 1201.09L1653.44 1205.53L1655.07 1205.8L1654.6 1207.4L1640.61 1257.32L1644.26 1316.64L1667.44 1335.57L1687.23 1315.87L1687.56 1315.58L1688.03 1315.46L1720.88 1309.87L1729.93 1287.28L1730.68 1285.47L1732.18 1286.68L1752.41 1302.19L1772.06 1272.08L1798.29 1188.79L1798.57 1188.08L1799.27 1187.8L1823.13 1180.57L1823.55 1180.46L1823.93 1180.53L1873.82 1193.33L1874.51 1193.48L1874.78 1194.12L1889.19 1223.76L1915.82 1207.15L1916.5 1206.76L1917.28 1207.09L1936.47 1217.03L1936.86 1217.22L1937.09 1217.56L1978.43 1285.82L2030 1357.34L2053.85 1336.86L2053.95 1336.72L2054.07 1336.71L2079.76 1322.31L2080.49 1321.84L2081.23 1322.3L2104.16 1336.47L2114.11 1324.93L2115.02 1323.95L2116.1 1324.73L2134.67 1337.88L2147.91 1320.63L2148.33 1320.09L2148.94 1320.01L2187.07 1316.43L2187.55 1316.37L2187.95 1316.62L2214.16 1331.96L2258.52 1308.56L2259.26 1308.15L2259.99 1308.61L2277.23 1319.54L2337.6 1281.72L2337.99 1281.42L2338.48 1281.48L2357.56 1283.03L2376.69 1272.86L2372.24 1258.05L2371.93 1257.05L2372.77 1256.45L2419.08 1224.08L2402.09 1190.66L2401.68 1189.86L2402.19 1189.11L2416.54 1169.02L2407.35 1152.68L2372.89 1136.03L2371.71 1135.45L2372.15 1134.16L2384.62 1099.72L2350.72 1082.25L2349.27 1081.46L2350.13 1080.12L2362.44 1061.28L2353.11 989.997L2352.99 989.032L2353.9 988.544L2411.83 957.354L2410.57 929.488L2410.53 928.206L2411.78 927.98L2447.61 920.841L2452.94 897.389L2448.7 874.329L2448.51 873.372L2449.36 872.832L2465.7 862.414L2446.47 817.516L2419.97 803.685L2418.99 803.2L2419.16 802.136L2427.73 743.543L2397.91 687.457L2397.51 686.772L2397.97 686.038L2408.21 668.322L2408.76 667.391L2409.78 667.627L2454.59 676.732L2481.22 667.177L2488.6 649.16L2488.88 648.509L2489.59 648.294L2521.37 639.231L2524.43 617.67L2455.79 512.563L2455.55 512.164L2455.55 511.674L2457.44 483.519L2457.49 482.96L2457.93 482.535L2490.78 452.231L2473.67 427.727L2473.06 426.825L2473.74 425.939L2504.5 388.428L2504.82 388.079L2505.29 387.955L2536.07 380.618L2551.4 358.249L2550.02 322.855L2527.35 307.359L2526.87 306.992L2526.73 306.396L2522.69 283.924L2507.2 266.2L2506.4 265.262L2507.19 264.299L2520.73 247.87L2501.52 230.264L2500.47 229.297L2501.37 228.198L2537.03 185.628L2537.19 185.423L2537.42 185.332L2554.69 175.406L2565.6 153.862L2533.09 103.954L2501.17 108.129L2500.86 108.168L2500.55 108.087L2473.93 100.405L2473.36 100.235L2473.05 99.7235L2455.47 67.4293L2455.06 66.6245L2455.52 65.9505L2498.82 -0.680677L2494.97 -30.1092L2421.48 -71.5898Z" fill="url(#paint3_linear_499_943)"/>
<path d="M1503.3 1033.97L1502.52 1034.63L1501.58 1034.07L1483.29 1023.25L1443.41 1028.47L1443.37 1026.8L1442.9 1004.65L1442.9 1004.22L1443.17 1003.87L1462.42 973.195L1466.82 954.197L1450.66 945.951L1449.99 945.543L1447.27 924.747L1432.5 912.35L1431.87 911.812L1431.96 911.056L1434.13 882.115L1417.62 872.551L1416.21 871.743L1417.15 870.38L1436.45 842.486L1414.22 737.96L1382.49 700.737L1394.84 692.236L1423.28 662.093L1423.72 661.663L1424.34 661.645L1443.41 661.384L1445.92 627.497L1445.89 627.253L1446.04 626.985L1453.49 611.868L1453.38 592.965L1453.36 592.347L1453.8 591.917L1488.78 555.832L1469.37 537.9L1469.01 537.513L1464.83 505.496L1424.5 461.83L1424.23 461.618L1424.12 461.26L1416.28 437.35L1404.03 424.809L1403.61 424.43L1403.6 423.873L1402.87 409.764L1383.26 422.997L1361.76 444.481L1330.37 458.261L1320.55 482.249L1317.18 450.311L1374.33 373.179L1402.28 302.346L1411.28 241.249L1352.76 189.79L1304.8 194.45L1291.21 220.481L1272.48 226.217L1281.5 183.727L1241.9 184.006L1252.2 164.051L1225.75 147.289L1205.27 158.093L1177.71 213.49L1189.66 242.694L1153.32 249.866L1155.36 259.337L1171.5 277.448L1144.49 275.336L1132.67 289.783L1101.7 288.19L1095.9 275.178L1053.01 281.594L1057.04 306.189L1006.25 320.088L974.893 352.536L947.92 356.871L930.336 377.035L926.236 413.982L946.902 442.045L922.239 451.721L853.155 449.467L814.021 453.779L804.876 476.809L810.58 532.757L838.398 553.372L853.996 579.679L819.722 584.162L783.088 533.127L761.659 537.171L762.27 539.944L786.346 577.486L787.431 579.143L785.52 579.703L765.711 585.705L764.474 610.864L788.397 648.178L788.644 648.642L788.593 649.207L786.37 668.726L786.275 669.421L785.644 669.814L743.961 695.425L741.27 718.479L775.093 752.761L808.781 756.605L809.727 756.729L810.038 757.681L822.509 797.547L821.13 803.124L821.122 803.063L813.424 833.843L813.207 834.554L812.56 834.824L783.73 846.783L795.563 867.069L795.818 867.594L795.76 868.098L790.016 897.692L817.775 925.448L818.205 925.888L818.224 926.506L819.617 983.638L842.074 1007.37L842.504 1007.81L842.523 1008.43L840.66 1049.68L871.802 1067.25L872.337 1067.55L872.47 1068.09L881.154 1096.54L881.355 1097.14L881 1097.74L860.36 1135.8L862.049 1167.21L862.044 1167.65L861.848 1168.05L829.408 1222.59L834.433 1261.01L868.599 1275.15L869.777 1275.62L869.501 1276.83L865.683 1292.22L865.519 1292.86L865.002 1293.18L838.178 1309.09L838.003 1309.18L837.767 1309.27L813.886 1315.43L829.233 1351.2L829.572 1351.9L829.164 1352.57L820.488 1366.86L823.048 1386.44L900.766 1388.3L901.514 1388.33L901.967 1388.95L930.302 1432.02L951.189 1431.89L952.615 1431.89L952.677 1433.31L953.661 1450.8L953.68 1451.41L953.248 1451.9L926.604 1482L931.904 1503.08L950.8 1517.6L976.84 1522.26L978.299 1522.5L978.047 1523.9L976.006 1539.12L975.948 1539.62L975.561 1539.98L950.8 1564.56L953.093 1592.05L953.151 1592.97L953.037 1593.05L951.598 1610.97L981.428 1654.09L982.036 1654.94L981.347 1655.84L970.904 1669.42L970.806 1669.62L970.578 1669.78L961.016 1675.87L977.502 1709.44L1000.43 1706.44L1022.65 1700.8L1023.19 1700.67L1023.65 1700.92L1039.57 1708.33L1040.76 1708.92L1040.37 1710.15L1034.85 1727.74L1055.14 1751.51L1055.37 1751.79L1055.46 1752.03L1062.38 1774.13L1073.5 1797L1073.58 1797.17L1073.61 1797.35L1077.21 1814.5L1077.4 1815.47L1076.61 1816.07L1058.74 1828.82L1060.76 1844.25L1060.68 1844.57L1055.88 1860.09L1055.72 1860.73L1055.2 1860.98L1035.42 1871.51L1027.29 1896.64L1063.8 1915.87L1119.87 1915.86L1141.11 1892.79L1141.38 1892.51L1141.68 1892.41L1154.03 1887.75L1153.16 1874.91L1153.06 1874.17L1153.68 1873.66L1171.56 1858.6L1168.24 1845.08L1167.96 1843.88L1169.13 1843.35L1183.26 1837.6L1185.35 1817.54L1185.46 1816.47L1186.54 1816.2L1258.58 1800.27L1259.99 1783.03L1214.55 1751.94L1214 1751.51L1211.73 1734.19L1212.53 1733.66L1229.6 1722.8L1229.94 1722.57L1230.37 1722.58L1253.35 1721.87L1248.8 1650.07L1248.76 1649.77L1248.91 1649.44L1259.78 1619.67L1260.05 1618.95L1260.77 1618.73L1284.77 1612.06L1286.58 1591.29L1256.36 1555.11L1255.77 1554.44L1256.1 1553.6L1273.54 1508.2L1273.87 1507.36L1274.72 1507.24L1330.64 1497.51L1343.32 1475.45L1344.59 1473.29L1345.92 1475.35L1373.15 1518.56L1384.69 1511.9L1378.86 1485.37L1378.72 1484.77L1379.08 1484.23L1425.58 1418.1L1426.04 1394.1L1425.81 1393.32L1453.09 1376.17L1453.88 1377.43L1470.74 1404.38L1497.28 1415.74L1500.22 1395.07L1500.23 1394.63L1500.5 1394.35L1512.59 1378.63L1504.88 1362.82L1491.86 1360.99L1490.66 1360.84L1490.56 1359.61L1489.72 1343.72L1489.71 1343.16L1490.03 1342.75L1506.26 1320.28L1500.95 1305.28L1474.02 1300.49L1473.26 1300.34L1472.92 1299.64L1462.49 1276.32L1462.22 1275.67L1462.56 1275.01L1473.04 1255.96L1458.8 1237.72L1457.9 1236.54L1459.03 1235.65L1487.68 1212.36L1501 1175.7L1495.07 1148.87L1480.68 1131.34L1480.16 1130.72L1480.37 1129.95L1488.85 1102.29L1481.01 1087.87L1480.93 1087.7L1480.83 1087.46L1476.51 1063.4L1476.31 1062.37L1477.17 1061.83L1497.74 1049.34L1497.85 1049.2L1498.03 1049.17L1519.91 1041.47L1528.25 1029.34L1518.89 1020.33L1503.3 1033.97Z" fill="url(#paint4_linear_499_943)"/>
<path fill-rule="evenodd" clip-rule="evenodd" d="M799.398 1308.5L774.067 1294.95L731.227 1327.7L730.444 1328.34L729.505 1327.79L686.801 1304.39L631.29 1310.84L630.831 1310.9L630.403 1310.69L590.669 1291.1L563.582 1287L541.754 1308.63L531.191 1369.15L530.962 1370.45L529.633 1370.49L508.054 1370.73L493.008 1383.6L491.991 1401.68L491.955 1402.42L491.351 1402.9L464.194 1423.57L467.693 1437.46L467.91 1438.1L467.529 1438.75L454.823 1459.24L470.965 1472.4L471.484 1472.8L471.562 1473.39L478.126 1523.18L594.478 1560.83L594.832 1560.99L595.063 1561.22L619.112 1585.28L619.343 1585.52L619.443 1585.77L628.241 1606.97L659.794 1601.94L660.769 1601.75L661.34 1602.54L675.201 1621.67L737.716 1615.23L739.355 1615.02L739.506 1616.66L742.612 1660.97L751.449 1669.82L769.362 1650.37L769.769 1649.92L770.293 1649.85L787.208 1647.62L788.847 1647.4L788.856 1647.47L829.857 1642.26L842.745 1622.14L843.078 1621.63L843.66 1621.49L884.529 1610.23L884.98 1610.1L885.399 1610.25L922.646 1621.09L949.613 1605.05L947.15 1575.74L947.12 1575.01L947.65 1574.48L974.365 1547.93L976.277 1533.59L949.44 1528.86L949.029 1528.78L948.732 1528.55L927.591 1512.38L927.146 1512.04L927.003 1511.46L920.967 1487.43L920.732 1486.66L921.31 1485.98L950.1 1453.42L949.175 1436.79L927.382 1436.92L926.513 1436.91L926.016 1436.17L895.491 1389.8L811.404 1387.94L810.002 1387.93L809.82 1386.55L806.793 1363.59L806.716 1363L807.048 1362.49L816.189 1347.33L799.398 1308.5Z" fill="url(#paint5_linear_499_943)"/>
<path fill-rule="evenodd" clip-rule="evenodd" d="M209.863 823.687L191.752 826.317L168.683 852.869L168.284 853.312L167.771 853.379L144.344 857.747L143.446 857.864L142.833 857.162L133.554 846.054L99.9035 884.942L96.6794 907.66L96.674 908.117L96.3228 908.424L60.8718 949.503L26.6346 1030.78L37.2364 1039.04L37.5348 1039.33L37.7217 1039.76L45.0458 1059.86L77.6394 1073.72L78.1218 1073.92L78.3812 1074.4L102.274 1115.48L102.372 1115.73L102.414 1116.05L106.659 1142.03L106.726 1142.54L106.464 1143.03L93.8371 1166.65L104.416 1199.17L110.973 1218.39L111.193 1219.08L110.82 1219.71L95.3273 1244.36L102.013 1256.59L137.599 1273.38L138.508 1273.85L138.506 1274.83L138.003 1307.88L138.652 1324.81L152.763 1340.96L177.5 1332.64L183.756 1315.66L184.293 1314.28L185.715 1314.68L206.523 1320.7L220.5 1318.87L227.119 1312.14L227.637 1311.61L228.359 1311.65L240.364 1312.68L253.433 1303.41L258.443 1295.85L258.889 1295.27L259.594 1295.18L282.978 1292.96L286.102 1279.45L286.65 1277.16L288.591 1278.54L306.897 1291.86L337.646 1300.09L352.845 1301.62L353.64 1301.72L353.98 1302.32L377.594 1340.76L408.05 1385.15L464.164 1416.8L490.143 1397.04L491.222 1379.36L491.267 1378.7L491.729 1378.25L507.398 1364.92L507.805 1364.54L508.399 1364.6L528.778 1364.34L539.019 1306.02L539.088 1305.56L539.495 1305.18L561.788 1283.16L562.371 1282.63L563.101 1282.73L590.651 1286.95L590.916 1286.98L591.061 1287.09L629.675 1306.1L684.035 1299.9L684.548 1299.83L684.967 1300.04L726.216 1322.74L768.088 1290.86L768.918 1290.23L769.827 1290.7L795.418 1304.37L821.526 1297.57L849.009 1281.32L852.498 1267.11L816.988 1252.39L816.096 1252.05L815.978 1251.16L810.588 1209.94L788.403 1192.9L777.779 1193.44L777.009 1193.54L776.541 1192.95L752.65 1166.34L726.278 1170.64L725.637 1170.72L725.138 1170.4L696.429 1149.84L671.101 1174.08L670.702 1174.52L670.117 1174.53L633.758 1175.77L633.374 1175.82L633.028 1175.67L595.229 1158.9L594.883 1158.75L594.64 1158.39L571.03 1128.95L515.525 1112.93L515.252 1112.84L515.043 1112.74L472.495 1083.1L429.537 1088.71L427.934 1088.92L427.788 1087.31L425 1059.51L412.384 1046.82L412.014 1046.48L411.955 1046.03L404.926 1005.75L382.957 984.37L319.101 989.267L318.524 989.342L318.089 989.008L306.598 980.927L306.026 980.546L305.943 979.905L301.63 953.414L273.53 937.01L217.002 940.1L216.088 940.089L215.603 939.371L195.964 908.886L195.471 908.103L195.891 907.331L214.517 872.234L209.863 823.687Z" fill="url(#paint6_linear_499_943)"/>
</g>
<defs>
<filter id="filter0_dd_499_943" x="-276.565" y="-71.5898" width="2851.21" height="2028.19" filterUnits="userSpaceOnUse" color-interpolation-filters="sRGB">
<feFlood flood-opacity="0" result="BackgroundImageFix"/>
<feColorMatrix in="SourceAlpha" type="matrix" values="0 0 0 0 0 0 0 0 0 0 0 0 0 0 0 0 0 0 127 0" result="hardAlpha"/>
<feOffset dy="36.2049"/>
<feGaussianBlur stdDeviation="2.2628"/>
<feComposite in2="hardAlpha" operator="out"/>
<feColorMatrix type="matrix" values="0 0 0 0 0.129167 0 0 0 0 0.77766 0 0 0 0 1 0 0 0 0.64 0"/>
<feBlend mode="normal" in2="BackgroundImageFix" result="effect1_dropShadow_499_943"/>
<feColorMatrix in="SourceAlpha" type="matrix" values="0 0 0 0 0 0 0 0 0 0 0 0 0 0 0 0 0 0 127 0" result="hardAlpha"/>
<feOffset dy="9.05121"/>
<feGaussianBlur stdDeviation="4.52561"/>
<feComposite in2="hardAlpha" operator="out"/>
<feColorMatrix type="matrix" values="0 0 0 0 0 0 0 0 0 0 0 0 0 0 0 0 0 0 1 0"/>
<feBlend mode="normal" in2="effect1_dropShadow_499_943" result="effect2_dropShadow_499_943"/>
<feBlend mode="normal" in="SourceGraphic" in2="effect2_dropShadow_499_943" result="shape"/>
</filter>
<linearGradient id="paint0_linear_499_943" x1="1529.8" y1="1047.81" x2="1639.47" y2="1886.36" gradientUnits="userSpaceOnUse">
<stop stop-color="#002B34"/>
<stop offset="1" stop-color="#003256" stop-opacity="0.63"/>
</linearGradient>
<linearGradient id="paint1_linear_499_943" x1="241.525" y1="1290.41" x2="285.075" y2="1623.39" gradientUnits="userSpaceOnUse">
<stop stop-color="#002B34"/>
<stop offset="1" stop-color="#003256" stop-opacity="0.63"/>
</linearGradient>
<linearGradient id="paint2_linear_499_943" x1="437.47" y1="368.531" x2="557.39" y2="1285.44" gradientUnits="userSpaceOnUse">
<stop stop-color="#002B34"/>
<stop offset="1" stop-color="#003256" stop-opacity="0.63"/>
</linearGradient>
<linearGradient id="paint3_linear_499_943" x1="1921.24" y1="-6.16394" x2="2098.4" y2="1348.39" gradientUnits="userSpaceOnUse">
<stop stop-color="#002B34"/>
<stop offset="1" stop-color="#003256" stop-opacity="0.63"/>
</linearGradient>
<linearGradient id="paint4_linear_499_943" x1="1051.15" y1="170.124" x2="1276.79" y2="1895.33" gradientUnits="userSpaceOnUse">
<stop stop-color="#002B34"/>
<stop offset="1" stop-color="#003256" stop-opacity="0.63"/>
</linearGradient>
<linearGradient id="paint5_linear_499_943" x1="685.819" y1="1270.88" x2="738.632" y2="1671.51" gradientUnits="userSpaceOnUse">
<stop stop-color="#002B34"/>
<stop offset="1" stop-color="#003256" stop-opacity="0.63"/>
</linearGradient>
<linearGradient id="paint6_linear_499_943" x1="393.879" y1="799.62" x2="474.423" y2="1415.46" gradientUnits="userSpaceOnUse">
<stop stop-color="#002B34"/>
<stop offset="1" stop-color="#003256" stop-opacity="0.63"/>
</linearGradient>
</defs>
</svg>
