<svg width="69" height="33" viewBox="0 0 69 33" fill="none" xmlns="http://www.w3.org/2000/svg">
<circle cx="7.42281" cy="27.0263" r="4.61261" transform="rotate(-7.45132 7.42281 27.0263)" fill="#FF0000"/>
<path d="M14.7577 11.3315L14.8151 11.7708L11.8597 12.1574L11.8023 11.718L14.7577 11.3315ZM15.1639 11.2783L15.9532 17.3135L15.4434 17.3802L14.654 11.345L15.1639 11.2783ZM11.6199 11.7418L12.1256 11.6757L12.3371 14.4854C12.3698 14.9505 12.3872 15.3627 12.3892 15.7222C12.394 16.0814 12.3759 16.3943 12.3349 16.6611C12.2936 16.925 12.2228 17.1465 12.1225 17.3254C12.025 17.504 11.8931 17.6449 11.7267 17.7482C11.5627 17.8484 11.3564 17.9147 11.1077 17.9472L10.9336 17.97L10.8767 17.5348L11.0289 17.5064C11.1913 17.4796 11.328 17.4294 11.4393 17.3558C11.5533 17.2818 11.6434 17.1759 11.7097 17.0379C11.7784 16.8969 11.826 16.7136 11.8528 16.488C11.8822 16.2621 11.8938 15.9852 11.8874 15.6572C11.8838 15.3288 11.8652 14.9392 11.8315 14.4882L11.6199 11.7418ZM19.1267 16.9827C18.8338 17.0211 18.5573 17.0024 18.2973 16.9268C18.04 16.8508 17.8073 16.7267 17.5993 16.5543C17.394 16.3816 17.2241 16.1678 17.0896 15.9127C16.9574 15.6546 16.8704 15.3652 16.8285 15.0447L16.8052 14.8664C16.76 14.521 16.7703 14.2021 16.836 13.9096C16.9018 13.6171 17.0114 13.3597 17.165 13.1372C17.3186 12.9148 17.5032 12.736 17.7189 12.601C17.9369 12.4629 18.173 12.3772 18.4272 12.344C18.7119 12.3067 18.9714 12.3248 19.2058 12.3981C19.4399 12.4687 19.6437 12.5868 19.8171 12.7524C19.993 12.9149 20.136 13.1168 20.2463 13.3582C20.3562 13.5968 20.4308 13.8667 20.4702 14.1679L20.5098 14.4704L17.115 14.9144L17.0597 14.4916L19.9612 14.1122L19.9536 14.0541C19.9152 13.8034 19.8334 13.5752 19.7081 13.3695C19.5852 13.1608 19.4208 12.9996 19.2148 12.886C19.0089 12.7724 18.7649 12.734 18.4831 12.7709C18.2731 12.7984 18.0854 12.8679 17.9201 12.9794C17.7576 13.0906 17.6236 13.2374 17.5182 13.4199C17.4152 13.5992 17.3439 13.8066 17.3045 14.0423C17.2674 14.2748 17.2668 14.5278 17.3026 14.8014L17.3259 14.9796C17.3584 15.2283 17.4247 15.4557 17.5247 15.6619C17.6272 15.8649 17.7568 16.0391 17.9135 16.1844C18.073 16.3294 18.2526 16.4352 18.4525 16.5018C18.6523 16.5684 18.8655 16.5869 19.0921 16.5572C19.3574 16.5225 19.586 16.4435 19.7778 16.32C19.9693 16.1938 20.1326 16.0136 20.2678 15.7795L20.6102 15.9793C20.5322 16.1356 20.428 16.2842 20.2974 16.4249C20.1696 16.5653 20.0096 16.6846 19.8173 16.7828C19.6249 16.881 19.3947 16.9477 19.1267 16.9827ZM24.5118 13.673L24.5671 14.0958L21.906 14.4438L21.8507 14.021L24.5118 13.673ZM21.7168 11.998L22.3034 16.483L21.8101 16.5475L21.2235 12.0626L21.7168 11.998ZM24.6308 11.6169L25.2173 16.1018L24.7199 16.1669L24.1333 11.682L24.6308 11.6169ZM28.1609 15.3669C28.3709 15.3395 28.562 15.2751 28.7343 15.1739C28.909 15.0695 29.0456 14.9322 29.1442 14.7619C29.2452 14.5885 29.2891 14.3874 29.2761 14.1587L29.7486 14.0969C29.772 14.3833 29.7182 14.6489 29.5872 14.8937C29.4586 15.1354 29.2741 15.3366 29.0338 15.4973C28.7958 15.6549 28.5235 15.7538 28.2167 15.7939C27.9045 15.8347 27.6207 15.8142 27.3655 15.7324C27.113 15.6501 26.8935 15.5186 26.7068 15.3379C26.5198 15.1544 26.3671 14.9326 26.2488 14.6726C26.1329 14.4096 26.0543 14.1205 26.0131 13.8055L25.9904 13.6314C25.9492 13.3164 25.9509 13.0182 25.9956 12.7369C26.0428 12.4525 26.1333 12.199 26.2672 11.9763C26.4007 11.7508 26.5789 11.5659 26.8017 11.4215C27.0245 11.2771 27.2921 11.1845 27.6043 11.1437C27.9249 11.1018 28.2208 11.1291 28.492 11.2258C28.7659 11.322 28.9945 11.479 29.1775 11.6968C29.3634 11.9142 29.4845 12.1851 29.541 12.5093L29.0684 12.5711C29.0232 12.3325 28.9325 12.1336 28.7965 11.9743C28.6604 11.815 28.4936 11.7005 28.2962 11.6308C28.0988 11.5611 27.8868 11.541 27.6602 11.5706C27.4059 11.6039 27.1955 11.682 27.0289 11.805C26.8619 11.9252 26.733 12.0784 26.6421 12.2645C26.5536 12.4475 26.4974 12.6516 26.4735 12.8768C26.4492 13.0992 26.4525 13.3292 26.4836 13.5669L26.5064 13.741C26.5378 13.9814 26.5927 14.2075 26.671 14.4193C26.7517 14.628 26.8583 14.8093 26.9909 14.9635C27.1262 15.1172 27.2902 15.2321 27.4829 15.3081C27.6779 15.3809 27.9039 15.4005 28.1609 15.3669ZM30.869 10.801L31.4556 15.2859L30.9582 15.351L30.3716 10.8661L30.869 10.801ZM33.8203 10.415L32.082 13.1129L31.0126 13.2528L30.9007 12.8163L31.8126 12.6971L33.1944 10.4969L33.8203 10.415ZM33.9592 14.9585L31.8122 13.0808L32.0774 12.6582L34.6141 14.8729L33.9592 14.9585Z" fill="white"/>
</svg>
