<svg width="69" height="32" viewBox="0 0 69 32" fill="none" xmlns="http://www.w3.org/2000/svg">
<circle cx="7.68844" cy="26.5714" r="4.61261" transform="rotate(-7.45132 7.68844 26.5714)" fill="#FF0000"/>
<path d="M11.1623 11.3813L11.6763 11.3141L14.6013 16.3364L16.1405 10.7302L16.6503 10.6636L14.8905 17.0321L14.5008 17.0831L11.1623 11.3813ZM11.0048 11.4019L11.4566 11.3428L11.955 14.7347L12.2998 17.3709L11.7941 17.4371L11.0048 11.4019ZM16.3643 10.701L16.8161 10.6419L17.6055 16.677L17.0956 16.7437L16.7508 14.1075L16.3643 10.701ZM19.4402 15.6192L21.3836 11.6213L21.881 11.5562L22.4676 16.0411L21.9702 16.1062L21.4888 12.4254L19.5453 16.4233L19.0562 16.4873L18.4696 12.0024L18.9588 11.9384L19.4402 15.6192ZM23.8134 12.1804L24.5128 17.5275L24.0154 17.5925L23.2033 11.3833L23.6675 11.3226L23.8134 12.1804ZM27.1056 13.1116L27.117 13.1986C27.1607 13.533 27.1621 13.8448 27.1213 14.134C27.0804 14.4232 27.0001 14.6796 26.8804 14.9033C26.7631 15.1238 26.6053 15.3032 26.4069 15.4416C26.2086 15.5799 25.974 15.6668 25.7032 15.7023C25.4352 15.7373 25.1907 15.7271 24.9699 15.6717C24.749 15.6163 24.5527 15.5225 24.3808 15.3904C24.2113 15.2552 24.0676 15.0913 23.9497 14.8987C23.8342 14.703 23.7424 14.4845 23.6743 14.2433L23.5241 13.0951C23.5301 12.8189 23.5657 12.5641 23.6307 12.3308C23.6958 12.0974 23.791 11.891 23.9165 11.7116C24.0448 11.5318 24.2056 11.3857 24.3988 11.2733C24.5921 11.1609 24.82 11.0875 25.0825 11.0532C25.3561 11.0174 25.6063 11.0395 25.8332 11.1194C26.0625 11.1962 26.2635 11.3259 26.4364 11.5085C26.6116 11.6879 26.755 11.9137 26.8665 12.1858C26.9803 12.4548 27.06 12.7634 27.1056 13.1116ZM26.6196 13.2637L26.6082 13.1766C26.5738 12.9141 26.5144 12.6745 26.4299 12.4579C26.3481 12.241 26.2411 12.0568 26.1089 11.9055C25.9791 11.751 25.8237 11.6378 25.6429 11.5659C25.4648 11.4936 25.2611 11.4725 25.0317 11.5025C24.794 11.5336 24.5962 11.6002 24.4381 11.7024C24.2824 11.8014 24.1578 11.9231 24.0643 12.0675C23.9703 12.209 23.9016 12.36 23.8579 12.5203C23.8142 12.6806 23.7867 12.8359 23.7755 12.9864L23.9484 14.3086C24.0284 14.5118 24.1382 14.6956 24.2777 14.86C24.4169 15.0217 24.5903 15.1438 24.7978 15.2262C25.0077 15.3056 25.2536 15.3268 25.5355 15.29C25.7621 15.2603 25.9521 15.1877 26.1056 15.072C26.2592 14.9564 26.3788 14.8073 26.4645 14.6246C26.553 14.4416 26.6088 14.2347 26.6321 14.004C26.6581 13.773 26.6539 13.5262 26.6196 13.2637ZM31.2417 12.3725L31.297 12.7952L28.6359 13.1433L28.5806 12.7205L31.2417 12.3725ZM28.4467 10.6975L29.0333 15.1824L28.54 15.2469L27.9534 10.762L28.4467 10.6975ZM31.3607 10.3164L31.9472 14.8013L31.4498 14.8664L30.8633 10.3814L31.3607 10.3164ZM33.2768 11.7184L34.74 11.5271C35.0937 11.4808 35.4002 11.5039 35.6597 11.5965C35.9188 11.6863 36.1246 11.8308 36.2771 12.0301C36.4324 12.229 36.5278 12.4639 36.5632 12.7347C36.5899 12.9391 36.579 13.1345 36.5302 13.3208C36.4839 13.5039 36.3988 13.6696 36.2749 13.8179C36.1537 13.9659 35.9955 14.0891 35.8004 14.1877C35.6081 14.286 35.3793 14.3524 35.114 14.3871L33.3358 14.6197L32.7492 10.1348L33.2425 10.0703L33.7732 14.1282L35.0582 13.9602C35.3318 13.9244 35.5467 13.8485 35.703 13.7325C35.8589 13.6137 35.9642 13.4735 36.0189 13.3118C36.0764 13.1496 36.094 12.9829 36.0716 12.8116C36.0495 12.643 35.9899 12.4878 35.8926 12.346C35.7978 12.201 35.6597 12.0911 35.4785 12.0165C35.2969 11.939 35.0694 11.9182 34.7958 11.954L33.3326 12.1454L33.2768 11.7184ZM37.686 9.48911L38.2725 13.974L37.7793 14.0385L37.1927 9.55362L37.686 9.48911ZM40.0741 12.9205L42.0175 8.92259L42.5149 8.85754L43.1015 13.3425L42.6041 13.4075L42.1227 9.72673L40.1792 13.7246L39.6901 13.7886L39.1036 9.30371L39.5927 9.23973L40.0741 12.9205ZM41.3512 7.37396L41.774 7.31866C41.8011 7.52591 41.7768 7.716 41.701 7.88893C41.628 8.06149 41.5077 8.20511 41.34 8.31979C41.1723 8.43447 40.9655 8.5079 40.7196 8.54006C40.3493 8.58849 40.0434 8.52732 39.8018 8.35655C39.563 8.18542 39.4232 7.94372 39.3823 7.63147L39.801 7.57671C39.8259 7.76738 39.9056 7.92559 40.0401 8.05135C40.177 8.17397 40.3878 8.21667 40.6724 8.17945C40.9487 8.14331 41.1371 8.047 41.2375 7.89053C41.3379 7.73406 41.3758 7.56187 41.3512 7.37396Z" fill="white"/>
</svg>
