<svg width="48" height="34" viewBox="0 0 48 34" fill="none" xmlns="http://www.w3.org/2000/svg">
<circle cx="7.59563" cy="28.525" r="4.61261" transform="rotate(-7.45132 7.59563 28.525)" fill="#FF0000"/>
<path d="M14.661 12.7723L15.1709 12.7056C15.1825 13.1172 15.1165 13.4828 14.9728 13.8024C14.8288 14.1191 14.6095 14.3769 14.3151 14.5756C14.0207 14.7743 13.651 14.9027 13.2061 14.9609C12.8634 15.0057 12.5441 14.9815 12.248 14.8881C11.9547 14.7943 11.693 14.6417 11.4629 14.43C11.2325 14.2156 11.0416 13.9483 10.8901 13.628C10.7386 13.3078 10.6361 12.9432 10.5826 12.5342L10.4839 11.7798C10.4304 11.3708 10.4359 10.9935 10.5003 10.6478C10.5643 10.2993 10.6815 9.99169 10.8518 9.7249C11.0221 9.4581 11.2396 9.24133 11.5045 9.07459C11.7694 8.90785 12.0787 8.80135 12.4324 8.75509C12.8607 8.69907 13.2413 8.7294 13.5742 8.84607C13.9067 8.95998 14.1819 9.15164 14.3998 9.42106C14.6205 9.69013 14.7787 10.0292 14.8743 10.4383L14.3645 10.505C14.2832 10.1839 14.1614 9.91881 13.9991 9.70957C13.8368 9.50032 13.6305 9.35164 13.38 9.26354C13.132 9.17231 12.8353 9.14929 12.4899 9.19446C12.208 9.23133 11.9636 9.3181 11.7566 9.45478C11.5496 9.59147 11.382 9.77079 11.2536 9.99275C11.1249 10.212 11.0373 10.4665 10.9909 10.7565C10.9473 11.046 10.9479 11.3622 10.9927 11.7048L11.0924 12.4675C11.1358 12.7991 11.2144 13.0994 11.3283 13.3684C11.4422 13.6373 11.5871 13.8643 11.7631 14.0493C11.9418 14.2339 12.1477 14.3686 12.3809 14.4533C12.614 14.5381 12.8701 14.5622 13.1492 14.5257C13.5057 14.4791 13.7953 14.3836 14.0181 14.2392C14.2434 14.0917 14.4075 13.896 14.5105 13.652C14.6135 13.4081 14.6637 13.1148 14.661 12.7723ZM18.3472 12.1384L19.6017 7.90175L20.1986 7.82368L18.5436 13.1245C18.5035 13.2478 18.4548 13.3807 18.3976 13.5231C18.3399 13.6627 18.2633 13.7964 18.1676 13.9242C18.0718 14.0519 17.9485 14.1622 17.7977 14.255C17.6468 14.3478 17.4553 14.4094 17.2232 14.4398C17.1651 14.4473 17.0941 14.4524 17.0101 14.455C16.9262 14.4575 16.8667 14.4541 16.8317 14.4446L16.8179 14.0164C16.8549 14.02 16.9099 14.0212 16.9828 14.0201C17.0581 14.0159 17.1207 14.0105 17.1704 14.004C17.35 13.9805 17.4942 13.9223 17.6029 13.8294C17.7116 13.7365 17.7994 13.6238 17.8664 13.4914C17.9331 13.3562 17.9907 13.2165 18.0393 13.0724L18.3472 12.1384ZM15.9168 8.38369L18.4647 12.102L18.6813 12.5332L18.2574 12.6771L15.3323 8.46013L15.9168 8.38369ZM23.7213 11.0013L22.0011 11.2263L21.9442 10.791L23.6644 10.5661C24.0236 10.5191 24.3076 10.4229 24.5162 10.2776C24.7273 10.1291 24.8707 9.94735 24.9466 9.73225C25.0252 9.5168 25.0481 9.28333 25.0152 9.03187C24.983 8.78593 24.9009 8.5662 24.7688 8.37269C24.6394 8.17881 24.4533 8.03451 24.2105 7.9398C23.97 7.84196 23.6702 7.81653 23.3109 7.86351L21.769 8.06518L22.5008 13.661L21.991 13.7276L21.2017 7.69249L23.2535 7.42414C23.6956 7.36631 24.0772 7.3937 24.3983 7.50629C24.7221 7.61851 24.9791 7.79991 25.1693 8.05048C25.3595 8.30105 25.4777 8.60319 25.5239 8.9569C25.5724 9.32719 25.5367 9.65647 25.4171 9.94476C25.297 10.2303 25.0956 10.4632 24.8128 10.6435C24.53 10.8239 24.1662 10.9431 23.7213 11.0013ZM30.072 6.53235L30.1295 6.97172L27 7.38103L27.7319 12.9768L27.2262 13.0429L26.4368 7.00779L30.072 6.53235ZM33.5926 10.1445L34.8471 5.90783L35.444 5.82976L33.789 11.1306C33.7489 11.2539 33.7002 11.3868 33.643 11.5292C33.5853 11.6688 33.5087 11.8025 33.4129 11.9302C33.3172 12.058 33.1939 12.1683 33.0431 12.2611C32.8922 12.3539 32.7007 12.4155 32.4686 12.4458C32.4105 12.4534 32.3395 12.4585 32.2555 12.461C32.1716 12.4636 32.1121 12.4601 32.0771 12.4507L32.0633 12.0224C32.1003 12.026 32.1552 12.0273 32.2282 12.0262C32.3035 12.0219 32.366 12.0166 32.4158 12.0101C32.5954 11.9866 32.7396 11.9284 32.8483 11.8355C32.957 11.7425 33.0448 11.6299 33.1118 11.4974C33.1785 11.3622 33.2361 11.2226 33.2847 11.0785L33.5926 10.1445ZM31.1622 6.38978L33.7101 10.108L33.9267 10.5393L33.5028 10.6832L30.5777 6.46621L31.1622 6.38978ZM38.5444 5.42426L39.3338 11.4594L38.8281 11.5255L38.0387 5.4904L38.5444 5.42426ZM40.6128 5.15374L40.6703 5.59311L36.032 6.19975L35.9745 5.76037L40.6128 5.15374Z" fill="white"/>
</svg>
