<svg width="87" height="37" viewBox="0 0 87 37" fill="none" xmlns="http://www.w3.org/2000/svg">
<circle cx="8.12871" cy="31.5451" r="4.61261" transform="rotate(-7.45132 8.12871 31.5451)" fill="#FF0000"/>
<path d="M13.5755 17.4715L14.8301 13.2348L15.427 13.1568L13.772 18.4576C13.7319 18.5809 13.6832 18.7138 13.6259 18.8562C13.5683 18.9958 13.4917 19.1295 13.3959 19.2572C13.3002 19.385 13.1769 19.4953 13.026 19.5881C12.8752 19.6809 12.6837 19.7425 12.4516 19.7728C12.3935 19.7804 12.3225 19.7855 12.2385 19.788C12.1545 19.7906 12.0951 19.7871 12.0601 19.7777L12.0463 19.3494C12.0833 19.353 12.1382 19.3543 12.2112 19.3532C12.2865 19.3489 12.349 19.3436 12.3988 19.3371C12.5784 19.3136 12.7226 19.2554 12.8313 19.1625C12.94 19.0695 13.0278 18.9569 13.0948 18.8244C13.1614 18.6892 13.2191 18.5496 13.2677 18.4055L13.5755 17.4715ZM11.1451 13.7168L13.693 17.435L13.9096 17.8662L13.4858 18.0102L10.5607 13.7932L11.1451 13.7168ZM18.6815 16.7657L17.1064 16.9718L17.0439 16.5583L18.3869 16.3827C18.6577 16.3473 18.8791 16.2888 19.0511 16.2073C19.2255 16.1226 19.3506 16.0149 19.4262 15.8842C19.5046 15.7531 19.5325 15.6005 19.5097 15.4264C19.4923 15.2937 19.4495 15.1813 19.3813 15.089C19.3157 14.9964 19.2249 14.9254 19.1089 14.8759C18.9955 14.8261 18.8568 14.7965 18.6925 14.787C18.5307 14.7745 18.3447 14.7819 18.1347 14.8094L16.9865 14.9596L17.5178 19.0217L17.0246 19.0862L16.438 14.6013L18.0794 14.3866C18.353 14.3508 18.6008 14.3437 18.8228 14.3653C19.0473 14.3837 19.2432 14.4311 19.4106 14.5076C19.578 14.5841 19.7117 14.6931 19.8117 14.8346C19.9141 14.973 19.9787 15.1444 20.0055 15.3489C20.0235 15.4871 20.0143 15.6204 19.9777 15.7488C19.9407 15.8745 19.8774 15.9924 19.7878 16.1025C19.7006 16.2095 19.5878 16.3029 19.4493 16.3829C19.3104 16.46 19.1466 16.518 18.9577 16.5568L18.6815 16.7657ZM18.952 18.8341L17.2235 19.0602L17.3589 18.6125L18.8967 18.4113C19.1454 18.3788 19.3526 18.3194 19.5184 18.233C19.6842 18.1467 19.8032 18.0356 19.8753 17.8997C19.9503 17.7634 19.9762 17.6068 19.953 17.43C19.9313 17.2642 19.867 17.1265 19.7599 17.0168C19.6555 16.9068 19.512 16.83 19.3292 16.7864C19.1461 16.7401 18.9302 16.7332 18.6815 16.7657L17.5375 16.9154L17.4915 16.4998L18.963 16.3073L19.195 16.4372C19.4241 16.4269 19.6283 16.462 19.8075 16.5426C19.9866 16.6232 20.1321 16.7362 20.2439 16.8818C20.3553 17.0246 20.4232 17.1886 20.4474 17.3738C20.4741 17.5782 20.4591 17.7643 20.4023 17.9319C20.3452 18.0968 20.2503 18.2413 20.1175 18.3655C19.9872 18.4865 19.8232 18.5867 19.6256 18.6659C19.428 18.7452 19.2035 18.8012 18.952 18.8341ZM24.3431 17.3111L24.0406 14.9982C24.0128 14.7854 23.9445 14.6075 23.8359 14.4643C23.7272 14.3211 23.5818 14.2192 23.3996 14.1588C23.2175 14.0983 23.0006 14.0845 22.7492 14.1173C22.517 14.1477 22.3152 14.2163 22.1437 14.323C21.9745 14.4266 21.8465 14.5544 21.7596 14.7063C21.675 14.8551 21.6436 15.0124 21.6653 15.1782L21.1674 15.2391C21.1453 15.0705 21.1654 14.9021 21.2277 14.7337C21.29 14.5654 21.389 14.4091 21.5248 14.2648C21.6605 14.1206 21.8287 13.9988 22.0293 13.8995C22.2323 13.7971 22.4609 13.7292 22.7151 13.696C23.0357 13.6541 23.3246 13.6711 23.5819 13.7471C23.8419 13.8227 24.0551 13.9592 24.2215 14.1567C24.3878 14.3541 24.4923 14.6159 24.535 14.942L24.8185 17.1098C24.8387 17.2646 24.8707 17.4234 24.9145 17.5863C24.9611 17.7489 25.0135 17.8811 25.0718 17.9831L25.0783 18.0329L24.5519 18.1017C24.5057 18.0066 24.4632 17.8857 24.4244 17.739C24.3879 17.5891 24.3608 17.4465 24.3431 17.3111ZM24.2228 15.4887L24.281 15.869L23.3069 15.9964C23.0527 16.0296 22.8278 16.0829 22.6322 16.1563C22.439 16.2265 22.2791 16.3149 22.1525 16.4214C22.0256 16.5251 21.9327 16.6427 21.874 16.774C21.8181 16.905 21.8002 17.0479 21.8205 17.2026C21.8414 17.3629 21.9006 17.5041 21.9981 17.6263C22.0984 17.7481 22.2283 17.8393 22.388 17.8999C22.5502 17.9574 22.7348 17.9726 22.9421 17.9455C23.2184 17.9093 23.4549 17.8264 23.6515 17.6967C23.851 17.5666 24.0089 17.4096 24.1254 17.2258C24.2419 17.0419 24.3108 16.8488 24.3321 16.6465L24.585 16.9043C24.5672 17.0471 24.5195 17.1981 24.4419 17.3572C24.3667 17.5132 24.2615 17.6647 24.1261 17.8117C23.9904 17.9559 23.8242 18.0817 23.6274 18.1889C23.433 18.293 23.206 18.3621 22.9462 18.396C22.6533 18.4343 22.3905 18.4125 22.1577 18.3305C21.9277 18.2482 21.7394 18.1196 21.5929 17.9449C21.4488 17.767 21.3608 17.5564 21.329 17.3133C21.3001 17.0922 21.3212 16.8885 21.3924 16.7021C21.4632 16.5129 21.5791 16.346 21.7401 16.2013C21.9034 16.0535 22.1067 15.9313 22.3498 15.8349C22.5954 15.7353 22.8757 15.6649 23.1907 15.6237L24.2228 15.4887ZM27.2026 13.1934L27.7892 17.6783L27.2959 17.7428L26.7093 13.2579L27.2026 13.1934ZM28.8357 12.9798L28.891 13.4026L25.1895 13.8867L25.1342 13.4639L28.8357 12.9798Z" fill="white"/>
</svg>
