<svg xmlns="http://www.w3.org/2000/svg" xmlns:xlink="http://www.w3.org/1999/xlink" viewBox="0 0 1920 2127"><defs><style>.a,.b,.c,.d,.f,.g{fill-rule:evenodd;}.a{fill:url(#a);}.b{fill:url(#b);}.c{fill:url(#c);}.d{fill:url(#d);}.e{fill:url(#e);}.f{fill:url(#f);}.g{fill:url(#g);}</style><linearGradient id="a" x1="1260.29" y1="1092.89" x2="1383.46" y2="151.16" gradientTransform="matrix(1, 0, 0, -1, 0, 2128)" gradientUnits="userSpaceOnUse"><stop offset="0" stop-color="#002b34"/><stop offset="1" stop-color="#003256" stop-opacity="0.63"/></linearGradient><linearGradient id="b" x1="213.4" y1="805.83" x2="257.03" y2="472.25" xlink:href="#a"/><linearGradient id="c" x1="391" y1="1746.14" x2="510.57" y2="831.95" xlink:href="#a"/><linearGradient id="d" x1="1554.35" y1="2197.82" x2="1745.62" y2="735.4" xlink:href="#a"/><linearGradient id="e" x1="876.82" y1="2020.45" x2="1122.34" y2="143.2" xlink:href="#a"/><linearGradient id="f" x1="614.78" y1="808.44" x2="667.33" y2="409.81" xlink:href="#a"/><linearGradient id="g" x1="349.18" y1="1274.41" x2="429.38" y2="661.25" xlink:href="#a"/></defs><path class="a" d="M1278.5,1032.73l-6.19,13-.2.45-.35.2-16.75,8.48-14.71,13,3.17,24.91,6,16.13.25.63-.13.57-6.29,29.94,10.69,18.77.17.3,0,.41,4.61,30.06.1.46-.1.42-10.19,40.89-.11.42-.25.25-20.93,24.63,10.47,19.48.45.87-.37,1-7.94,21,7.42,23.92,20.35,5.33.62.16.22.91,4.45,18,.22.78-.36.68-12.33,24.7.57,15.45,9.48,1.89.57.1.25.76,6.37,19,.31.9-.43.81-9.33,17.59-2.37,24.2-.18,2.12-1.34-.83L1232.83,1442l-.3-.22-.18-.43L1220,1412.81l-17.44,15.78-.33,26.05v.54l-.2.38-34.88,71.9,4.5,29.33.15,1.19-.73.62-10.33,8.62-.92.78-.59-1.31-20.16-46.16-8.89,22.36-.27.65-.5.1-42,10.5-12.64,47.78,22.76,39.32.32.48,0,.69-1.45,24.49-.08,1.17-.77.27-18.26,7.35-7.88,31.31,3.59,79.66.06,1.68-1.17,0-18.2.77-12,11,1.42,15.44,34.39,34.11,50.45,38,18.45-5.22,1-.24.35,1.29,1.15,4.39,11.94-1.83,19.13-25.85.84-1.1.76,1.14,15.78,23.92,44.83,38.92,19.86-3.71.54-.11.39.53,17.9,25.56.21.3.09.45,3.75,21.57,21.78,2,.71.06.27,1,4.22,15.51,17.7-12.38,2-19.12-19.34,3.62-.7.13-.4-.88-5.49-12.49-.53-1.26.8-.89,8.46-9.71.16-.24.23-.11,12.35-4.94,23-30.09,7.2-21.85.08-.22.12-.16,16.5-28.06,2.52-19,0-.21,0-.14,8.51-29.54.05-.07,10.67-32.52,7.38-48.08,5.27-38.47-11.87-29.11-.13-.38,0-.42-.68-33.43v-.48l.19-.44,10-22.44-15.68-14.52-.36-.34-.09-.53-4.12-18.91-.34-1.64,1.18-.41,24-9,1.12-21.06.11-1.84,1.25.37,13.61,4.22,21.74-15.23,4.2-22.09.31-1.7,1.13.68,12.35,6.76,11.54-2.16.55-.1.39.6,9.65,14.63,46.44-27.83,2.6-30.8.16-1.45h1l9.84.33,10.36-22.12,1.45-3,.61,3.61,3.44,21.28,30,1,15.7-20.6-2.24-32.6L1587.7,1383l-.49-.37-.08-.81-5.31-40.69-.12-.85.41-.62,9.16-13.28.24-.39.37-.07,25-5.75-30.66-73-13.8-10.34-20.86,18.72-1,.94-.52-1.66-11.31-33.68-37.31-13.87-17.29,7.56-19.8,91.2,0,.21-.08.22-15.74,34.88-.66,1.49-1-1-15.34-17-6.53,23.68-.25.87-.63.18-25.33,6.23-15.53,22.39-.7,1-.84-1-18.87-22.32-.36-.48,0-.66-2.94-66.45,0-.27.07-.28,10.39-53.51-20.26-4.81-.53-.17-.25-.63-12-28.21-.18-.5,0-.55,3.17-43.5-17-9.88-.63-.36,0-1-2.79-41.64-14.63-30.23-8.47,11.14-.29.39h-.38l-13.54,1.05-1.07.06-.14-1.46-1.92-21-.07-.86.5-.57,9.56-11.52Z"/><path class="b" d="M142,1633.57l23.18-3.72,23.22,32.4,15.64.44.44-.62,3.3-15.42.08-.43.22-.24,23.84-31.61,1.65-21.63v-.49l.28-.32,14-22.06.49-.77.85.09,21,1.49,4.17-9.78,1.37-16.55-7.63-15.82-18.22-4.77-.81-.24-.28-.73-3.84-10-.29-.8.43-.76,7-12-.78-28v-.63l.33-.47,25.55-35.07.93-1.33,1.22,1,18.48,15.47,1,.91-.56,1.27-7.34,15,11.68.72H303l.28.17,32.34,18.83,22.17-6.88.5-.14.54.21,22.69,9.88,20.76-2,25.36-24.8-54.73-33.67-.35-.16-.16-.33L342,1381.18v-.07l-22.93-40.73-14.3-1.61-.12,0-.14,0-30.83-8.94-.27-.1-.21-.18-16.51-13-2.79,13.24-.24,1.16-1.14.16-23.41,2.42-4.75,7.7-.16.23-.24.18-13.62,10.49-.41.34-.57,0-11.66-1.08-6.43,7.09-.4.41-.51.07L175.76,1361l-.31,0-.34-.09-19.47-6.07-6,17.56-.24.73-.74.25-25.48,9.31-13,34.06-.34,1-.9.06-46.86,5L52.89,1454l4.18,28.38.16,1.31-1.09.57-12,5.5-1.53,23.23,13.78,25.19.08.13.08.13,6.43,17,20.4,3.69.34.09.28.24,20.33,15.35.57.41.08.69,2.79,18.41L137.59,1616l.49.35.14.68,3.72,16.45Z"/><path class="c" d="M680.11,497.68l-16.43,3.39-4.37,33.39-30.28-23-4.1,28.76,32.84,29.9L663,599.48,604.28,556l-5.5-32,18.6-32.7L615,443.44l-8.47,5.74-6.83,33.74-14.49,18.45-16.6,7.81-13.2,29.21L564.69,609l-32,74.64,7.49,41.67,41.1-5.85,38.93,39.07,5,42-20.09,34.72,8.33,13.39,20.27,9-34.23,13.94-14.71-38.84,20.29-53.86-16-35.92-41-.58L528.71,768.8l3.88,53.14-32,46.39-32.12,18.25-19.74,30.14-83.45-40.89-3-25.09,54.85,18.61,25.72-15.52,39.89-36.64,21.84-68.66-9.09-34.19L530,577.5l3-23.23-9.26-28.67,28.76-38.68.85-48.37-29.83-33.12L549.22,398l-8-33.93-26.18,1.57L516.18,391l7.37,14.43-17.28-4.79-22.2,24.08-24.63,45.41-20.07,27.41-33.48,13.9-15.8,21.36,21.17,23.34-15.07,41.33-26.05,12.78.79,13.55L398,647.27l-5.24,26.2L398.86,689l10.72,13L382.84,736.8,371,721.2l-12.87-37.35-38.83-51.51-16.37,19.35L316.24,671l.48.77-.28.87-17.3,46.81,12.42,29.82.34.72-.37.68-11.08,25.49-.26.53-.48.28L278.29,788.3l-12.71,21.06-.31.6-.68.17-56.18,10.79-25.66,29.94-.39.48-.5.07-18.53,3L168,906.94l.06.55-.2.44L149.76,945,168.07,976l55-3.3h.51l.35.23,28.68,18.23.63.39.1.83,4.24,28.4,10.29,7.88,62.79-5.32.7,0,.52.55,22.43,23.72.36.37.13.54,6.84,43.09,12.45,13.63.38.44.06.55,2.6,28.56,41.22-5.87.56-.08.5.42,42,31.87,54.75,17.23.46.14.3.38,23.2,31.7,36.49,17.6,34.72-1.32,25.37-26.49.91-1,1,.82,28.62,22.42,26.13-4.63.81-.18.6.68L718.29,1247l10.29-.63h.57l.44.42L751,1264.61l32.58-59.72-1.74-35.25v-.49l.21-.37,21.19-42.63-8.56-30.71-32.4-19.86-.83-.51v-1l2-46.64-23.17-26.62-.38-.5v-.63l-1.44-64.22L709.63,904l-.59-.61.15-.93,6-33.48-12.79-23.91-.91-1.68,1.65-.72,30.59-13.84,9-39.08L730.38,746.9l-34.31-4.31-.52-.07-.37-.43-35.79-39.53-.52-.55,0-.78,2.91-27.46.09-.85.65-.45,43-28.79,2.21-20.53L683.1,581.21l-.25-.46.06-.56,1.34-29.9,0-1.19,1-.36,19.58-6.48L681,501.66l-.15-.19,0-.34Z"/><path class="d" d="M1954-122.08l-4.51,17.72L1919-72.4l-27.12-27.76-24.33.88-31.2,37.2-19.5,44.52-4.42,42.78-14.94,9.46L1777,24.59l-18.34,5.8-7.89,19.44-9.4-8.65-6.67,13.19-10.8-11,11.88-21.78L1703,23.92,1686.6,50l14.94,47-16.18,28.52-3.67-37.87-12.6,2.22L1658,108.12l-4.86-18.83,16.34-26.9-19.66,5.24-54.75,52.45,13.24,17.35-14.59,25.73,8.26,15.67,11.18-10.57,3.57,24.25,16.68,21L1612,225.05l-5.35,13.8,7.94,19.14L1597,265.36l-25-5.82-3.51,39.14-41.82-2.92,8.17,84.26-29.46-1.69-49.89-48.55,14.64-18.86-32.47-51.69L1419,250.5l-25.18,17.31-31-10.81,2,64.75-50.34,41.43-22.29-15.75,1.56-15.7-54.72,8.81-11.83,29.51-1.88,18.31-6.11-25.49L1207.82,352l-10.3,19.8L1182,386.44l.63,16.22,9.19,13.15.17.3.13.37,6,25.32,30.7,46.49.22.35,0,.52,3.22,33.22,15.25,19.76.9,1.08-.82,1.2-26.76,38.71.18,19.66v.39l-.1.35-5.61,16-1.81,36.87-.09,1.46-1,0-15,.14-21.06,31.28-.08.15-.13.09-7.4,7.21,22.73,37,.21.29,0,.39,17.33,111.71.1.64-.27.57L1194.88,876l12.1,9.88.6.48,0,1L1206,918.08l11.1,13.13.32.4,0,.58,2,21,12.49,9.09.8.58-.21,1.15-3.49,21.48-.06.28-.08.21-14.33,32.19.36,21.13,28-4.94.37-.07.35.27,13.44,11.28,11.84-14.5.79-.93.75,1,8.56,11.55.7.93-.09.08,11.59,18.69.73,1.19-.89,1-9.92,11.59,1.76,18.06,12.17-.83,9-11.63,1-1.16.75,1.44,15.6,31.17.23.36v.47l2.82,39.78,17.19,9.83.78.39-.07,1.2-3.15,42.81,11.68,26.36,21,4.88,1.25.31-.36,1.7-10.5,53.3,3,63.45,17.79,20.35,15-21,.25-.31.36-.14,25.07-5.8,6.84-24.11.55-1.94,1.16,1.31,15.51,16.68,14.9-32.08,19.73-88.92.21-.77.53-.29,18.21-7.61.32-.12.29.08,38.17,13.94.53.16.21.69,11.12,31.76,20.28-17.62.52-.42.6.36,14.7,10.73.29.2.18.36,31.84,73.2,39.67,76.73,18.15-21.77.08-.14.09,0,19.57-15.27.56-.49.56.49,17.58,15.27,7.55-12.29.7-1,.83.85,14.23,14.15,10.06-18.38.32-.57.46-.08,29.12-3.64.37-.06.3.27,20.08,16.53,33.82-24.79.56-.43.56.49,13.22,11.78,46-40.14.3-.31.38.06,14.58,1.76,14.58-10.78-3.46-15.86-.24-1.08.64-.64,35.27-34.37-13.11-35.82-.32-.85.39-.79,10.88-21.42-7.07-17.51-26.4-18-.9-.63.33-1.37,9.4-36.77-26-18.84-1.11-.86.66-1.43,9.32-20.08-7.39-76.26-.1-1,.7-.51L1950.48,978l-1.07-29.8,0-1.37,1-.23,27.34-7.46,4-25-3.33-24.67-.15-1,.64-.57,12.46-11.05-14.87-48.11-20.29-14.92-.76-.53.12-1.13,6.33-62.61-23-60.12-.3-.73.34-.78,7.76-18.89.42-1,.77.26,34.27,10,20.32-10.08L2008,648.9l.21-.7.55-.23,24.24-9.52,2.26-23-52.85-112.73-.18-.43v-.52l1.34-30.1,0-.6.33-.45,25-32.23-13.16-26.29-.47-1,.52-.94,23.35-39.95.25-.37.36-.13,23.48-7.69,11.64-23.84-1.19-37.85-17.39-16.69-.36-.39-.11-.64-3.17-24.05-11.9-19-.61-1,.6-1L2031,220l-14.75-18.92-.8-1,.68-1.17,27.09-45.33.12-.22.18-.1,13.15-10.52,8.25-23-25-53.53-24.38,4.3-.23,0-.24-.09-20.36-8.35-.44-.18-.24-.55-13.55-34.62-.33-.86.36-.72,32.83-71-3-31.49Z"/><path class="e" d="M1265.44,1050l-.61.71-.75-.61-14.49-11.86-31.46,5.44,0-1.81-.48-24v-.48l.22-.37,15.06-33.19,3.39-20.6-12.79-9-.54-.45-2.23-22.59L1209,917.6l-.49-.59.06-.82,1.59-31.41-13.08-10.47-1.12-.89.74-1.47,15.12-30.17-18-113.6-25.21-40.59,9.72-9.16,22.32-32.56.34-.46.49,0,15-.17,1.84-36.77,0-.27.12-.29,5.82-16.37L1224.1,571v-.67l.35-.46,27.45-39-15.39-19.57-.29-.42-3.45-34.79-32-47.63-.22-.23-.09-.39-6.29-26-9.73-13.69-.33-.41v-.6l-.64-15.32L1168,386.09l-16.89,23.2-24.71,14.78-7.66,26-2.8-34.69L1160.74,332l21.76-76.73,6.84-66.27-46.43-56.2-37.84,4.78-10.62,28.18-14.75,6.12,6.94-46.07-31.27.07,8-21.6-21-18.35-16.12,11.61-21.51,60,9.56,31.77-28.66,7.58,1.65,10.29,12.83,19.76-21.34-2.45L969.59,240l-24.46-1.91L940.5,224l-33.83,6.72L910,257.41l-40,14.8-24.62,35L824,311.8l-13.79,21.79-3.08,40.09,16.44,30.58-19.43,10.36-54.55-2.84-30.88,4.45-7.12,24.95L716.36,502l22,22.54,12.43,28.65-27,4.67-29.14-55.62-16.91,4.27.5,3,19.17,40.9.86,1.8-1.5.6-15.61,6.4-.87,27.31,19.05,40.64.19.5,0,.62-1.67,21.17-.08.76-.49.42-32.8,27.56-2,25,26.85,37.41,26.61,4.36.75.14.25,1,10,43.35-1.07,6v-.06l-6,33.37-.16.77-.51.29-22.71,12.81L706,864.78l.2.57,0,.55L701.71,898l22,30.29.34.48,0,.68,1.35,62,17.83,25.9.34.48,0,.67-1.29,44.77L767,1082.53l.42.33.11.59,7,30.94.16.64-.28.65-16.13,41.2,1.47,34.11v.47l-.15.43-25.38,59,4.14,41.74,27,15.55.94.51-.22,1.31-2.94,16.69-.13.7-.41.33-21.11,17.12-.13.09-.19.11-18.83,6.55,12.28,38.92.27.76-.32.72-6.79,15.46,2.11,21.27,61.36,2.47.59,0,.36.69,22.56,46.9h17.62l.05,1.54.85,19,0,.66-.34.53-20.9,32.52,4.28,22.92,15,15.87,20.58,5.21,1.15.27-.19,1.52-1.55,16.51,0,.54-.31.39-19.44,26.53,1.93,29.86,0,1-.09.08-1.06,19.46,23.74,47,.48.92-.54,1-8.18,14.69-.08.22-.18.17-7.52,6.55,13.16,36.54,18.09-3.13,17.52-6,.42-.13.37.27,12.6,8.13,1,.64-.31,1.34-4.28,19.06,16.12,25.92.18.31.07.26,5.57,24,8.87,24.88.07.19,0,.19,2.92,18.64.16,1-.63.64-14.05,13.75,1.66,16.76-.06.35-3.72,16.82-.13.69-.41.27-15.57,11.32-6.31,27.24,28.91,21.07,44.27.32,16.67-24.91.21-.32.23-.1,9.74-5-.75-14-.08-.8.48-.55,14.06-16.24-2.68-14.7-.23-1.31.93-.56,11.12-6.17,1.57-21.76.08-1.17.86-.28,56.8-16.88,1-18.71-36-34-.44-.45-1.87-18.82.63-.58,13.43-11.69.26-.25h.35l18.14-.64-3.91-78,0-.33.11-.36,8.46-32.25.21-.78.57-.23,18.92-7.11,1.33-22.54-24-39.44-.47-.73.25-.92,13.58-49.18.25-.91.68-.12,44.1-10.25,9.92-23.88,1-2.33,1,2.25,21.7,47.06,9.08-7.16-4.72-28.83-.11-.66.28-.59,36.42-71.51.26-26-.19-.86,21.47-18.46.62,1.38,13.43,29.35,21,12.48,2.23-22.42v-.48l.22-.3,9.47-17-6.16-17.2-10.28-2.06-.95-.18-.08-1.32-.73-17.27v-.6l.25-.45,12.71-24.3-4.26-16.31-21.28-5.35-.6-.17-.27-.76-8.34-25.38-.22-.71.28-.71,8.18-20.63L1231.2,1271l-.72-1.29.88-1,22.52-25.12,10.36-39.72-4.8-29.16L1248,1155.6l-.4-.68.15-.83,6.58-30-6.25-15.7-.07-.18-.08-.26-3.51-26.15-.17-1.11.68-.59,16.19-13.44.08-.15.14,0,17.25-8.24,6.53-13.12-7.43-9.84Z"/><path class="f" d="M721.27,1355.56,698,1342l-39.33,32.74-.71.64-.87-.54-39.2-23.41L567,1357.9l-.43.06-.39-.21-36.47-19.59-24.87-4.1-20,21.63-9.7,60.53-.21,1.29-1.22,0-19.81.24L440,1430.66l-.93,18.09,0,.74-.55.48-24.93,20.66,3.21,13.89.2.64-.35.65L405,1506.31l14.81,13.15.48.4.07.59,6,49.79,106.8,37.66.33.15.21.24,22.08,24.06.21.23.09.26,8.08,21.19,29-5,.9-.2.52.79,12.72,19.13,57.39-6.44,1.51-.21.13,1.65,2.86,44.3,8.11,8.85,16.44-19.45.37-.45.49-.07,15.52-2.23,1.51-.22v.07l37.64-5.21,11.83-20.11.31-.52.53-.14,37.52-11.26.41-.13.39.15,34.19,10.84,24.75-16-2.26-29.3,0-.73.49-.54L881.88,1595l1.76-14.33L859,1575.92l-.37-.08-.28-.23L839,1559.44l-.41-.34-.13-.58-5.54-24-.22-.77.53-.68,26.43-32.56-.85-16.63-20,.14-.8,0-.46-.74-28-46.36L732.29,1435H731l-.17-1.38-2.78-23-.07-.59.3-.51,8.4-15.15Z"/><path class="g" d="M183.7,875.24l-16.63,2.62-21.18,26.56-.36.44-.47.07-21.51,4.36-.82.12-.56-.7-8.52-11.11L82.76,936.49l-3,22.72v.45l-.32.31-32.54,41.08L15.5,1082.33l9.73,8.26.28.29.17.43,6.72,20.1,29.92,13.86.44.2.24.48L84.93,1167l.09.25,0,.32,3.9,26,.06.51-.24.49L77.19,1218.2l9.71,32.52,6,19.22.2.69-.34.63-14.22,24.65,6.13,12.23,32.67,16.79.83.47v1l-.46,33,.6,16.93,13,16.15,22.71-8.32,5.74-17,.49-1.37,1.31.4,19.1,6,12.83-1.83,6.08-6.74.47-.52.66,0,11,1,12-9.27,4.6-7.56.41-.58.65-.1,21.46-2.21,2.87-13.51.5-2.29,1.78,1.38,16.81,13.32,28.23,8.23,13.95,1.53.73.1.31.6,21.68,38.44,27.95,44.39,51.51,31.65L441,1448.59l1-17.68,0-.66.43-.45,14.38-13.33.37-.38.55.06,18.71-.26,9.4-58.32.06-.46.37-.38,20.47-22,.53-.53.67.1,25.29,4.22.25,0,.13.11,35.45,19,49.9-6.2.47-.07.38.21,37.87,22.7,38.43-31.88.76-.63.84.47,23.49,13.67,24-6.8,25.22-16.25,3.21-14.21L741,1303.94l-.82-.34-.11-.89-4.94-41.22-20.37-17L705,1245l-.71.1-.43-.59L682,1217.89l-24.21,4.3-.59.08-.45-.32-26.36-20.56-23.25,24.24-.36.44h-.54l-33.38,1.24-.35,0-.32-.15-34.69-16.77-.32-.15-.23-.36-21.67-29.44-51-16-.25-.09-.19-.11-39.06-29.63-39.43,5.61-1.47.21-.14-1.61-2.56-27.8-11.58-12.69-.34-.34-.05-.45-6.45-40.28-20.17-21.38L284,1040.81l-.53.08-.4-.33-10.55-8.08-.52-.39-.08-.64-4-26.49-25.79-16.4-51.89,3.09h-.84l-.45-.72-18-30.49-.46-.78.39-.77,17.1-35.1Z"/></svg>