<svg width="87" height="37" viewBox="0 0 87 37" fill="none" xmlns="http://www.w3.org/2000/svg">
<circle cx="8.0693" cy="31.8197" r="4.61261" transform="rotate(-7.45132 8.0693 31.8197)" fill="#FF0000"/>
<path d="M14.6793 13.5214L14.7368 13.9608L11.6073 14.3701L12.3391 19.9659L11.8334 20.032L11.0441 13.9969L14.6793 13.5214ZM17.0805 18.8904L17.9494 14.6705L18.4841 14.6005L17.2666 20.055C17.2412 20.1623 17.2063 20.2821 17.1618 20.4144C17.12 20.5463 17.0582 20.6753 16.9763 20.8012C16.8975 20.9296 16.791 21.0391 16.6567 21.1297C16.5255 21.2228 16.3577 21.2826 16.1532 21.3094C16.1007 21.3163 16.0321 21.3182 15.9474 21.3152C15.8658 21.3147 15.8063 21.3112 15.7689 21.3048L15.71 20.8867C15.7415 20.891 15.7866 20.8922 15.8454 20.8901C15.9042 20.888 15.9446 20.8856 15.9667 20.8827C16.1463 20.8592 16.2929 20.8091 16.4066 20.7324C16.523 20.6553 16.6147 20.5506 16.6817 20.4182C16.749 20.2885 16.8027 20.1297 16.8428 19.9418L17.0805 18.8904ZM15.2468 15.0239L17.1805 18.6876L17.3809 19.1884L17.0468 19.4387L14.708 15.0944L15.2468 15.0239ZM21.9137 12.1663L22.3406 12.1105C22.3677 12.3177 22.353 12.4953 22.2964 12.6432C22.2427 12.7908 22.1551 12.9161 22.0336 13.0191C21.9122 13.1221 21.7649 13.2102 21.5918 13.2835C21.4211 13.3536 21.2329 13.4189 21.0272 13.4796C20.7753 13.5519 20.55 13.667 20.3515 13.8251C20.1557 13.9828 19.9966 14.1849 19.8743 14.4314C19.7516 14.6751 19.6732 14.9678 19.6392 15.3095C19.6076 15.6481 19.6276 16.0376 19.6993 16.4779L19.7497 16.8634L19.3228 16.9192L19.2723 16.5337C19.2087 16.0474 19.1993 15.6102 19.2441 15.2221C19.2913 14.8308 19.3858 14.4896 19.5276 14.1985C19.6722 13.9069 19.8571 13.6663 20.0825 13.4766C20.3102 13.2838 20.5714 13.1429 20.8661 13.0537C21.1422 12.9727 21.359 12.8895 21.5165 12.8043C21.6767 12.7187 21.7866 12.6242 21.8462 12.5208C21.9085 12.4171 21.931 12.2989 21.9137 12.1663ZM21.1049 14.5571C21.3978 14.5188 21.6682 14.534 21.9161 14.6028C22.164 14.6715 22.3828 14.7863 22.5725 14.947C22.7645 15.1045 22.9208 15.3005 23.0414 15.5349C23.1644 15.7661 23.2449 16.0268 23.2828 16.317L23.3002 16.4496C23.3407 16.7591 23.3309 17.0499 23.2709 17.3219C23.2137 17.5936 23.1105 17.8362 22.9614 18.0496C22.815 18.2627 22.6257 18.4378 22.3935 18.575C22.164 18.7118 21.8987 18.7999 21.5975 18.8393C21.2935 18.8791 21.0131 18.8623 20.7562 18.7891C20.4993 18.7159 20.2713 18.5954 20.0723 18.4275C19.8733 18.2596 19.7098 18.0519 19.5819 17.8044C19.4539 17.5569 19.3697 17.2785 19.3293 16.969L19.3119 16.8363C19.3014 16.7562 19.2994 16.6764 19.3059 16.5968C19.3151 16.5169 19.3287 16.4378 19.3465 16.3596C19.364 16.2786 19.3817 16.199 19.3996 16.1208C19.4634 15.8567 19.5709 15.615 19.7221 15.3956C19.873 15.1735 20.0638 14.9884 20.2945 14.8402C20.5281 14.6916 20.7982 14.5972 21.1049 14.5571ZM21.0856 14.9897C20.7623 15.0319 20.4999 15.1422 20.2983 15.3203C20.0992 15.4953 19.9588 15.7118 19.8773 15.9698C19.7955 16.225 19.7728 16.4922 19.8093 16.7713L19.8267 16.9039C19.8567 17.1333 19.9168 17.346 20.0071 17.5422C20.0974 17.7384 20.2152 17.9085 20.3605 18.0525C20.5082 18.1934 20.6806 18.2973 20.8777 18.3643C21.0748 18.4313 21.2963 18.4487 21.5422 18.4165C21.7854 18.3847 21.9936 18.3111 22.1668 18.1957C22.34 18.0803 22.4785 17.9357 22.5823 17.7619C22.6856 17.5854 22.7557 17.3907 22.7926 17.1779C22.8294 16.9651 22.8328 16.744 22.8028 16.5147L22.7854 16.382C22.758 16.172 22.7 15.9758 22.6115 15.7935C22.523 15.6111 22.4056 15.455 22.2593 15.3252C22.1155 15.1922 21.944 15.0952 21.7449 15.0341C21.5485 14.9727 21.3288 14.9579 21.0856 14.9897ZM24.3866 13.8286L24.9732 18.3135L24.4758 18.3785L23.8892 13.8936L24.3866 13.8286ZM27.3378 13.4426L25.5996 16.1405L24.5302 16.2803L24.4183 15.8439L25.3302 15.7246L26.7119 13.5244L27.3378 13.4426ZM27.4767 17.986L25.3298 16.1083L25.5949 15.6857L28.1317 17.9004L27.4767 17.986ZM29.2659 16.9342L31.2093 12.9362L31.7067 12.8712L32.2933 17.3561L31.7959 17.4212L31.3145 13.7404L29.371 17.7383L28.8819 17.8023L28.2953 13.3174L28.7844 13.2534L29.2659 16.9342ZM36.3587 14.3033L36.414 14.7261L33.7528 15.0741L33.6976 14.6513L36.3587 14.3033ZM33.5637 12.6283L34.1502 17.1132L33.657 17.1777L33.0704 12.6928L33.5637 12.6283ZM36.4776 12.2472L37.0642 16.7321L36.5668 16.7972L35.9802 12.3123L36.4776 12.2472ZM40.0077 15.9972C40.2178 15.9697 40.4089 15.9054 40.5812 15.8042C40.7558 15.6998 40.8924 15.5625 40.991 15.3922C41.092 15.2188 41.136 15.0177 41.1229 14.7889L41.5955 14.7271C41.6189 15.0136 41.5651 15.2792 41.4341 15.524C41.3055 15.7657 41.121 15.9668 40.8806 16.1276C40.6427 16.2852 40.3703 16.384 40.0636 16.4242C39.7513 16.465 39.4676 16.4445 39.2124 16.3626C38.9599 16.2804 38.7403 16.1489 38.5537 15.9682C38.3667 15.7846 38.214 15.5629 38.0957 15.3029C37.9797 15.0398 37.9012 14.7508 37.86 14.4358L37.8372 14.2617C37.796 13.9466 37.7978 13.6485 37.8425 13.3672C37.8896 13.0828 37.9801 12.8292 38.114 12.6065C38.2475 12.3811 38.4257 12.1962 38.6486 12.0518C38.8714 11.9074 39.1389 11.8148 39.4512 11.774C39.7717 11.7321 40.0676 11.7594 40.3388 11.856C40.6128 11.9523 40.8413 12.1093 41.0244 12.3271C41.2102 12.5445 41.3314 12.8153 41.3878 13.1396L40.9153 13.2014C40.87 12.9628 40.7794 12.7639 40.6433 12.6046C40.5072 12.4453 40.3405 12.3308 40.1431 12.2611C39.9456 12.1913 39.7336 12.1713 39.507 12.2009C39.2528 12.2342 39.0424 12.3123 38.8758 12.4352C38.7088 12.5555 38.5799 12.7086 38.489 12.8948C38.4005 13.0778 38.3443 13.2819 38.3203 13.5071C38.296 13.7295 38.2994 13.9595 38.3305 14.1972L38.3532 14.3712C38.3847 14.6117 38.4396 14.8378 38.5178 15.0496C38.5985 15.2582 38.7052 15.4396 38.8378 15.5937C38.9731 15.7475 39.1371 15.8623 39.3297 15.9383C39.5247 16.0112 39.7508 16.0308 40.0077 15.9972ZM42.7159 11.4313L43.3024 15.9162L42.805 15.9813L42.2185 11.4964L42.7159 11.4313ZM45.6671 11.0453L43.9289 13.7432L42.8595 13.8831L42.7476 13.4466L43.6595 13.3273L45.0412 11.1272L45.6671 11.0453ZM45.806 15.5888L43.6591 13.711L43.9242 13.2885L46.4609 15.5031L45.806 15.5888ZM47.5951 14.5369L49.5386 10.539L50.036 10.4739L50.6225 14.9588L50.1251 15.0239L49.6437 11.3431L47.7003 15.341L47.2112 15.405L46.6246 10.9201L47.1137 10.8561L47.5951 14.5369ZM52.3702 13.9124L54.3136 9.91446L54.811 9.84941L55.3976 14.3343L54.9002 14.3994L54.4188 10.7186L52.4754 14.7165L51.9863 14.7805L51.3997 10.2956L51.8888 10.2316L52.3702 13.9124ZM53.6473 8.36583L54.0701 8.31053C54.0972 8.51778 54.0729 8.70787 53.9972 8.88079C53.9242 9.05335 53.8038 9.19698 53.6361 9.31166C53.4684 9.42634 53.2616 9.49977 53.0157 9.53193C52.6454 9.58036 52.3395 9.51919 52.0979 9.34842C51.8591 9.17729 51.7193 8.93559 51.6785 8.62333L52.0971 8.56858C52.122 8.75925 52.2018 8.91746 52.3362 9.04321C52.4731 9.16584 52.6839 9.20854 52.9685 9.17131C53.2449 9.13517 53.4332 9.03887 53.5336 8.8824C53.634 8.72592 53.6719 8.55373 53.6473 8.36583Z" fill="white"/>
</svg>
