<svg width="51" height="31" viewBox="0 0 51 31" fill="none" xmlns="http://www.w3.org/2000/svg">
<circle cx="7.49312" cy="24.8366" r="4.61261" transform="rotate(-7.45132 7.49312 24.8366)" fill="#FF0000"/>
<path d="M12.0102 14.7456L14.7731 9.14807L15.283 9.08139L16.0723 15.1165L15.5624 15.1832L14.888 10.0268L12.1262 15.6326L11.6164 15.6993L10.8271 9.66417L11.3369 9.59749L12.0102 14.7456ZM19.3653 12.1858L17.6451 12.4108L17.5882 11.9756L19.3083 11.7506C19.6676 11.7036 19.9515 11.6074 20.1602 11.4621C20.3712 11.3137 20.5147 11.1319 20.5905 10.9168C20.6692 10.7013 20.692 10.4679 20.6591 10.2164C20.627 9.97046 20.5448 9.75073 20.4127 9.55721C20.2834 9.36333 20.0973 9.21903 19.8544 9.12432C19.614 9.02648 19.3141 9.00105 18.9549 9.04804L17.4129 9.2497L18.1448 14.8455L17.635 14.9122L16.8456 8.87701L18.8974 8.60866C19.3395 8.55084 19.7212 8.57822 20.0422 8.69081C20.3661 8.80304 20.6231 8.98444 20.8133 9.23501C21.0034 9.48558 21.1216 9.78771 21.1679 10.1414C21.2163 10.5117 21.1807 10.841 21.061 11.1293C20.941 11.4148 20.7395 11.6477 20.4568 11.828C20.174 12.0084 19.8102 12.1276 19.3653 12.1858ZM22.6031 8.12401L23.3924 14.1592L22.8825 14.2258L22.0932 8.19069L22.6031 8.12401ZM26.3833 7.62959L24.1247 11.1839L22.819 11.3547L22.716 10.9213L23.7688 10.7836L25.745 7.71308L26.3833 7.62959ZM26.7208 13.7238L23.7938 11.1682L24.0295 10.682L27.355 13.6409L26.7208 13.7238ZM29.9743 11.2325L31.2288 6.99586L31.8257 6.91779L30.1708 12.2186C30.1307 12.3419 30.082 12.4748 30.0247 12.6172C29.9671 12.7568 29.8904 12.8905 29.7947 13.0183C29.699 13.146 29.5757 13.2563 29.4248 13.3491C29.2739 13.4419 29.0825 13.5035 28.8503 13.5339C28.7923 13.5414 28.7213 13.5465 28.6373 13.5491C28.5533 13.5516 28.4938 13.5482 28.4589 13.5387L28.445 13.1105C28.482 13.1141 28.537 13.1153 28.6099 13.1142C28.6853 13.11 28.7478 13.1046 28.7976 13.0981C28.9772 13.0746 29.1213 13.0164 29.23 12.9235C29.3387 12.8306 29.4266 12.7179 29.4936 12.5855C29.5602 12.4503 29.6178 12.3106 29.6665 12.1666L29.9743 11.2325ZM27.5439 7.4778L30.0918 11.1961L30.3084 11.6273L29.8846 11.7712L26.9595 7.55424L27.5439 7.4778ZM34.9262 6.51229L35.7155 12.5474L35.2098 12.6136L34.4205 6.57842L34.9262 6.51229ZM36.9946 6.24177L37.052 6.68114L32.4138 7.28777L32.3563 6.8484L36.9946 6.24177ZM42.1636 9.79007L42.6735 9.72339C42.6851 10.135 42.6191 10.5006 42.4754 10.8201C42.3313 11.1369 42.1121 11.3946 41.8177 11.5934C41.5233 11.7921 41.1536 11.9205 40.7087 11.9787C40.366 12.0235 40.0467 11.9992 39.7506 11.9059C39.4573 11.8121 39.1956 11.6595 38.9655 11.4478C38.7351 11.2334 38.5442 10.9661 38.3927 10.6458C38.2412 10.3256 38.1387 9.96094 38.0852 9.55197L37.9865 8.79758C37.933 8.3886 37.9385 8.01126 38.0029 7.66557C38.0669 7.31711 38.1841 7.00948 38.3544 6.74268C38.5247 6.47589 38.7422 6.25912 39.0071 6.09238C39.272 5.92564 39.5813 5.81914 39.935 5.77288C40.3633 5.71686 40.7439 5.74718 41.0768 5.86385C41.4093 5.97776 41.6845 6.16943 41.9024 6.43885C42.1231 6.70791 42.2813 7.04698 42.3769 7.45606L41.8671 7.52275C41.7857 7.20173 41.6639 6.9366 41.5017 6.72735C41.3394 6.51811 41.133 6.36943 40.8826 6.28133C40.6346 6.1901 40.3379 6.16707 39.9925 6.21225C39.7106 6.24911 39.4662 6.33589 39.2592 6.47257C39.0522 6.60925 38.8846 6.78858 38.7562 7.01054C38.6275 7.22974 38.5399 7.48431 38.4935 7.77425C38.4499 8.06383 38.4505 8.37995 38.4953 8.7226L38.595 9.48529C38.6384 9.81689 38.717 10.1172 38.8309 10.3862C38.9448 10.6551 39.0897 10.8821 39.2657 11.0671C39.4444 11.2517 39.6503 11.3864 39.8834 11.4711C40.1166 11.5559 40.3727 11.58 40.6518 11.5435C41.0082 11.4969 41.2979 11.4014 41.5207 11.257C41.746 11.1095 41.9101 10.9138 42.0131 10.6698C42.1161 10.4259 42.1663 10.1326 42.1636 9.79007ZM43.9002 5.33859L44.6895 11.3737L44.1797 11.4404L43.3903 5.40528L43.9002 5.33859ZM47.6804 4.84418L45.4218 8.39849L44.1161 8.56926L44.0131 8.13585L45.0659 7.99815L47.0421 4.92767L47.6804 4.84418ZM48.018 10.9384L45.0909 8.38275L45.3267 7.89659L48.6521 10.8555L48.018 10.9384Z" fill="white"/>
</svg>
