<svg width="69" height="33" viewBox="0 0 69 33" fill="none" xmlns="http://www.w3.org/2000/svg">
<circle cx="7.20516" cy="26.9779" r="4.61261" transform="rotate(-7.45132 7.20516 26.9779)" fill="#FF0000"/>
<path d="M11.0489 11.7393L11.8383 17.7745L11.3284 17.8412L10.5391 11.806L11.0489 11.7393ZM14.8292 11.2449L12.5706 14.7992L11.2649 14.97L11.1618 14.5366L12.2147 14.3989L14.1909 11.3284L14.8292 11.2449ZM15.1667 17.3392L12.2397 14.7835L12.4754 14.2973L15.8009 17.2562L15.1667 17.3392ZM18.4638 14.4079L16.7436 14.6329L16.6867 14.1976L18.4069 13.9727C18.7661 13.9257 19.0501 13.8295 19.2587 13.6842C19.4698 13.5357 19.6133 13.354 19.6891 13.1389C19.7677 12.9234 19.7906 12.6899 19.7577 12.4385C19.7255 12.1925 19.6434 11.9728 19.5113 11.7793C19.3819 11.5854 19.1958 11.4411 18.953 11.3464C18.7125 11.2486 18.4127 11.2231 18.0534 11.2701L16.5115 11.4718L17.2434 17.0676L16.7335 17.1342L15.9442 11.0991L17.996 10.8307C18.4381 10.7729 18.8197 10.8003 19.1408 10.9129C19.4647 11.0251 19.7217 11.2065 19.9118 11.4571C20.102 11.7077 20.2202 12.0098 20.2665 12.3635C20.3149 12.7338 20.2793 13.0631 20.1596 13.3514C20.0395 13.6369 19.8381 13.8698 19.5553 14.0501C19.2726 14.2305 18.9087 14.3497 18.4638 14.4079ZM22.6317 10.5912L21.2848 16.539L20.7542 16.6084L22.2446 10.2751L22.6135 10.2268L22.6317 10.5912ZM25.2723 16.0175L22.4369 10.6167L22.3607 10.2599L22.7296 10.2116L25.8028 15.9481L25.2723 16.0175ZM24.6206 13.9357L24.678 14.3751L21.4739 14.7942L21.4165 14.3548L24.6206 13.9357ZM30.1618 13.464L30.6717 13.3973C30.6833 13.8089 30.6173 14.1745 30.4736 14.494C30.3295 14.8108 30.1103 15.0685 29.8159 15.2672C29.5215 15.4659 29.1518 15.5944 28.7069 15.6526C28.3642 15.6974 28.0449 15.6731 27.7488 15.5797C27.4555 15.486 27.1938 15.3333 26.9637 15.1217C26.7333 14.9073 26.5424 14.64 26.3909 14.3197C26.2394 13.9994 26.1369 13.6348 26.0834 13.2258L25.9847 12.4715C25.9312 12.0625 25.9367 11.6851 26.0011 11.3394C26.0651 10.991 26.1823 10.6834 26.3526 10.4166C26.5229 10.1498 26.7404 9.933 27.0053 9.76626C27.2702 9.59952 27.5795 9.49302 27.9332 9.44675C28.3615 9.39074 28.7421 9.42106 29.075 9.53773C29.4075 9.65164 29.6827 9.84331 29.9006 10.1127C30.1213 10.3818 30.2795 10.7209 30.3751 11.1299L29.8653 11.1966C29.784 10.8756 29.6621 10.6105 29.4999 10.4012C29.3376 10.192 29.1312 10.0433 28.8808 9.9552C28.6328 9.86398 28.3361 9.84095 27.9907 9.88613C27.7088 9.92299 27.4644 10.0098 27.2574 10.1464C27.0504 10.2831 26.8828 10.4625 26.7544 10.6844C26.6257 10.9036 26.5381 11.1582 26.4917 11.4481C26.4481 11.7377 26.4487 12.0538 26.4935 12.3965L26.5932 13.1592C26.6366 13.4908 26.7152 13.7911 26.8291 14.06C26.943 14.329 27.0879 14.556 27.2639 14.741C27.4426 14.9256 27.6485 15.0602 27.8816 15.145C28.1148 15.2297 28.3709 15.2539 28.65 15.2174C29.0064 15.1707 29.2961 15.0752 29.5189 14.9309C29.7442 14.7834 29.9083 14.5876 30.0113 14.3437C30.1143 14.0997 30.1645 13.8065 30.1618 13.464ZM35.7839 11.2573L35.8409 11.6925L32.1725 12.1723L32.1156 11.7371L35.7839 11.2573ZM31.8818 9.01464L32.6711 15.0498L32.1613 15.1165L31.372 9.08132L31.8818 9.01464ZM35.8403 8.49692L36.6296 14.5321L36.1198 14.5987L35.3305 8.5636L35.8403 8.49692ZM42.1905 10.4067L42.2751 11.0534C42.3304 11.4761 42.3252 11.8661 42.2595 12.2232C42.1961 12.5772 42.0768 12.8893 41.9013 13.1596C41.7286 13.4295 41.5071 13.6482 41.2367 13.8157C40.9663 13.9832 40.6515 14.0904 40.2922 14.1374C39.9413 14.1833 39.6122 14.1602 39.3051 14.0683C39.0007 13.976 38.729 13.8218 38.49 13.6058C38.2509 13.3897 38.0525 13.1191 37.8948 12.7941C37.7366 12.4662 37.6299 12.0909 37.5746 11.6681L37.4901 11.0215C37.4348 10.5987 37.4402 10.2101 37.5062 9.85579C37.5747 9.49831 37.6967 9.18444 37.8721 8.91416C38.0476 8.64387 38.2705 8.425 38.5409 8.25754C38.8113 8.09007 39.122 7.98339 39.4729 7.93749C39.8322 7.89051 40.164 7.91316 40.4683 8.00545C40.7727 8.09774 41.0444 8.25192 41.2835 8.46799C41.5225 8.68406 41.7198 8.95619 41.8751 9.28439C42.0301 9.60983 42.1352 9.98394 42.1905 10.4067ZM41.7694 11.1195L41.6837 10.4646C41.6371 10.1081 41.5538 9.79298 41.4336 9.5192C41.3163 9.24506 41.1643 9.0176 40.9776 8.83684C40.7937 8.65572 40.58 8.52627 40.3366 8.44849C40.0931 8.37072 39.8249 8.35099 39.532 8.3893C39.2474 8.42652 38.9988 8.51384 38.7863 8.65125C38.5738 8.78865 38.4006 8.9687 38.2668 9.19139C38.1356 9.41371 38.0458 9.67279 37.9974 9.96862C37.9517 10.2641 37.9522 10.5901 37.9988 10.9465L38.0845 11.6014C38.1315 11.9607 38.2152 12.2786 38.3357 12.5551C38.4586 12.8285 38.6135 13.057 38.8005 13.2405C38.9872 13.4213 39.2009 13.5507 39.4416 13.6289C39.685 13.7066 39.9491 13.7269 40.2337 13.6897C40.5294 13.651 40.7835 13.563 40.996 13.4256C41.2085 13.2882 41.3803 13.1083 41.5114 12.886C41.6422 12.6609 41.729 12.4008 41.7719 12.1057C41.8172 11.8075 41.8164 11.4787 41.7694 11.1195ZM46.9982 10.6759L44.9464 10.9443L44.6985 10.8544C44.2702 10.7812 43.927 10.6181 43.6691 10.3651C43.4139 10.1118 43.26 9.78344 43.2072 9.37999C43.1562 8.99036 43.1947 8.65086 43.3227 8.36149C43.4531 8.069 43.6624 7.83223 43.9507 7.65118C44.239 7.47013 44.5932 7.35214 45.0132 7.2972L46.8619 7.05542L47.6512 13.0906L47.1414 13.1573L46.4095 7.56147L45.0707 7.73658C44.5622 7.80308 44.1956 7.9761 43.9708 8.25565C43.7456 8.53244 43.6608 8.88361 43.7165 9.30916C43.7505 9.56892 43.8343 9.79123 43.9681 9.97609C44.1019 10.161 44.2799 10.2965 44.5019 10.3827C44.7268 10.4685 44.987 10.4921 45.2827 10.4534L46.9448 10.236L46.9982 10.6759ZM45.2042 10.5944L44.0865 13.5568L43.5352 13.6289L44.686 10.6621L45.2042 10.5944ZM50.8365 10.1739L49.1163 10.3989L49.0593 9.96369L50.7795 9.73871C51.1388 9.69173 51.4227 9.59557 51.6314 9.45023C51.8424 9.30177 51.9859 9.11999 52.0617 8.9049C52.1404 8.68944 52.1632 8.45598 52.1303 8.20451C52.0982 7.95858 52.016 7.73885 51.8839 7.54533C51.7546 7.35145 51.5685 7.20715 51.3256 7.11244C51.0851 7.0146 50.7853 6.98917 50.4261 7.03616L48.8841 7.23783L49.616 12.8336L49.1061 12.9003L48.3168 6.86513L50.3686 6.59678C50.8107 6.53896 51.1923 6.56634 51.5134 6.67893C51.8373 6.79116 52.0943 6.97256 52.2844 7.22313C52.4746 7.4737 52.5928 7.77583 52.6391 8.12954C52.6875 8.49983 52.6519 8.82912 52.5322 9.1174C52.4121 9.40292 52.2107 9.63584 51.928 9.81617C51.6452 9.99649 51.2814 10.1158 50.8365 10.1739ZM57.8506 9.84259L58.3604 9.77591C58.3721 10.1875 58.3061 10.5531 58.1624 10.8727C58.0183 11.1894 57.799 11.4472 57.5046 11.6459C57.2102 11.8446 56.8405 11.973 56.3956 12.0312C56.053 12.076 55.7336 12.0518 55.4375 11.9584C55.1442 11.8646 54.8825 11.712 54.6525 11.5003C54.4221 11.286 54.2311 11.0186 54.0796 10.6984C53.9281 10.3781 53.8256 10.0135 53.7721 9.60448L53.6735 8.85009C53.62 8.44111 53.6254 8.06378 53.6898 7.71808C53.7539 7.36962 53.871 7.06199 54.0413 6.7952C54.2116 6.5284 54.4292 6.31164 54.6941 6.14489C54.9589 5.97815 55.2682 5.87165 55.6219 5.82539C56.0503 5.76937 56.4308 5.7997 56.7637 5.91637C57.0962 6.03028 57.3714 6.22194 57.5893 6.49137C57.81 6.76043 57.9682 7.0995 58.0639 7.50858L57.554 7.57526C57.4727 7.25424 57.3509 6.98911 57.1886 6.77987C57.0263 6.57062 56.82 6.42195 56.5696 6.33384C56.3215 6.24261 56.0248 6.21959 55.6794 6.26476C55.3975 6.30163 55.1531 6.3884 54.9462 6.52509C54.7392 6.66177 54.5715 6.84109 54.4431 7.06306C54.3144 7.28226 54.2269 7.53683 54.1805 7.82677C54.1368 8.11635 54.1374 8.43246 54.1822 8.77512L54.282 9.5378C54.3254 9.8694 54.404 10.1697 54.5179 10.4387C54.6317 10.7077 54.7766 10.9346 54.9526 11.1196C55.1313 11.3042 55.3373 11.4389 55.5704 11.5236C55.8035 11.6084 56.0596 11.6325 56.3387 11.596C56.6952 11.5494 56.9848 11.4539 57.2077 11.3095C57.4329 11.162 57.597 10.9663 57.7 10.7223C57.803 10.4784 57.8532 10.1851 57.8506 9.84259ZM59.5871 5.39111L60.3765 11.4263L59.8666 11.4929L59.0773 5.45779L59.5871 5.39111ZM63.3674 4.8967L61.1088 8.45101L59.8031 8.62177L59.7 8.18837L60.7529 8.05067L62.7291 4.98018L63.3674 4.8967ZM63.7049 10.9909L60.7779 8.43526L61.0136 7.94911L64.3391 10.908L63.7049 10.9909Z" fill="white"/>
</svg>
