<svg width="76" height="38" viewBox="0 0 76 38" fill="none" xmlns="http://www.w3.org/2000/svg">
<circle cx="8.42278" cy="32.1574" r="4.61261" transform="rotate(-7.45132 8.42278 32.1574)" fill="#FF0000"/>
<path d="M15.6814 14.9082L15.7384 15.3434L12.07 15.8232L12.0131 15.388L15.6814 14.9082ZM11.7793 12.6656L12.5686 18.7007L12.0588 18.7674L11.2695 12.7323L11.7793 12.6656ZM15.7378 12.1479L16.5271 18.183L16.0173 18.2497L15.228 12.2145L15.7378 12.1479ZM19.6965 17.8528C19.4036 17.8911 19.1271 17.8725 18.867 17.7969C18.6098 17.7209 18.3771 17.5967 18.1691 17.4244C17.9638 17.2517 17.7939 17.0378 17.6594 16.7828C17.5272 16.5246 17.4402 16.2353 17.3983 15.9147L17.375 15.7365C17.3298 15.3911 17.3401 15.0721 17.4058 14.7797C17.4715 14.4872 17.5812 14.2297 17.7348 14.0073C17.8884 13.7848 18.073 13.6061 18.2886 13.4711C18.5067 13.333 18.7428 13.2473 18.997 13.214C19.2816 13.1768 19.5412 13.1948 19.7756 13.2682C20.0097 13.3387 20.2135 13.4568 20.3869 13.6225C20.5627 13.785 20.7058 13.9869 20.816 14.2282C20.9259 14.4668 21.0006 14.7367 21.04 15.0379L21.0796 15.3405L17.6848 15.7845L17.6295 15.3617L20.531 14.9822L20.5234 14.9242C20.485 14.6735 20.4032 14.4453 20.2779 14.2396C20.155 14.0308 19.9906 13.8696 19.7846 13.756C19.5786 13.6425 19.3347 13.6041 19.0529 13.641C18.8428 13.6684 18.6552 13.7379 18.4899 13.8495C18.3274 13.9607 18.1934 14.1075 18.088 14.2899C17.9849 14.4692 17.9137 14.6767 17.8743 14.9123C17.8372 15.1448 17.8366 15.3979 17.8724 15.6714L17.8957 15.8497C17.9282 16.0984 17.9945 16.3258 18.0945 16.5319C18.197 16.735 18.3265 16.9091 18.4833 17.0545C18.6428 17.1994 18.8224 17.3052 19.0223 17.3718C19.2221 17.4385 19.4353 17.4569 19.6619 17.4273C19.9272 17.3926 20.1557 17.3135 20.3476 17.1901C20.5391 17.0638 20.7024 16.8837 20.8376 16.6496L21.1799 16.8493C21.102 17.0057 20.9978 17.1542 20.8672 17.295C20.7394 17.4353 20.5794 17.5546 20.387 17.6529C20.1947 17.7511 19.9645 17.8178 19.6965 17.8528ZM27.0987 14.5575L27.1101 14.6445C27.1531 14.9734 27.1563 15.2779 27.1199 15.5581C27.0859 15.8352 27.0126 16.0809 26.9001 16.2951C26.7904 16.509 26.6415 16.6817 26.4535 16.8131C26.2683 16.9441 26.0472 17.0264 25.7902 17.06C25.605 17.0843 25.4376 17.0823 25.2877 17.0541C25.1379 17.0259 25.0066 16.9784 24.8939 16.9117C24.7839 16.8445 24.6917 16.7624 24.6171 16.6654C24.5454 16.568 24.491 16.4641 24.4541 16.3537L24.08 13.4936C24.0903 13.3573 24.1186 13.23 24.165 13.1115C24.211 12.9902 24.2783 12.8817 24.3669 12.7857C24.4552 12.6871 24.5653 12.6052 24.6973 12.5402C24.8294 12.4751 24.988 12.4305 25.1731 12.4063C25.3804 12.3792 25.5745 12.3917 25.7556 12.4439C25.9363 12.4933 26.1007 12.5787 26.2486 12.6998C26.3962 12.8183 26.5269 12.9684 26.6406 13.1503C26.7543 13.3321 26.8492 13.5418 26.9252 13.7792C27.004 14.0162 27.0618 14.2756 27.0987 14.5575ZM26.6168 14.7091L26.6054 14.622C26.5772 14.4065 26.5353 14.204 26.4796 14.0145C26.4239 13.8251 26.3538 13.6543 26.2693 13.5024C26.1844 13.3477 26.0846 13.2188 25.9699 13.1157C25.8577 13.0095 25.7297 12.9335 25.586 12.8877C25.4447 12.8387 25.2884 12.8254 25.117 12.8478C24.9264 12.8728 24.7761 12.9163 24.6661 12.9785C24.5562 13.0406 24.4766 13.1087 24.4272 13.1826C24.3779 13.2565 24.3444 13.3227 24.3267 13.3812L24.7247 16.4237C24.7605 16.4611 24.815 16.5018 24.8882 16.5456C24.9641 16.5891 25.0626 16.6226 25.1838 16.6461C25.3049 16.6696 25.4511 16.6701 25.6224 16.6477C25.8352 16.6199 26.0132 16.5517 26.1564 16.443C26.2996 16.3343 26.4104 16.1934 26.4889 16.0201C26.5674 15.8468 26.6161 15.6493 26.6349 15.4276C26.6564 15.2056 26.6504 14.966 26.6168 14.7091ZM21.879 15.3287L21.8676 15.2417C21.8308 14.9598 21.8186 14.6944 21.831 14.4454C21.8461 14.1961 21.8853 13.9689 21.9484 13.7639C22.0143 13.5586 22.1033 13.3797 22.2155 13.2273C22.3273 13.0722 22.4642 12.9475 22.6261 12.8532C22.7877 12.7562 22.9721 12.6941 23.1793 12.667C23.3617 12.6432 23.5237 12.6459 23.6652 12.6751C23.8095 12.704 23.9357 12.755 24.0436 12.828C24.1511 12.8983 24.2427 12.9861 24.3183 13.0914C24.3936 13.194 24.4551 13.3096 24.5028 13.4383L24.872 16.2611C24.8655 16.3828 24.839 16.5029 24.7927 16.6214C24.7487 16.7367 24.6826 16.8437 24.5943 16.9424C24.5085 17.038 24.3968 17.1186 24.2592 17.1844C24.1248 17.2526 23.965 17.2988 23.7799 17.323C23.5229 17.3566 23.2866 17.3341 23.0712 17.2554C22.8585 17.1765 22.6702 17.0479 22.5064 16.8698C22.3453 16.6913 22.2113 16.4727 22.1044 16.2141C21.9972 15.9527 21.922 15.6575 21.879 15.3287ZM22.3692 15.1761L22.3806 15.2631C22.4142 15.5201 22.4672 15.7535 22.5396 15.9632C22.6148 16.1726 22.7112 16.3511 22.8289 16.4988C22.9493 16.646 23.0913 16.7539 23.2549 16.8225C23.4184 16.891 23.6052 16.9116 23.8152 16.8841C23.9893 16.8613 24.1317 16.8216 24.2423 16.765C24.3526 16.7056 24.4371 16.6426 24.4958 16.5759C24.5573 16.5088 24.6002 16.4498 24.6244 16.3988L24.2314 13.3937C24.1993 13.3417 24.1499 13.2863 24.0832 13.2276C24.0165 13.1688 23.922 13.1236 23.7998 13.0918C23.6804 13.0596 23.5226 13.0564 23.3264 13.082C23.1136 13.1099 22.9363 13.1836 22.7946 13.3034C22.6556 13.4227 22.548 13.5773 22.4716 13.7672C22.398 13.9567 22.3531 14.172 22.3369 14.413C22.323 14.6509 22.3338 14.9052 22.3692 15.1761ZM24.736 18.8632L23.6777 10.7721L24.1751 10.7071L25.2334 18.7982L24.736 18.8632ZM29.1715 11.9676L29.758 16.4526L29.2648 16.5171L28.6782 12.0322L29.1715 11.9676ZM30.8046 11.754L30.8599 12.1768L27.1584 12.661L27.1031 12.2382L30.8046 11.754ZM33.6237 16.0313C33.3308 16.0696 33.0544 16.0509 32.7943 15.9753C32.537 15.8994 32.3044 15.7752 32.0964 15.6029C31.8911 15.4302 31.7212 15.2163 31.5866 14.9613C31.4545 14.7031 31.3675 14.4138 31.3255 14.0932L31.3022 13.915C31.2571 13.5696 31.2673 13.2506 31.3331 12.9581C31.3988 12.6657 31.5085 12.4082 31.6621 12.1858C31.8157 11.9633 32.0003 11.7846 32.2159 11.6496C32.4339 11.5114 32.6701 11.4257 32.9243 11.3925C33.2089 11.3553 33.4684 11.3733 33.7029 11.4467C33.937 11.5172 34.1407 11.6353 34.3142 11.8009C34.49 11.9635 34.633 12.1654 34.7433 12.4067C34.8532 12.6453 34.9279 12.9152 34.9673 13.2164L35.0068 13.519L31.6121 13.963L31.5568 13.5402L34.4583 13.1607L34.4507 13.1027C34.4123 12.8519 34.3304 12.6237 34.2052 12.4181C34.0823 12.2093 33.9179 12.0481 33.7119 11.9345C33.5059 11.8209 33.262 11.7826 32.9801 11.8194C32.7701 11.8469 32.5825 11.9164 32.4172 12.028C32.2546 12.1392 32.1207 12.286 32.0152 12.4684C31.9122 12.6477 31.841 12.8552 31.8015 13.0908C31.7645 13.3233 31.7638 13.5763 31.7996 13.8499L31.8229 14.0282C31.8555 14.2769 31.9218 14.5043 32.0218 14.7104C32.1242 14.9134 32.2538 15.0876 32.4105 15.2329C32.57 15.3779 32.7497 15.4837 32.9495 15.5503C33.1494 15.6169 33.3626 15.6354 33.5892 15.6058C33.8545 15.5711 34.083 15.492 34.2748 15.3685C34.4663 15.2423 34.6297 15.0622 34.7649 14.8281L35.1072 15.0278C35.0293 15.1842 34.925 15.3327 34.7945 15.4734C34.6667 15.6138 34.5066 15.7331 34.3143 15.8314C34.122 15.9296 33.8918 15.9962 33.6237 16.0313ZM38.1717 12.8647L38.227 13.2875L36.1297 13.5619L36.0744 13.1391L38.1717 12.8647ZM36.2346 11.0439L36.8211 15.5288L36.3279 15.5933L35.7413 11.1084L36.2346 11.0439ZM37.8096 13.1904L37.7917 13.0536C37.7491 12.7275 37.7566 12.4202 37.8145 12.1315C37.8723 11.8429 37.975 11.5863 38.1227 11.3619C38.2732 11.137 38.4642 10.9532 38.6957 10.8105C38.9268 10.6651 39.1929 10.5726 39.4942 10.5332C39.7981 10.4935 40.0805 10.5142 40.3412 10.5953C40.6016 10.6737 40.8334 10.8021 41.0367 10.9807C41.2399 11.1593 41.4066 11.3807 41.5367 11.6447C41.6668 11.9088 41.7531 12.2038 41.7958 12.5299L41.8137 12.6667C41.8563 12.9927 41.8488 13.3001 41.7909 13.5887C41.7328 13.8746 41.6284 14.1299 41.478 14.3548C41.3303 14.5793 41.1408 14.7643 40.9097 14.9097C40.6782 15.0524 40.4119 15.1435 40.1107 15.1829C39.8067 15.2226 39.5245 15.2033 39.2642 15.1249C39.0034 15.0438 38.7714 14.914 38.5682 14.7354C38.3649 14.5568 38.1984 14.3368 38.0687 14.0755C37.9386 13.8115 37.8522 13.5164 37.8096 13.1904ZM38.2891 12.9885L38.307 13.1253C38.3392 13.3712 38.4015 13.6006 38.494 13.8133C38.5888 14.023 38.711 14.2051 38.8605 14.3598C39.0125 14.5114 39.1873 14.6235 39.3851 14.696C39.5857 14.7681 39.8089 14.7881 40.0549 14.7559C40.298 14.7241 40.5059 14.6478 40.6784 14.5268C40.8536 14.4055 40.9938 14.2523 41.0989 14.0671C41.2036 13.8791 41.2748 13.6717 41.3126 13.4447C41.35 13.215 41.3526 12.9771 41.3204 12.7312L41.3025 12.5944C41.2707 12.3512 41.2074 12.1248 41.1125 11.9152C41.0177 11.7056 40.8941 11.5236 40.7418 11.3692C40.5923 11.2145 40.417 11.0997 40.2161 11.0248C40.0152 10.9499 39.7932 10.9284 39.55 10.9602C39.3068 10.992 39.0992 11.0697 38.927 11.1934C38.7549 11.3171 38.6151 11.4731 38.5076 11.6614C38.4029 11.8494 38.3317 12.0569 38.2939 12.2838C38.2589 12.5105 38.2573 12.7453 38.2891 12.9885ZM45.3868 9.84687L45.4432 10.278L43.1717 10.575L43.7019 14.6289L43.2086 14.6934L42.622 10.2085L45.3868 9.84687ZM49.3832 13.0679L49.0807 10.755C49.0528 10.5422 48.9846 10.3643 48.8759 10.2211C48.7672 10.0779 48.6218 9.97605 48.4397 9.91556C48.2575 9.85506 48.0407 9.84126 47.7892 9.87415C47.5571 9.90451 47.3553 9.97306 47.1837 10.0798C47.0146 10.1834 46.8865 10.3112 46.7996 10.4631C46.7151 10.6119 46.6836 10.7692 46.7053 10.935L46.2074 10.9959C46.1853 10.8273 46.2055 10.6589 46.2678 10.4905C46.3301 10.3222 46.4291 10.1659 46.5648 10.0216C46.7005 9.87741 46.8687 9.75564 47.0693 9.65633C47.2723 9.55389 47.5009 9.48604 47.7552 9.45279C48.0757 9.41087 48.3646 9.42789 48.6219 9.50385C48.8819 9.57946 49.0951 9.716 49.2615 9.91347C49.4278 10.1109 49.5324 10.3727 49.575 10.6988L49.8585 12.8666C49.8788 13.0214 49.9108 13.1802 49.9546 13.3431C50.0011 13.5057 50.0536 13.6379 50.1119 13.7399L50.1184 13.7897L49.592 13.8585C49.5458 13.7634 49.5033 13.6425 49.4644 13.4958C49.428 13.3459 49.4009 13.2033 49.3832 13.0679ZM49.2629 11.2455L49.321 11.6258L48.3469 11.7532C48.0927 11.7864 47.8678 11.8397 47.6722 11.9131C47.479 11.9833 47.3192 12.0717 47.1926 12.1782C47.0656 12.2819 46.9728 12.3995 46.914 12.5308C46.8581 12.6618 46.8403 12.8047 46.8605 12.9594C46.8815 13.1197 46.9407 13.2609 47.0382 13.3831C47.1384 13.5049 47.2684 13.5961 47.4281 13.6567C47.5902 13.7142 47.7749 13.7294 47.9821 13.7023C48.2585 13.6661 48.4949 13.5832 48.6916 13.4535C48.891 13.3234 49.0489 13.1664 49.1654 12.9826C49.2819 12.7987 49.3508 12.6056 49.3721 12.4033L49.6251 12.6611C49.6072 12.8039 49.5595 12.9549 49.4819 13.114C49.4068 13.27 49.3015 13.4215 49.1662 13.5685C49.0304 13.7127 48.8642 13.8385 48.6674 13.9457C48.4731 14.0498 48.246 14.1189 47.9862 14.1528C47.6933 14.1911 47.4305 14.1693 47.1977 14.0873C46.9677 14.005 46.7795 13.8764 46.6329 13.7017C46.4888 13.5238 46.4009 13.3132 46.3691 13.0701C46.3401 12.849 46.3613 12.6453 46.4325 12.4589C46.5033 12.2697 46.6192 12.1028 46.7801 11.9581C46.9435 11.8103 47.1467 11.6881 47.3899 11.5917C47.6354 11.4921 47.9157 11.4217 48.2307 11.3805L49.2629 11.2455ZM54.047 10.7547L54.1023 11.1775L51.4412 11.5256L51.3859 11.1028L54.047 10.7547ZM51.252 9.07977L51.8386 13.5647L51.3453 13.6292L50.7587 9.14428L51.252 9.07977ZM54.1659 8.69866L54.7525 13.1836L54.2551 13.2486L53.6685 8.76371L54.1659 8.69866ZM57.6961 12.4487C57.9061 12.4212 58.0972 12.3569 58.2695 12.2556C58.4442 12.1513 58.5808 12.014 58.6794 11.8437C58.7803 11.6703 58.8243 11.4692 58.8113 11.2404L59.2838 11.1786C59.3072 11.465 59.2534 11.7306 59.1224 11.9754C58.9938 12.2171 58.8093 12.4183 58.569 12.579C58.331 12.7366 58.0586 12.8355 57.7519 12.8756C57.4397 12.9164 57.1559 12.8959 56.9007 12.8141C56.6482 12.7319 56.4287 12.6004 56.242 12.4196C56.055 12.2361 55.9023 12.0143 55.784 11.7544C55.6681 11.4913 55.5895 11.2022 55.5483 10.8872L55.5255 10.7131C55.4843 10.3981 55.4861 10.0999 55.5308 9.81865C55.5779 9.53424 55.6684 9.28069 55.8023 9.058C55.9359 8.83255 56.114 8.64764 56.3369 8.50326C56.5597 8.35888 56.8272 8.26627 57.1395 8.22543C57.4601 8.18351 57.7559 8.21086 58.0272 8.30749C58.3011 8.40375 58.5297 8.56077 58.7127 8.77854C58.8985 8.99595 59.0197 9.26679 59.0762 9.59106L58.6036 9.65286C58.5584 9.41425 58.4677 9.21531 58.3316 9.05604C58.1956 8.89677 58.0288 8.78226 57.8314 8.71252C57.634 8.64278 57.4219 8.62273 57.1953 8.65237C56.9411 8.68562 56.7307 8.76373 56.5641 8.8867C56.3971 9.00691 56.2682 9.16009 56.1773 9.34623C56.0888 9.52925 56.0326 9.73335 56.0086 9.95852C55.9843 10.1809 55.9877 10.411 56.0188 10.6486L56.0416 10.8227C56.073 11.0631 56.1279 11.2892 56.2062 11.501C56.2869 11.7097 56.3935 11.8911 56.5261 12.0452C56.6614 12.1989 56.8254 12.3138 57.018 12.3898C57.2131 12.4627 57.4391 12.4823 57.6961 12.4487ZM60.4042 7.88277L60.9908 12.3677L60.4934 12.4327L59.9068 7.94782L60.4042 7.88277ZM63.3554 7.49678L61.6172 10.1947L60.5478 10.3345L60.4359 9.89805L61.3478 9.77878L62.7295 7.57864L63.3554 7.49678ZM63.4944 12.0402L61.3474 10.1625L61.6125 9.73994L64.1493 11.9546L63.4944 12.0402Z" fill="white"/>
</svg>
