<svg width="75" height="38" viewBox="0 0 75 38" fill="none" xmlns="http://www.w3.org/2000/svg">
<circle cx="7.82995" cy="31.8417" r="4.61261" transform="rotate(-7.45132 7.82995 31.8417)" fill="#FF0000"/>
<path d="M15.0886 14.5925L15.1456 15.0278L11.4772 15.5076L11.4203 15.0723L15.0886 14.5925ZM11.1865 12.3499L11.9758 18.3851L11.466 18.4517L10.6767 12.4166L11.1865 12.3499ZM15.145 11.8322L15.9343 17.8673L15.4245 17.934L14.6351 11.8989L15.145 11.8322ZM16.8026 15.5446L16.7847 15.4078C16.742 15.0818 16.7496 14.7744 16.8074 14.4858C16.8652 14.1972 16.968 13.9406 17.1157 13.7161C17.2662 13.4913 17.4571 13.3075 17.6886 13.1648C17.9197 13.0193 18.1859 12.9269 18.4871 12.8875C18.7911 12.8477 19.0734 12.8684 19.3342 12.9496C19.5946 13.0279 19.8264 13.1564 20.0296 13.335C20.2329 13.5136 20.3996 13.7349 20.5296 13.999C20.6597 14.263 20.7461 14.5581 20.7888 14.8842L20.8066 15.0209C20.8493 15.347 20.8417 15.6544 20.7839 15.943C20.7257 16.2288 20.6214 16.4842 20.4709 16.7091C20.3232 16.9336 20.1338 17.1185 19.9027 17.264C19.6712 17.4067 19.4049 17.4977 19.1037 17.5371C18.7997 17.5769 18.5175 17.5576 18.2571 17.4792C17.9964 17.3981 17.7644 17.2682 17.5611 17.0896C17.3579 16.911 17.1914 16.6911 17.0617 16.4298C16.9316 16.1658 16.8452 15.8707 16.8026 15.5446ZM17.2779 15.3433L17.2958 15.4801C17.328 15.7261 17.3917 15.9552 17.4869 16.1676C17.5818 16.3772 17.704 16.5594 17.8535 16.7141C18.0027 16.8661 18.1775 16.9781 18.3781 17.0502C18.5786 17.1224 18.8019 17.1424 19.0478 17.1102C19.291 17.0784 19.4988 17.002 19.6713 16.8811C19.8466 16.7598 19.9867 16.6066 20.0918 16.4214C20.1965 16.2334 20.2664 16.0261 20.3014 15.7995C20.3388 15.5698 20.3414 15.3319 20.3092 15.086L20.2914 14.9492C20.2596 14.706 20.1962 14.4796 20.1013 14.27C20.0092 14.06 19.887 13.8778 19.7348 13.7235C19.5852 13.5688 19.41 13.454 19.2091 13.3791C19.0082 13.3042 18.7861 13.2826 18.543 13.3144C18.2998 13.3462 18.0907 13.4242 17.9158 13.5482C17.7437 13.6719 17.6039 13.8279 17.4964 14.0162C17.3917 14.2042 17.3205 14.4117 17.2827 14.6386C17.2477 14.8653 17.2461 15.1002 17.2779 15.3433ZM22.828 14.8746L23.3752 14.8031L22.4005 17.0216L21.8534 17.0932L22.828 14.8746ZM23.0368 12.3768L24.7984 12.1464L25.385 16.6313L24.8917 16.6958L24.3604 12.6337L23.0921 12.7996C22.8295 12.8339 22.6212 12.9061 22.4669 13.0162C22.3151 13.1232 22.2097 13.2523 22.1508 13.4033C22.0946 13.554 22.077 13.7095 22.0979 13.8697C22.1178 14.0217 22.1699 14.1625 22.2543 14.292C22.3415 14.4211 22.4627 14.5205 22.618 14.5901C22.7729 14.657 22.965 14.6754 23.1943 14.6454L24.7777 14.4383L24.8336 14.8653L23.2502 15.0724C23.0153 15.1031 22.8023 15.0972 22.6113 15.0547C22.4202 15.0123 22.2534 14.9399 22.1107 14.8377C21.9705 14.7324 21.8565 14.6026 21.7689 14.4482C21.6836 14.2907 21.6285 14.1166 21.6036 13.926C21.5783 13.7325 21.5897 13.5512 21.6378 13.3819C21.6883 13.2094 21.7734 13.0536 21.8929 12.9143C22.0151 12.7746 22.1714 12.6586 22.3617 12.5663C22.5547 12.4736 22.7798 12.4104 23.0368 12.3768ZM28.7958 9.63786L29.2228 9.58202C29.2499 9.78928 29.2352 9.96686 29.1786 10.1148C29.1249 10.2624 29.0372 10.3876 28.9158 10.4907C28.7944 10.5937 28.6471 10.6818 28.474 10.755C28.3033 10.8251 28.1151 10.8905 27.9094 10.9511C27.6575 11.0234 27.4322 11.1386 27.2337 11.2967C27.0379 11.4544 26.8788 11.6565 26.7565 11.9029C26.6338 12.1466 26.5554 12.4394 26.5214 12.7811C26.4898 13.1197 26.5098 13.5091 26.5815 13.9495L26.6319 14.335L26.2049 14.3908L26.1545 14.0053C26.0909 13.519 26.0815 13.0817 26.1263 12.6936C26.1735 12.3024 26.268 11.9612 26.4098 11.67C26.5544 11.3785 26.7393 11.1379 26.9647 10.9482C27.1924 10.7554 27.4536 10.6144 27.7483 10.5253C28.0244 10.4442 28.2412 10.3611 28.3987 10.2758C28.5589 10.1902 28.6688 10.0957 28.7284 9.99239C28.7907 9.88868 28.8132 9.7705 28.7958 9.63786ZM27.9871 12.0287C28.28 11.9904 28.5504 12.0056 28.7983 12.0743C29.0462 12.1431 29.265 12.2578 29.4546 12.4185C29.6467 12.5761 29.803 12.7721 29.9236 13.0064C30.0466 13.2377 30.1271 13.4984 30.165 13.7885L30.1824 13.9212C30.2229 14.2307 30.2131 14.5214 30.1531 14.7935C30.0959 15.0652 29.9927 15.3077 29.8436 15.5212C29.6972 15.7343 29.5079 15.9094 29.2757 16.0466C29.0462 16.1834 28.7809 16.2715 28.4797 16.3109C28.1757 16.3506 27.8953 16.3339 27.6384 16.2607C27.3815 16.1875 27.1535 16.0669 26.9545 15.899C26.7555 15.7311 26.592 15.5234 26.464 15.276C26.3361 15.0285 26.2519 14.75 26.2114 14.4405L26.1941 14.3079C26.1836 14.2278 26.1816 14.1479 26.1881 14.0684C26.1973 13.9885 26.2108 13.9094 26.2287 13.8312C26.2462 13.7502 26.2639 13.6706 26.2818 13.5924C26.3456 13.3283 26.4531 13.0865 26.6043 12.8672C26.7552 12.6451 26.946 12.46 27.1767 12.3117C27.4102 12.1631 27.6804 12.0688 27.9871 12.0287ZM27.9678 12.4612C27.6445 12.5035 27.382 12.6137 27.1805 12.7918C26.9813 12.9669 26.841 13.1834 26.7595 13.4413C26.6777 13.6966 26.655 13.9637 26.6915 14.2428L26.7088 14.3755C26.7388 14.6048 26.799 14.8176 26.8893 15.0138C26.9796 15.21 27.0974 15.38 27.2427 15.5241C27.3904 15.6649 27.5628 15.7689 27.7599 15.8359C27.957 15.9028 28.1785 15.9202 28.4244 15.8881C28.6676 15.8563 28.8758 15.7827 29.049 15.6673C29.2222 15.5518 29.3607 15.4073 29.4644 15.2335C29.5678 15.0569 29.6379 14.8623 29.6747 14.6495C29.7116 14.4367 29.715 14.2156 29.685 13.9862L29.6676 13.8536C29.6402 13.6436 29.5822 13.4474 29.4937 13.265C29.4052 13.0827 29.2878 12.9266 29.1415 12.7968C28.9977 12.6638 28.8262 12.5668 28.6271 12.5057C28.4307 12.4442 28.211 12.4294 27.9678 12.4612ZM31.3442 12.1672L32.0436 17.5143L31.5462 17.5793L30.7341 11.3701L31.1983 11.3093L31.3442 12.1672ZM34.6364 13.0983L34.6478 13.1854C34.6915 13.5198 34.6929 13.8315 34.6521 14.1208C34.6112 14.41 34.5309 14.6664 34.4112 14.8901C34.2939 15.1106 34.1361 15.29 33.9377 15.4284C33.7394 15.5667 33.5049 15.6536 33.234 15.689C32.966 15.7241 32.7215 15.7139 32.5007 15.6585C32.2798 15.6031 32.0835 15.5093 31.9116 15.3772C31.7422 15.2419 31.5985 15.078 31.4805 14.8855C31.365 14.6898 31.2732 14.4713 31.2051 14.2301L31.0549 13.0819C31.0609 12.8057 31.0965 12.5509 31.1615 12.3175C31.2266 12.0842 31.3218 11.8778 31.4473 11.6984C31.5756 11.5186 31.7364 11.3725 31.9296 11.2601C32.1229 11.1477 32.3508 11.0743 32.6133 11.04C32.8869 11.0042 33.1371 11.0263 33.364 11.1062C33.5933 11.183 33.7943 11.3127 33.9672 11.4953C34.1424 11.6747 34.2858 11.9005 34.3973 12.1726C34.5111 12.4416 34.5908 12.7502 34.6364 13.0983ZM34.1504 13.2504L34.139 13.1634C34.1046 12.9009 34.0452 12.6613 33.9607 12.4447C33.8789 12.2278 33.7719 12.0436 33.6397 11.8923C33.5099 11.7378 33.3545 11.6246 33.1737 11.5527C32.9956 11.4804 32.7919 11.4593 32.5625 11.4893C32.3249 11.5204 32.127 11.587 31.9689 11.6892C31.8132 11.7882 31.6886 11.9099 31.5951 12.0543C31.5012 12.1958 31.4324 12.3468 31.3887 12.5071C31.345 12.6674 31.3175 12.8227 31.3063 12.9732L31.4792 14.2954C31.5592 14.4986 31.669 14.6824 31.8085 14.8468C31.9477 15.0085 32.1211 15.1306 32.3286 15.213C32.5385 15.2924 32.7844 15.3136 33.0663 15.2767C33.2929 15.2471 33.4829 15.1745 33.6364 15.0588C33.79 14.9432 33.9096 14.794 33.9953 14.6114C34.0838 14.4284 34.1397 14.2215 34.1629 13.9908C34.1889 13.7598 34.1847 13.513 34.1504 13.2504ZM36.0325 12.3297L37.4957 12.1384C37.8494 12.0921 38.156 12.1152 38.4154 12.2078C38.6745 12.2976 38.8803 12.4421 39.0329 12.6414C39.1882 12.8403 39.2835 13.0752 39.3189 13.346C39.3457 13.5505 39.3347 13.7458 39.286 13.9321C39.2397 14.1152 39.1545 14.2809 39.0306 14.4292C38.9094 14.5772 38.7513 14.7004 38.5562 14.799C38.3639 14.8973 38.135 14.9637 37.8698 14.9984L36.0916 15.231L35.505 10.7461L35.9982 10.6816L36.529 14.7396L37.8139 14.5715C38.0875 14.5357 38.3024 14.4598 38.4587 14.3438C38.6146 14.2251 38.7199 14.0848 38.7747 13.9231C38.8322 13.761 38.8497 13.5942 38.8273 13.4229C38.8053 13.2544 38.7456 13.0991 38.6484 12.9573C38.5535 12.8123 38.4155 12.7025 38.2343 12.6278C38.0527 12.5503 37.8251 12.5295 37.5515 12.5653L36.0884 12.7567L36.0325 12.3297ZM42.1895 14.0835C42.3995 14.0561 42.5906 13.9917 42.7629 13.8905C42.9376 13.7861 43.0742 13.6488 43.1728 13.4785C43.2738 13.3051 43.3177 13.104 43.3047 12.8753L43.7772 12.8135C43.8006 13.0999 43.7468 13.3655 43.6158 13.6103C43.4872 13.852 43.3027 14.0532 43.0624 14.2139C42.8244 14.3715 42.5521 14.4704 42.2453 14.5105C41.9331 14.5513 41.6493 14.5308 41.3941 14.449C41.1416 14.3667 40.9221 14.2353 40.7354 14.0545C40.5484 13.871 40.3957 13.6492 40.2774 13.3893C40.1615 13.1262 40.0829 12.8371 40.0417 12.5221L40.019 12.348C39.9777 12.033 39.9795 11.7348 40.0242 11.4535C40.0713 11.1691 40.1619 10.9156 40.2957 10.6929C40.4293 10.4674 40.6075 10.2825 40.8303 10.1381C41.0531 9.99375 41.3207 9.90115 41.6329 9.86031C41.9535 9.81838 42.2493 9.84573 42.5206 9.94236C42.7945 10.0386 43.0231 10.1956 43.2061 10.4134C43.392 10.6308 43.5131 10.9017 43.5696 11.2259L43.097 11.2877C43.0518 11.0491 42.9611 10.8502 42.825 10.6909C42.689 10.5316 42.5222 10.4171 42.3248 10.3474C42.1274 10.2777 41.9153 10.2576 41.6888 10.2872C41.4345 10.3205 41.2241 10.3986 41.0575 10.5216C40.8905 10.6418 40.7616 10.795 40.6707 10.9811C40.5822 11.1641 40.526 11.3682 40.5021 11.5934C40.4777 11.8158 40.4811 12.0458 40.5122 12.2835L40.535 12.4576C40.5664 12.698 40.6213 12.9241 40.6996 13.1359C40.7803 13.3446 40.8869 13.526 41.0195 13.6801C41.1548 13.8338 41.3188 13.9487 41.5114 14.0247C41.7065 14.0975 41.9325 14.1172 42.1895 14.0835ZM44.8976 9.51764L45.4842 14.0026L44.9868 14.0676L44.4002 9.5827L44.8976 9.51764ZM47.8489 9.13165L46.1106 11.8295L45.0412 11.9694L44.9293 11.5329L45.8412 11.4137L47.223 9.21351L47.8489 9.13165ZM47.9878 13.6751L45.8408 11.7974L46.1059 11.3748L48.6427 13.5895L47.9878 13.6751Z" fill="white"/>
</svg>
