<svg width="87" height="37" viewBox="0 0 87 37" fill="none" xmlns="http://www.w3.org/2000/svg">
<circle cx="7.59762" cy="31.5744" r="4.61261" transform="rotate(-7.45132 7.59762 31.5744)" fill="#FF0000"/>
<path d="M14.9793 15.9282L15.0362 16.3635L11.3679 16.8432L11.3109 16.408L14.9793 15.9282ZM11.0771 13.6856L11.8665 19.7207L11.3566 19.7874L10.5673 13.7523L11.0771 13.6856ZM15.0356 13.1679L15.825 19.203L15.3151 19.2697L14.5258 13.2346L15.0356 13.1679ZM17.7773 18.0455L20.5402 12.4479L21.0501 12.3813L21.8394 18.4164L21.3296 18.4831L20.6552 13.3267L17.8933 18.9325L17.3835 18.9992L16.5942 12.964L17.104 12.8974L17.7773 18.0455ZM24.846 15.1015L22.1692 12.2349L22.7827 12.1546L25.0373 14.6296L26.0197 14.5012L26.0274 14.947L24.846 15.1015ZM25.1479 15.0241L23.4518 18.2055L22.8052 18.2901L24.7713 14.6265L25.1479 15.0241ZM25.9205 11.7443L26.7098 17.7794L26.2041 17.8456L25.4148 11.8104L25.9205 11.7443ZM29.1494 11.322L27.2958 14.7811L26.1351 14.9329L26.0279 14.5001L26.9896 14.3743L28.536 11.4022L29.1494 11.322ZM29.4455 17.4216L26.9841 14.784L27.25 14.3023L30.0921 17.337L29.4455 17.4216ZM34.5687 13.3662L34.6256 13.8014L30.9572 14.2812L30.9003 13.846L34.5687 13.3662ZM30.6665 11.1235L31.4558 17.1587L30.946 17.2254L30.1567 11.1902L30.6665 11.1235ZM34.625 10.6058L35.4143 16.641L34.9045 16.7076L34.1152 10.6725L34.625 10.6058ZM40.6506 15.5134L40.7075 15.9487L37.3128 16.3927L37.2558 15.9574L40.6506 15.5134ZM36.6768 10.3375L37.4661 16.3726L36.9563 16.4393L36.167 10.4041L36.6768 10.3375ZM39.8494 12.6755L39.9063 13.1107L36.9344 13.4994L36.8774 13.0642L39.8494 12.6755ZM39.8975 9.91624L39.9549 10.3556L36.5809 10.7969L36.5234 10.3575L39.8975 9.91624ZM43.4866 12.6341L41.7871 12.8563L41.7224 12.4263L43.1856 12.235C43.4841 12.1959 43.7327 12.1199 43.9315 12.0067C44.1303 11.8936 44.2726 11.7457 44.3583 11.563C44.4464 11.3773 44.4742 11.16 44.4417 10.9113C44.4084 10.6571 44.3271 10.4541 44.1976 10.3024C44.0678 10.1479 43.8899 10.0447 43.6639 9.99278C43.4379 9.94084 43.1618 9.93619 42.8357 9.97883L41.5674 10.1447L42.2992 15.7405L41.7894 15.8072L41.0001 9.77203L42.7783 9.53946C43.085 9.49934 43.3639 9.49378 43.6151 9.52277C43.8662 9.55176 44.0859 9.61999 44.2742 9.72746C44.4625 9.83493 44.6139 9.98236 44.7284 10.1698C44.8452 10.354 44.9215 10.5829 44.9573 10.8565C44.9898 11.1052 44.964 11.3377 44.8799 11.5538C44.7954 11.7673 44.6606 11.9507 44.4755 12.1042C44.2928 12.2546 44.0638 12.3632 43.7887 12.4301L43.4866 12.6341ZM43.8287 15.5405L42.0049 15.779L42.2091 15.3096L43.7718 15.1052C44.0703 15.0662 44.318 14.9832 44.515 14.8563C44.7144 14.7262 44.8584 14.5598 44.9472 14.3571C45.0359 14.1543 45.0633 13.9231 45.0293 13.6633C44.9993 13.434 44.9226 13.2346 44.7993 13.0653C44.676 12.8959 44.5052 12.7721 44.287 12.6938C44.0684 12.6128 43.8016 12.5929 43.4866 12.6341L42.4296 12.7723L42.3815 12.3401L43.8778 12.1444L43.9891 12.2859C44.2635 12.2781 44.5108 12.3315 44.731 12.446C44.9535 12.5574 45.134 12.7123 45.2723 12.9106C45.4135 13.1086 45.5007 13.3347 45.5339 13.5889C45.5816 13.9537 45.5406 14.2738 45.4108 14.5494C45.2834 14.8218 45.0833 15.0433 44.8105 15.2139C44.5401 15.3814 44.2128 15.4902 43.8287 15.5405ZM48.2347 9.19261L46.8878 15.1404L46.3572 15.2098L47.8476 8.87645L48.2165 8.8282L48.2347 9.19261ZM50.8753 14.6189L48.0399 9.21809L47.9637 8.86127L48.3326 8.81302L51.4058 14.5495L50.8753 14.6189ZM50.2236 12.5371L50.281 12.9765L47.0769 13.3955L47.0195 12.9562L50.2236 12.5371ZM54.0315 11.706L52.3113 11.931L52.2544 11.4958L53.9745 11.2708C54.3338 11.2238 54.6177 11.1276 54.8264 10.9823C55.0374 10.8339 55.1809 10.6521 55.2567 10.437C55.3354 10.2215 55.3582 9.98806 55.3254 9.73659C55.2932 9.49066 55.211 9.27093 55.0789 9.07741C54.9496 8.88353 54.7635 8.73924 54.5206 8.64452C54.2802 8.54668 53.9803 8.52125 53.6211 8.56824L52.0791 8.76991L52.811 14.3657L52.3012 14.4324L51.5118 8.39721L53.5636 8.12886C54.0058 8.07104 54.3874 8.09842 54.7084 8.21101C55.0323 8.32324 55.2893 8.50464 55.4795 8.75521C55.6696 9.00578 55.7878 9.30791 55.8341 9.66162C55.8825 10.0319 55.8469 10.3612 55.7272 10.6495C55.6072 10.935 55.4057 11.1679 55.123 11.3483C54.8402 11.5286 54.4764 11.6478 54.0315 11.706ZM58.7656 7.4485L59.5549 13.4837L59.0493 13.5498L58.2599 7.51464L58.7656 7.4485ZM60.834 7.17799L60.8915 7.61736L56.2532 8.22399L56.1957 7.78462L60.834 7.17799ZM66.5086 9.17617L66.5931 9.82279C66.6484 10.2456 66.6432 10.6355 66.5775 10.9926C66.5142 11.3466 66.3948 11.6588 66.2194 11.929C66.0467 12.199 65.8251 12.4177 65.5547 12.5851C65.2843 12.7526 64.9695 12.8598 64.6103 12.9068C64.2593 12.9527 63.9303 12.9297 63.6232 12.8378C63.3188 12.7455 63.0471 12.5913 62.808 12.3752C62.569 12.1591 62.3706 11.8886 62.2128 11.5635C62.0547 11.2357 61.948 10.8603 61.8927 10.4376L61.8081 9.79093C61.7528 9.36814 61.7582 8.97957 61.8243 8.62522C61.8928 8.26775 62.0147 7.95387 62.1902 7.68359C62.3656 7.41331 62.5886 7.19444 62.859 7.02697C63.1294 6.85951 63.44 6.75283 63.791 6.70693C64.1502 6.65994 64.482 6.6826 64.7864 6.77489C65.0908 6.86718 65.3625 7.02136 65.6015 7.23743C65.8406 7.45349 66.0378 7.72563 66.1931 8.05383C66.3481 8.37926 66.4533 8.75338 66.5086 9.17617ZM66.0875 9.88893L66.0018 9.23402C65.9552 8.87754 65.8718 8.56242 65.7517 8.28863C65.6343 8.01449 65.4823 7.78704 65.2956 7.60628C65.1117 7.42515 64.8981 7.2957 64.6546 7.21793C64.4112 7.14016 64.143 7.12042 63.8501 7.15873C63.5654 7.19596 63.3169 7.28328 63.1044 7.42068C62.8919 7.55809 62.7187 7.73814 62.5848 7.96082C62.4537 8.18315 62.3639 8.44222 62.3154 8.73805C62.2698 9.03352 62.2702 9.35949 62.3169 9.71596L62.4025 10.3709C62.4495 10.7301 62.5332 11.048 62.6537 11.3245C62.7766 11.598 62.9316 11.8264 63.1186 12.01C63.3053 12.1907 63.5189 12.3202 63.7596 12.3983C64.0031 12.4761 64.2671 12.4964 64.5517 12.4591C64.8474 12.4205 65.1015 12.3324 65.314 12.195C65.5265 12.0576 65.6983 11.8777 65.8294 11.6554C65.9602 11.4303 66.047 11.1702 66.09 10.8751C66.1353 10.5769 66.1344 10.2482 66.0875 9.88893ZM69.9318 9.17534L68.2323 9.39761L68.1677 8.96761L69.6309 8.77624C69.9293 8.73721 70.1779 8.66113 70.3767 8.54799C70.5755 8.43486 70.7178 8.28697 70.8035 8.10431C70.8917 7.91853 70.9195 7.70128 70.8869 7.45258C70.8537 7.19835 70.7723 6.99539 70.6429 6.84368C70.5131 6.68921 70.3351 6.586 70.1091 6.53406C69.8831 6.48211 69.6071 6.47746 69.281 6.52011L68.0126 6.686L68.7445 12.2818L68.2346 12.3485L67.4453 6.3133L69.2235 6.08073C69.5302 6.04062 69.8092 6.03505 70.0603 6.06404C70.3114 6.09303 70.5311 6.16126 70.7195 6.26873C70.9078 6.3762 71.0592 6.52363 71.1736 6.71103C71.2905 6.8953 71.3668 7.12422 71.4025 7.39779C71.4351 7.64649 71.4093 7.87894 71.3251 8.09512C71.2406 8.30853 71.1058 8.49199 70.9207 8.64549C70.738 8.79586 70.5091 8.9045 70.234 8.9714L69.9318 9.17534ZM70.274 12.0817L68.4502 12.3203L68.6544 11.8509L70.2171 11.6465C70.5155 11.6075 70.7632 11.5245 70.9602 11.3975C71.1596 11.2675 71.3037 11.1011 71.3924 10.8983C71.4811 10.6956 71.5085 10.4644 71.4745 10.2046C71.4445 9.97526 71.3679 9.77589 71.2445 9.60652C71.1212 9.43715 70.9504 9.31334 70.7322 9.23508C70.5136 9.15405 70.2468 9.13414 69.9318 9.17534L68.8748 9.31358L68.8267 8.88141L70.3231 8.68571L70.4343 8.82715C70.7088 8.81936 70.956 8.87274 71.1762 8.98729C71.3988 9.09871 71.5792 9.25358 71.7176 9.45191C71.8587 9.64987 71.9459 9.87596 71.9791 10.1302C72.0268 10.4949 71.9858 10.8151 71.856 11.0907C71.7286 11.3631 71.5285 11.5846 71.2557 11.7552C70.9853 11.9226 70.6581 12.0315 70.274 12.0817ZM76.9542 9.29401L77.464 9.22733C77.4757 9.63896 77.4097 10.0045 77.266 10.3241C77.1219 10.6408 76.9027 10.8986 76.6082 11.0973C76.3138 11.296 75.9442 11.4245 75.4993 11.4826C75.1566 11.5275 74.8372 11.5032 74.5411 11.4098C74.2478 11.3161 73.9861 11.1634 73.7561 10.9518C73.5257 10.7374 73.3347 10.47 73.1832 10.1498C73.0317 9.8295 72.9292 9.46488 72.8758 9.05591L72.7771 8.30151C72.7236 7.89254 72.7291 7.5152 72.7935 7.1695C72.8575 6.82104 72.9747 6.51342 73.1449 6.24662C73.3152 5.97983 73.5328 5.76306 73.7977 5.59632C74.0625 5.42958 74.3718 5.32307 74.7255 5.27681C75.1539 5.22079 75.5345 5.25112 75.8673 5.36779C76.1998 5.4817 76.475 5.67337 76.693 5.94279C76.9136 6.21185 77.0718 6.55092 77.1675 6.96L76.6576 7.02668C76.5763 6.70567 76.4545 6.44054 76.2922 6.23129C76.13 6.02204 75.9236 5.87337 75.6732 5.78526C75.4252 5.69404 75.1284 5.67101 74.783 5.71619C74.5012 5.75305 74.2567 5.83982 74.0498 5.97651C73.8428 6.11319 73.6751 6.29252 73.5468 6.51448C73.418 6.73368 73.3305 6.98825 73.2841 7.27819C73.2404 7.56777 73.241 7.88389 73.2858 8.22654L73.3856 8.98923C73.429 9.32083 73.5076 9.62112 73.6215 9.8901C73.7353 10.1591 73.8803 10.386 74.0562 10.571C74.235 10.7556 74.4409 10.8903 74.674 10.9751C74.9071 11.0598 75.1632 11.0839 75.4423 11.0474C75.7988 11.0008 76.0885 10.9053 76.3113 10.7609C76.5365 10.6134 76.7006 10.4177 76.8036 10.1737C76.9066 9.92981 76.9568 9.63656 76.9542 9.29401ZM78.6907 4.84253L79.4801 10.8777L78.9702 10.9444L78.1809 4.90921L78.6907 4.84253ZM82.471 4.34812L80.2124 7.90243L78.9067 8.0732L78.8036 7.63979L79.8565 7.50209L81.8327 4.4316L82.471 4.34812ZM82.8085 10.4424L79.8815 7.88668L80.1172 7.40053L83.4427 10.3594L82.8085 10.4424Z" fill="white"/>
</svg>
