<svg width="87" height="37" viewBox="0 0 87 37" fill="none" xmlns="http://www.w3.org/2000/svg">
<circle cx="7.56728" cy="31.5831" r="4.61261" transform="rotate(-7.45132 7.56728 31.5831)" fill="#FF0000"/>
<path d="M14.9499 15.937L15.0069 16.3723L11.3385 16.852L11.2816 16.4168L14.9499 15.937ZM11.0478 13.6944L11.8371 19.7295L11.3273 19.7962L10.538 13.7611L11.0478 13.6944ZM15.0063 13.1767L15.7956 19.2118L15.2858 19.2785L14.4964 13.2433L15.0063 13.1767ZM16.6639 16.8891L16.646 16.7523C16.6033 16.4263 16.6109 16.1189 16.6687 15.8303C16.7265 15.5417 16.8293 15.2851 16.977 15.0606C17.1275 14.8358 17.3184 14.652 17.5499 14.5093C17.781 14.3638 18.0472 14.2714 18.3484 14.232C18.6524 14.1922 18.9347 14.2129 19.1955 14.2941C19.4559 14.3724 19.6877 14.5009 19.8909 14.6795C20.0942 14.8581 20.2608 15.0794 20.3909 15.3435C20.521 15.6075 20.6074 15.9026 20.6501 16.2286L20.6679 16.3654C20.7106 16.6915 20.703 16.9988 20.6452 17.2875C20.587 17.5733 20.4827 17.8287 20.3322 18.0535C20.1845 18.278 19.9951 18.463 19.764 18.6085C19.5325 18.7512 19.2662 18.8422 18.965 18.8816C18.661 18.9214 18.3788 18.9021 18.1184 18.8237C17.8577 18.7426 17.6257 18.6127 17.4224 18.4341C17.2192 18.2555 17.0527 18.0356 16.923 17.7743C16.7929 17.5102 16.7065 17.2152 16.6639 16.8891ZM17.1392 16.6878L17.1571 16.8246C17.1893 17.0705 17.253 17.2997 17.3482 17.5121C17.4431 17.7217 17.5653 17.9039 17.7148 18.0586C17.864 18.2105 18.0388 18.3226 18.2394 18.3947C18.4399 18.4669 18.6632 18.4868 18.9091 18.4547C19.1523 18.4229 19.3601 18.3465 19.5326 18.2256C19.7079 18.1043 19.848 17.951 19.9531 17.7659C20.0578 17.5779 20.1277 17.3706 20.1627 17.144C20.2001 16.9143 20.2027 16.6764 20.1705 16.4305L20.1527 16.2937C20.1209 16.0505 20.0575 15.8241 19.9626 15.6145C19.8705 15.4045 19.7483 15.2223 19.596 15.068C19.4465 14.9133 19.2713 14.7985 19.0704 14.7236C18.8695 14.6487 18.6474 14.6271 18.4042 14.6589C18.1611 14.6907 17.952 14.7687 17.7771 14.8927C17.605 15.0164 17.4652 15.1724 17.3577 15.3607C17.253 15.5487 17.1818 15.7561 17.144 15.9831C17.109 16.2097 17.1074 16.4446 17.1392 16.6878ZM23.6908 16.0755L22.1157 16.2815L22.0532 15.8681L23.3962 15.6924C23.667 15.657 23.8884 15.5985 24.0604 15.517C24.2348 15.4324 24.3599 15.3247 24.4355 15.1939C24.5139 15.0628 24.5418 14.9102 24.519 14.7361C24.5017 14.6035 24.4588 14.491 24.3906 14.3988C24.325 14.3061 24.2343 14.2351 24.1182 14.1856C24.0048 14.1358 23.8661 14.1062 23.7018 14.0968C23.54 14.0842 23.354 14.0917 23.144 14.1191L21.9958 14.2693L22.5271 18.3314L22.0339 18.3959L21.4473 13.911L23.0887 13.6963C23.3623 13.6605 23.6101 13.6534 23.8322 13.675C24.0566 13.6934 24.2525 13.7409 24.4199 13.8173C24.5873 13.8938 24.721 14.0028 24.821 14.1443C24.9235 14.2827 24.988 14.4541 25.0148 14.6586C25.0328 14.7968 25.0236 14.9301 24.987 15.0585C24.95 15.1842 24.8867 15.3021 24.7971 15.4122C24.71 15.5192 24.5971 15.6126 24.4586 15.6926C24.3197 15.7698 24.1559 15.8277 23.967 15.8665L23.6908 16.0755ZM23.9613 18.1438L22.2328 18.3699L22.3682 17.9222L23.906 17.721C24.1547 17.6885 24.3619 17.6291 24.5277 17.5428C24.6935 17.4564 24.8125 17.3453 24.8846 17.2094C24.9596 17.0731 24.9855 16.9166 24.9623 16.7397C24.9407 16.5739 24.8763 16.4362 24.7692 16.3265C24.6648 16.2165 24.5213 16.1397 24.3385 16.0962C24.1554 16.0498 23.9395 16.0429 23.6908 16.0755L22.5468 16.2251L22.5008 15.8095L23.9723 15.6171L24.2043 15.7469C24.4334 15.7366 24.6376 15.7718 24.8168 15.8523C24.9959 15.9329 25.1414 16.0459 25.2532 16.1915C25.3646 16.3344 25.4325 16.4983 25.4567 16.6835C25.4834 16.888 25.4684 17.074 25.4116 17.2417C25.3545 17.4065 25.2596 17.551 25.1268 17.6752C24.9965 17.7962 24.8326 17.8964 24.6349 17.9756C24.4373 18.0549 24.2128 18.1109 23.9613 18.1438ZM26.725 14.8734L28.1882 14.682C28.5419 14.6358 28.8485 14.6589 29.1079 14.7514C29.367 14.8412 29.5728 14.9858 29.7254 15.185C29.8807 15.384 29.976 15.6188 30.0114 15.8896C30.0382 16.0941 30.0272 16.2895 29.9785 16.4757C29.9322 16.6589 29.847 16.8246 29.7231 16.9729C29.6019 17.1208 29.4438 17.2441 29.2487 17.3427C29.0564 17.4409 28.8276 17.5074 28.5623 17.5421L26.7841 17.7747L26.1975 13.2897L26.6907 13.2252L27.2215 17.2832L28.5064 17.1151C28.78 17.0794 28.9949 17.0035 29.1512 16.8875C29.3071 16.7687 29.4124 16.6285 29.4672 16.4667C29.5247 16.3046 29.5422 16.1379 29.5198 15.9666C29.4978 15.798 29.4381 15.6428 29.3409 15.5009C29.246 15.3559 29.108 15.2461 28.9268 15.1714C28.7452 15.094 28.5176 15.0732 28.2441 15.109L26.7809 15.3003L26.725 14.8734ZM31.1342 12.6441L31.7208 17.129L31.2275 17.1935L30.641 12.7086L31.1342 12.6441ZM33.5223 16.0755L35.4658 12.0776L35.9632 12.0125L36.5497 16.4974L36.0523 16.5625L35.5709 12.8817L33.6275 16.8796L33.1384 16.9436L32.5518 12.4587L33.0409 12.3947L33.5223 16.0755ZM34.7995 10.5289L35.2223 10.4736C35.2494 10.6809 35.225 10.871 35.1493 11.0439C35.0763 11.2165 34.9559 11.3601 34.7883 11.4748C34.6206 11.5894 34.4138 11.6629 34.1678 11.695C33.7975 11.7435 33.4916 11.6823 33.25 11.5115C33.0112 11.3404 32.8714 11.0987 32.8306 10.7864L33.2492 10.7317C33.2742 10.9223 33.3539 11.0806 33.4884 11.2063C33.6253 11.3289 33.836 11.3716 34.1206 11.3344C34.397 11.2983 34.5853 11.202 34.6857 11.0455C34.7861 10.889 34.824 10.7168 34.7995 10.5289ZM41.2248 15.4307L42.0936 11.2107L42.6284 11.1408L41.4108 16.5952C41.3855 16.7025 41.3506 16.8223 41.3061 16.9546C41.2643 17.0866 41.2025 17.2155 41.1206 17.3415C41.0418 17.4698 40.9353 17.5793 40.801 17.6699C40.6698 17.763 40.502 17.8229 40.2975 17.8496C40.245 17.8565 40.1764 17.8584 40.0917 17.8555C40.0101 17.8549 39.9506 17.8514 39.9132 17.8451L39.8543 17.427C39.8858 17.4313 39.9309 17.4324 39.9897 17.4303C40.0484 17.4283 40.0889 17.4258 40.111 17.4229C40.2906 17.3994 40.4372 17.3493 40.5509 17.2726C40.6673 17.1956 40.759 17.0908 40.8259 16.9584C40.8933 16.8287 40.947 16.6699 40.9871 16.482L41.2248 15.4307ZM39.3911 11.5642L41.3248 15.2279L41.5252 15.7286L41.1911 15.9789L38.8522 11.6346L39.3911 11.5642ZM44.0053 11.8376L44.7047 17.1847L44.2073 17.2497L43.3952 11.0405L43.8594 10.9798L44.0053 11.8376ZM47.2975 12.7688L47.3089 12.8558C47.3526 13.1902 47.3541 13.502 47.3132 13.7912C47.2723 14.0804 47.192 14.3368 47.0723 14.5605C46.955 14.781 46.7972 14.9604 46.5989 15.0988C46.4005 15.2372 46.166 15.324 45.8952 15.3595C45.6271 15.3945 45.3827 15.3843 45.1618 15.3289C44.941 15.2735 44.7446 15.1797 44.5727 15.0476C44.4033 14.9124 44.2596 14.7485 44.1416 14.5559C44.0261 14.3602 43.9343 14.1418 43.8662 13.9005L43.716 12.7523C43.7221 12.4761 43.7576 12.2213 43.8226 11.988C43.8877 11.7546 43.983 11.5482 44.1085 11.3688C44.2367 11.189 44.3975 11.0429 44.5908 10.9305C44.7841 10.8181 45.012 10.7447 45.2745 10.7104C45.548 10.6746 45.7983 10.6967 46.0251 10.7766C46.2544 10.8534 46.4555 10.9831 46.6283 11.1657C46.8036 11.3451 46.9469 11.5709 47.0584 11.843C47.1723 12.112 47.252 12.4206 47.2975 12.7688ZM46.8115 12.9209L46.8001 12.8338C46.7658 12.5713 46.7063 12.3317 46.6218 12.1151C46.54 11.8982 46.433 11.714 46.3008 11.5627C46.171 11.4082 46.0156 11.295 45.8348 11.2231C45.6567 11.1508 45.453 11.1297 45.2236 11.1597C44.986 11.1908 44.7881 11.2574 44.63 11.3596C44.4743 11.4587 44.3497 11.5803 44.2562 11.7247C44.1623 11.8663 44.0935 12.0172 44.0498 12.1775C44.0061 12.3378 43.9787 12.4931 43.9674 12.6436L44.1404 13.9658C44.2203 14.169 44.3301 14.3528 44.4696 14.5172C44.6088 14.6789 44.7822 14.801 44.9897 14.8834C45.1997 14.9628 45.4455 14.984 45.7274 14.9472C45.954 14.9175 46.1441 14.8449 46.2976 14.7293C46.4511 14.6136 46.5707 14.4645 46.6564 14.2818C46.7449 14.0988 46.8008 13.8919 46.824 13.6612C46.85 13.4302 46.8458 13.1834 46.8115 12.9209ZM50.4423 14.7648C50.1493 14.8031 49.8729 14.7844 49.6128 14.7088C49.3556 14.6328 49.1229 14.5087 48.9149 14.3363C48.7096 14.1636 48.5397 13.9498 48.4051 13.6947C48.273 13.4366 48.186 13.1472 48.1441 12.8267L48.1207 12.6484C48.0756 12.303 48.0858 11.9841 48.1516 11.6916C48.2173 11.3991 48.327 11.1417 48.4806 10.9192C48.6342 10.6968 48.8188 10.518 49.0344 10.383C49.2524 10.2449 49.4886 10.1592 49.7428 10.126C50.0274 10.0887 50.287 10.1068 50.5214 10.1801C50.7555 10.2507 50.9592 10.3688 51.1327 10.5344C51.3085 10.6969 51.4516 10.8988 51.5618 11.1402C51.6717 11.3788 51.7464 11.6487 51.7858 11.9499L51.8253 12.2525L48.4306 12.6965L48.3753 12.2737L51.2768 11.8942L51.2692 11.8361C51.2308 11.5854 51.1489 11.3572 51.0237 11.1516C50.9008 10.9428 50.7364 10.7816 50.5304 10.668C50.3244 10.5544 50.0805 10.516 49.7986 10.5529C49.5886 10.5804 49.401 10.6499 49.2357 10.7614C49.0732 10.8726 48.9392 11.0195 48.8338 11.2019C48.7307 11.3812 48.6595 11.5886 48.62 11.8243C48.583 12.0568 48.5824 12.3098 48.6181 12.5834L48.6415 12.7616C48.674 13.0103 48.7403 13.2377 48.8403 13.4439C48.9427 13.6469 49.0723 13.8211 49.2291 13.9664C49.3885 14.1114 49.5682 14.2172 49.768 14.2838C49.9679 14.3504 50.1811 14.3689 50.4077 14.3393C50.673 14.3046 50.9015 14.2255 51.0934 14.102C51.2848 13.9758 51.4482 13.7956 51.5834 13.5615L51.9257 13.7613C51.8478 13.9176 51.7435 14.0662 51.613 14.2069C51.4852 14.3473 51.3251 14.4666 51.1328 14.5648C50.9405 14.6631 50.7103 14.7297 50.4423 14.7648ZM55.8274 11.455L55.8827 11.8778L53.2215 12.2258L53.1663 11.803L55.8274 11.455ZM53.0324 9.78005L53.6189 14.265L53.1257 14.3295L52.5391 9.84456L53.0324 9.78005ZM55.9463 9.39894L56.5329 13.8839L56.0355 13.9489L55.4489 9.464L55.9463 9.39894ZM60.0748 8.85899L60.1311 9.29007L57.8597 9.58715L58.3899 13.641L57.8966 13.7055L57.31 9.22058L60.0748 8.85899ZM60.8083 11.1155L60.7904 10.9787C60.7478 10.6527 60.7554 10.3453 60.8132 10.0567C60.871 9.76808 60.9738 9.51152 61.1215 9.28702C61.2719 9.06217 61.4629 8.87839 61.6944 8.73569C61.9255 8.59023 62.1917 8.4978 62.4929 8.45841C62.7969 8.41865 63.0792 8.43934 63.34 8.52047C63.6004 8.59884 63.8322 8.72732 64.0354 8.90591C64.2387 9.08451 64.4053 9.30583 64.5354 9.56988C64.6655 9.83392 64.7519 10.129 64.7945 10.4551L64.8124 10.5918C64.8551 10.9179 64.8475 11.2253 64.7897 11.5139C64.7315 11.7997 64.6272 12.0551 64.4767 12.28C64.329 12.5045 64.1396 12.6894 63.9085 12.8349C63.677 12.9776 63.4106 13.0686 63.1094 13.108C62.8055 13.1478 62.5233 13.1285 62.2629 13.0501C62.0021 12.969 61.7701 12.8391 61.5669 12.6605C61.3637 12.4819 61.1972 12.262 61.0674 12.0007C60.9374 11.7367 60.851 11.4416 60.8083 11.1155ZM61.2837 10.9142L61.3016 11.051C61.3338 11.297 61.3975 11.5261 61.4927 11.7385C61.5876 11.9481 61.7098 12.1303 61.8593 12.285C62.0084 12.437 62.1833 12.549 62.3839 12.6211C62.5844 12.6933 62.8077 12.7133 63.0536 12.6811C63.2968 12.6493 63.5046 12.5729 63.6771 12.452C63.8524 12.3307 63.9925 12.1775 64.0976 11.9923C64.2023 11.8043 64.2722 11.597 64.3072 11.3704C64.3446 11.1407 64.3472 10.9028 64.315 10.6569L64.2971 10.5201C64.2653 10.2769 64.202 10.0505 64.1071 9.8409C64.015 9.63091 63.8928 9.44875 63.7405 9.29441C63.591 9.1397 63.4158 9.0249 63.2149 8.94999C63.014 8.87509 62.7919 8.85354 62.5487 8.88534C62.3056 8.91715 62.0965 8.99508 61.9216 9.11914C61.7495 9.24283 61.6097 9.39884 61.5022 9.58715C61.3975 9.7751 61.3263 9.98257 61.2885 10.2095C61.2535 10.4362 61.2519 10.6711 61.2837 10.9142ZM66.5416 11.7569L68.485 7.75903L68.9824 7.69397L69.569 12.1789L69.0716 12.2439L68.5902 8.56316L66.6467 12.5611L66.1576 12.6251L65.5711 8.14014L66.0602 8.07617L66.5416 11.7569ZM67.8187 6.21039L68.2415 6.1551C68.2686 6.36235 68.2443 6.55244 68.1685 6.72536C68.0955 6.89792 67.9752 7.04154 67.8075 7.15623C67.6398 7.27091 67.433 7.34433 67.1871 7.3765C66.8168 7.42493 66.5108 7.36376 66.2693 7.19299C66.0305 7.02185 65.8907 6.78016 65.8498 6.4679L66.2685 6.41315C66.2934 6.60382 66.3731 6.76203 66.5076 6.88778C66.6445 7.01041 66.8553 7.05311 67.1399 7.01588C67.4162 6.97974 67.6046 6.88343 67.705 6.72696C67.8054 6.57049 67.8433 6.3983 67.8187 6.21039Z" fill="white"/>
</svg>
