<svg width="45" height="28" viewBox="0 0 45 28" fill="none" xmlns="http://www.w3.org/2000/svg">
<circle cx="7.59756" cy="21.9047" r="4.61261" transform="rotate(-7.45132 7.59756 21.9047)" fill="#FF0000"/>
<path d="M13.3635 7.89519L14.1528 13.9303L13.6471 13.9965L12.8578 7.96133L13.3635 7.89519ZM15.4318 7.62468L15.4893 8.06405L10.851 8.67068L10.7935 8.23131L15.4318 7.62468ZM21.1064 9.62286L21.191 10.2695C21.2463 10.6923 21.2411 11.0822 21.1753 11.4393C21.112 11.7933 20.9926 12.1055 20.8172 12.3757C20.6445 12.6457 20.423 12.8643 20.1526 13.0318C19.8822 13.1993 19.5674 13.3065 19.2081 13.3535C18.8572 13.3994 18.5281 13.3764 18.221 13.2844C17.9166 13.1922 17.6449 13.038 17.4058 12.8219C17.1668 12.6058 16.9684 12.3353 16.8106 12.0102C16.6525 11.6824 16.5458 11.307 16.4905 10.8842L16.406 10.2376C16.3507 9.81483 16.356 9.42626 16.4221 9.07191C16.4906 8.71444 16.6126 8.40056 16.788 8.13028C16.9635 7.86 17.1864 7.64113 17.4568 7.47366C17.7272 7.3062 18.0379 7.19952 18.3888 7.15362C18.7481 7.10663 19.0799 7.12929 19.3842 7.22158C19.6886 7.31387 19.9603 7.46805 20.1994 7.68412C20.4384 7.90018 20.6356 8.17232 20.791 8.50052C20.946 8.82595 21.0511 9.20007 21.1064 9.62286ZM20.6853 10.3356L20.5996 9.68071C20.553 9.32423 20.4696 9.00911 20.3495 8.73532C20.2321 8.46118 20.0801 8.23373 19.8935 8.05297C19.7096 7.87184 19.4959 7.74239 19.2525 7.66462C19.009 7.58685 18.7408 7.56712 18.4479 7.60542C18.1633 7.64265 17.9147 7.72997 17.7022 7.86737C17.4897 8.00478 17.3165 8.18483 17.1826 8.40751C17.0515 8.62984 16.9617 8.88891 16.9133 9.18474C16.8676 9.48021 16.8681 9.80618 16.9147 10.1627L17.0004 10.8176C17.0473 11.1768 17.1311 11.4947 17.2516 11.7712C17.3745 12.0447 17.5294 12.2731 17.7164 12.4567C17.9031 12.6374 18.1168 12.7669 18.3575 12.845C18.6009 12.9228 18.8649 12.943 19.1496 12.9058C19.4452 12.8672 19.6993 12.7791 19.9118 12.6417C20.1243 12.5043 20.2961 12.3244 20.4273 12.1021C20.558 11.877 20.6449 11.6169 20.6878 11.3218C20.7331 11.0236 20.7323 10.6949 20.6853 10.3356ZM22.2006 6.73939L22.7146 6.67217L25.6396 11.6944L27.1788 6.08831L27.6887 6.02163L25.9288 12.3902L25.5392 12.4411L22.2006 6.73939ZM22.0431 6.75999L22.4949 6.7009L22.9934 10.0928L23.3382 12.729L22.8325 12.7951L22.0431 6.75999ZM27.4026 6.05903L27.8545 5.99994L28.6438 12.0351L28.1339 12.1018L27.7892 9.46554L27.4026 6.05903ZM33.6908 9.46097L34.2007 9.39429C34.2124 9.80592 34.1463 10.1715 34.0026 10.491C33.8586 10.8078 33.6393 11.0655 33.3449 11.2643C33.0505 11.463 32.6808 11.5914 32.2359 11.6496C31.8933 11.6944 31.5739 11.6701 31.2778 11.5768C30.9845 11.483 30.7228 11.3303 30.4928 11.1187C30.2624 10.9043 30.0714 10.637 29.9199 10.3167C29.7684 9.99646 29.6659 9.63184 29.6124 9.22286L29.5138 8.46847C29.4603 8.05949 29.4657 7.68216 29.5301 7.33646C29.5942 6.988 29.7113 6.68037 29.8816 6.41358C30.0519 6.14678 30.2695 5.93002 30.5343 5.76327C30.7992 5.59653 31.1085 5.49003 31.4622 5.44377C31.8905 5.38775 32.2711 5.41808 32.604 5.53475C32.9365 5.64866 33.2117 5.84032 33.4296 6.10974C33.6503 6.37881 33.8085 6.71788 33.9041 7.12696L33.3943 7.19364C33.313 6.87262 33.1912 6.60749 33.0289 6.39825C32.8666 6.189 32.6603 6.04032 32.4098 5.95222C32.1618 5.86099 31.8651 5.83797 31.5197 5.88314C31.2378 5.92001 30.9934 6.00678 30.7864 6.14346C30.5795 6.28015 30.4118 6.45947 30.2834 6.68144C30.1547 6.90064 30.0671 7.15521 30.0207 7.44515C29.9771 7.73473 29.9777 8.05084 30.0225 8.3935L30.1223 9.15618C30.1656 9.48778 30.2443 9.78807 30.3581 10.0571C30.472 10.326 30.6169 10.553 30.7929 10.738C30.9716 10.9226 31.1775 11.0573 31.4107 11.142C31.6438 11.2268 31.8999 11.2509 32.179 11.2144C32.5355 11.1678 32.8251 11.0723 33.048 10.9279C33.2732 10.7804 33.4373 10.5846 33.5403 10.3407C33.6433 10.0968 33.6935 9.80352 33.6908 9.46097ZM35.4274 5.00949L36.2167 11.0446L35.7069 11.1113L34.9176 5.07617L35.4274 5.00949ZM39.2077 4.51507L36.949 8.06939L35.6434 8.24015L35.5403 7.80674L36.5931 7.66905L38.5693 4.59856L39.2077 4.51507ZM39.5452 10.6093L36.6181 8.05364L36.8539 7.56749L40.1794 10.5264L39.5452 10.6093Z" fill="white"/>
</svg>
