<svg width="87" height="37" viewBox="0 0 87 37" fill="none" xmlns="http://www.w3.org/2000/svg">
<circle cx="8.19035" cy="31.298" r="4.61261" transform="rotate(-7.45132 8.19035 31.298)" fill="#FF0000"/>
<path d="M13.184 13.2111L13.9733 19.2463L13.4676 19.3124L12.6783 13.2773L13.184 13.2111ZM15.2523 12.9406L15.3098 13.38L10.6715 13.9866L10.6141 13.5472L15.2523 12.9406ZM18.3498 16.1865L18.405 16.6093L16.3077 16.8836L16.2524 16.4608L18.3498 16.1865ZM16.4126 14.3656L16.9992 18.8505L16.5059 18.915L15.9193 14.4301L16.4126 14.3656ZM17.9876 16.5121L17.9697 16.3753C17.9271 16.0492 17.9347 15.7419 17.9925 15.4533C18.0503 15.1646 18.153 14.9081 18.3007 14.6836C18.4512 14.4587 18.6422 14.275 18.8737 14.1323C19.1048 13.9868 19.371 13.8944 19.6722 13.855C19.9761 13.8152 20.2585 13.8359 20.5193 13.917C20.7796 13.9954 21.0115 14.1239 21.2147 14.3025C21.4179 14.4811 21.5846 14.7024 21.7147 14.9664C21.8448 15.2305 21.9312 15.5255 21.9738 15.8516L21.9917 15.9884C22.0343 16.3145 22.0268 16.6218 21.969 16.9105C21.9108 17.1963 21.8065 17.4517 21.656 17.6765C21.5083 17.901 21.3189 18.086 21.0877 18.2315C20.8563 18.3742 20.5899 18.4652 20.2887 18.5046C19.9847 18.5444 19.7026 18.525 19.4422 18.4467C19.1814 18.3655 18.9494 18.2357 18.7462 18.0571C18.5429 17.8785 18.3765 17.6586 18.2467 17.3973C18.1166 17.1332 18.0303 16.8382 17.9876 16.5121ZM18.4671 16.3103L18.485 16.447C18.5172 16.693 18.5795 16.9223 18.672 17.1351C18.7668 17.3447 18.889 17.5269 19.0386 17.6816C19.1905 17.8332 19.3653 17.9452 19.5631 18.0177C19.7637 18.0898 19.9869 18.1098 20.2329 18.0777C20.4761 18.0459 20.6839 17.9695 20.8564 17.8486C21.0316 17.7273 21.1718 17.574 21.2769 17.3888C21.3816 17.2009 21.4528 16.9934 21.4906 16.7664C21.528 16.5367 21.5306 16.2989 21.4984 16.0529L21.4806 15.9161C21.4487 15.673 21.3854 15.4466 21.2905 15.2369C21.1957 15.0273 21.0721 14.8453 20.9198 14.691C20.7703 14.5363 20.5951 14.4215 20.3941 14.3466C20.1932 14.2717 19.9712 14.2501 19.728 14.2819C19.4848 14.3137 19.2772 14.3915 19.105 14.5152C18.9329 14.6389 18.7931 14.7949 18.6856 14.9832C18.5809 15.1711 18.5097 15.3786 18.4719 15.6056C18.4369 15.8322 18.4353 16.0671 18.4671 16.3103ZM25.7474 17.0149L27.0321 12.9767L27.5254 12.9122L26.0104 17.6719L25.6623 17.7175L22.9783 13.5069L23.4716 13.4424L25.7474 17.0149ZM23.3182 13.4624L23.9048 17.9473L23.4115 18.0119L22.8249 13.5269L23.3182 13.4624ZM27.7348 17.4464L27.1482 12.9615L27.6456 12.8965L28.2322 17.3814L27.7348 17.4464ZM31.3103 17.0631C31.0174 17.1014 30.7409 17.0828 30.4809 17.0072C30.2236 16.9312 29.991 16.807 29.7829 16.6347C29.5777 16.462 29.4078 16.2481 29.2732 15.9931C29.1411 15.7349 29.054 15.4456 29.0121 15.125L28.9888 14.9468C28.9436 14.6014 28.9539 14.2824 29.0197 13.99C29.0854 13.6975 29.1951 13.44 29.3487 13.2176C29.5023 12.9951 29.6869 12.8164 29.9025 12.6814C30.1205 12.5433 30.3566 12.4576 30.6109 12.4243C30.8955 12.3871 31.155 12.4051 31.3895 12.4785C31.6236 12.549 31.8273 12.6671 32.0007 12.8328C32.1766 12.9953 32.3196 13.1972 32.4299 13.4385C32.5398 13.6771 32.6144 13.947 32.6538 14.2482L32.6934 14.5508L29.2986 14.9948L29.2433 14.572L32.1449 14.1925L32.1373 14.1345C32.0989 13.8838 32.017 13.6556 31.8917 13.4499C31.7689 13.2411 31.6045 13.0799 31.3985 12.9663C31.1925 12.8528 30.9486 12.8144 30.6667 12.8513C30.4567 12.8787 30.269 12.9482 30.1038 13.0598C29.9412 13.171 29.8073 13.3178 29.7018 13.5002C29.5988 13.6795 29.5276 13.887 29.4881 14.1226C29.4511 14.3551 29.4504 14.6082 29.4862 14.8817L29.5095 15.06C29.5421 15.3087 29.6083 15.5361 29.7084 15.7422C29.8108 15.9453 29.9404 16.1194 30.0971 16.2648C30.2566 16.4097 30.4363 16.5155 30.6361 16.5821C30.8359 16.6487 31.0492 16.6672 31.2758 16.6376C31.541 16.6029 31.7696 16.5238 31.9614 16.4004C32.1529 16.2741 32.3163 16.094 32.4515 15.8599L32.7938 16.0596C32.7159 16.216 32.6116 16.3645 32.4811 16.5053C32.3533 16.6456 32.1932 16.7649 32.0009 16.8632C31.8086 16.9614 31.5784 17.028 31.3103 17.0631ZM36.6954 13.7534L36.7507 14.1761L34.0896 14.5242L34.0343 14.1014L36.6954 13.7534ZM33.9004 12.0784L34.487 16.5633L33.9937 16.6278L33.4072 12.1429L33.9004 12.0784ZM36.8144 11.6973L37.401 16.1822L36.9036 16.2473L36.317 11.7623L36.8144 11.6973ZM38.7305 13.0993L40.1937 12.908C40.5474 12.8617 40.854 12.8848 41.1134 12.9774C41.3725 13.0672 41.5783 13.2117 41.7308 13.411C41.8861 13.6099 41.9815 13.8448 42.0169 14.1156C42.0437 14.32 42.0327 14.5154 41.984 14.7017C41.9376 14.8848 41.8525 15.0505 41.7286 15.1988C41.6074 15.3468 41.4493 15.47 41.2542 15.5686C41.0618 15.6669 40.833 15.7333 40.5678 15.768L38.7895 16.0006L38.203 11.5157L38.6962 11.4512L39.227 15.5091L40.5119 15.3411C40.7855 15.3053 41.0004 15.2294 41.1567 15.1134C41.3126 14.9946 41.4179 14.8544 41.4727 14.6927C41.5302 14.5306 41.5477 14.3638 41.5253 14.1925C41.5032 14.0239 41.4436 13.8687 41.3463 13.7269C41.2515 13.5819 41.1135 13.472 40.9322 13.3974C40.7507 13.3199 40.5231 13.2991 40.2495 13.3349L38.7863 13.5263L38.7305 13.0993Z" fill="white"/>
</svg>
