<svg width="42" height="175" viewBox="0 0 42 175" fill="none" xmlns="http://www.w3.org/2000/svg">
<g style="mix-blend-mode:difference">
<path d="M0 1.5L40.5 31.5V147.5L0 173" stroke="white" stroke-width="3"/>
</g>
<path d="M21.1931 114.049L21.1931 112.178C21.1887 111.752 21.1235 111.35 20.9975 110.972C20.8715 110.59 20.689 110.255 20.4499 109.968C20.2109 109.681 19.9176 109.455 19.5699 109.29C19.2179 109.121 18.8137 109.036 18.3574 109.036C17.9011 109.036 17.497 109.121 17.145 109.29C16.7929 109.455 16.4974 109.681 16.2584 109.968C16.0194 110.255 15.8369 110.59 15.7108 110.972C15.5848 111.35 15.5174 111.752 15.5088 112.178L15.5088 115.255L25 115.255L25 114.049L21.1931 114.049ZM20.2022 114.049L16.4996 114.049L16.4996 112.178C16.5039 111.9 16.5496 111.644 16.6365 111.409C16.7234 111.17 16.8473 110.963 17.0081 110.79C17.1689 110.62 17.3644 110.488 17.5947 110.392C17.8251 110.292 18.0836 110.242 18.3705 110.242C18.6573 110.242 18.9137 110.292 19.1397 110.392C19.3613 110.488 19.5504 110.622 19.7068 110.796C19.8633 110.97 19.9849 111.174 20.0719 111.409C20.1544 111.644 20.1979 111.9 20.2022 112.178L20.2022 114.049ZM25.1304 104.232C25.1304 103.545 24.9935 102.969 24.7197 102.504C24.4416 102.035 24.1243 101.683 23.768 101.448L23.1943 102.185C23.4811 102.407 23.7115 102.685 23.8853 103.019C24.0591 103.354 24.146 103.736 24.146 104.167C24.146 104.493 24.0852 104.79 23.9635 105.06C23.8418 105.329 23.6745 105.559 23.4616 105.751C23.2617 105.938 23.0313 106.085 22.7706 106.194C22.5099 106.298 22.2078 106.366 21.8645 106.396L21.8189 106.396L21.8189 101.357L21.2778 101.357C20.7867 101.357 20.3304 101.42 19.9089 101.546C19.4873 101.668 19.1201 101.855 18.8072 102.107C18.4987 102.359 18.2575 102.676 18.0836 103.058C17.9055 103.437 17.8164 103.88 17.8164 104.388C17.8164 104.792 17.899 105.188 18.0641 105.575C18.2292 105.957 18.4661 106.298 18.7746 106.598C19.0875 106.902 19.47 107.146 19.9219 107.328C20.3695 107.511 20.878 107.602 21.4473 107.602L21.7211 107.602C22.2122 107.602 22.6663 107.519 23.0835 107.354C23.5007 107.189 23.8614 106.959 24.1656 106.663C24.4698 106.368 24.7067 106.014 24.8761 105.601C25.0456 105.184 25.1304 104.727 25.1304 104.232ZM18.8072 104.388C18.8072 104.08 18.8637 103.815 18.9767 103.593C19.0897 103.367 19.2375 103.18 19.42 103.032C19.6025 102.885 19.8198 102.769 20.0719 102.687C20.3196 102.604 20.5521 102.563 20.7694 102.563L20.828 102.563L20.828 106.357C20.5021 106.309 20.2153 106.227 19.9676 106.109C19.7155 105.987 19.5026 105.84 19.3287 105.666C19.1592 105.492 19.031 105.297 18.9441 105.079C18.8529 104.862 18.8072 104.632 18.8072 104.388ZM18.9441 93.515L17.9468 93.515L17.9468 99.271L25 99.271L25 98.0586L18.9441 98.0586L18.9441 93.515ZM17.9468 86.7225L23.1552 90.1709L17.9468 90.1709L17.9468 91.3704L25 91.3704L25 90.1709L19.7981 86.7225L25 86.7225L25 85.5166L17.9468 85.5166L17.9468 86.7225ZM21.4082 83.6327L21.5516 83.6327C22.0601 83.6327 22.5316 83.5588 22.9662 83.411C23.4007 83.2633 23.7788 83.0503 24.1004 82.7722C24.422 82.4984 24.6741 82.1638 24.8566 81.7683C25.0391 81.3685 25.1304 80.9187 25.1304 80.4189C25.1304 79.9235 25.0391 79.4781 24.8566 79.0826C24.6741 78.6871 24.422 78.3503 24.1004 78.0722C23.7788 77.7984 23.4007 77.5876 22.9662 77.4399C22.5316 77.2921 22.0601 77.2183 21.5516 77.2183L21.4082 77.2183C20.8997 77.2183 20.4282 77.2921 19.9936 77.4399C19.5547 77.5876 19.1744 77.7984 18.8529 78.0722C18.5313 78.3503 18.2792 78.6893 18.0967 79.0891C17.9098 79.4846 17.8164 79.9322 17.8164 80.432C17.8164 80.9274 17.9098 81.3728 18.0967 81.7683C18.2792 82.1638 18.5313 82.4984 18.8529 82.7722C19.1744 83.0503 19.5547 83.2633 19.9936 83.411C20.4282 83.5588 20.8997 83.6327 21.4082 83.6327ZM21.5516 82.4267L21.4082 82.4267C21.0649 82.4267 20.7368 82.3854 20.4239 82.3028C20.1066 82.2203 19.8285 82.0942 19.5895 81.9248C19.3505 81.7596 19.1614 81.5532 19.0223 81.3055C18.8789 81.0578 18.8072 80.7666 18.8072 80.432C18.8072 80.0974 18.8789 79.8062 19.0223 79.5585C19.1614 79.3064 19.3504 79.0956 19.5895 78.9262C19.8285 78.761 20.1066 78.6372 20.4239 78.5546C20.7368 78.4677 21.0649 78.4242 21.4082 78.4242L21.5516 78.4242C21.8993 78.4242 22.2317 78.4655 22.549 78.5481C22.8619 78.6306 23.1378 78.7545 23.3768 78.9196C23.6159 79.0891 23.8049 79.2999 23.944 79.552C24.083 79.7997 24.1526 80.0887 24.1526 80.4189C24.1526 80.7536 24.083 81.0469 23.944 81.299C23.8049 81.551 23.6159 81.7596 23.3768 81.9248C23.1378 82.0942 22.8619 82.2203 22.549 82.3028C22.2317 82.3854 21.8993 82.4267 21.5516 82.4267ZM25 69.4805L17.9468 69.4805L17.9468 70.6865L21.004 70.6865L21.004 74.1284L17.9468 74.1284L17.9468 75.3343L25 75.3343L25 74.1284L21.9884 74.1284L21.9884 70.6865L25 70.6865L25 69.4805ZM20.6194 66.2473L17.9468 66.2473L17.9468 67.4532L25 67.4532L25 65.6019C25 65.2195 24.9435 64.8827 24.8305 64.5915C24.7132 64.3003 24.5546 64.0548 24.3546 63.8549C24.1547 63.6593 23.9201 63.5116 23.6506 63.4116C23.3812 63.3073 23.0922 63.2552 22.7836 63.2552C22.4751 63.2552 22.1883 63.3073 21.9232 63.4116C21.6581 63.5116 21.4277 63.6593 21.2322 63.8549C21.041 64.0548 20.891 64.3025 20.7824 64.598C20.6737 64.8892 20.6194 65.2238 20.6194 65.6019L20.6194 66.2473ZM25 61.3061L17.9468 61.3061L17.9468 62.512L25 62.512L25 61.3061ZM21.6038 66.2473L21.6038 65.6019C21.6038 65.3977 21.6407 65.2238 21.7146 65.0804C21.7884 64.937 21.8841 64.8197 22.0014 64.7284C22.1187 64.6415 22.2513 64.5785 22.399 64.5394C22.5424 64.4959 22.6859 64.4742 22.8293 64.4742C22.9814 64.4742 23.1291 64.4959 23.2725 64.5394C23.4116 64.5785 23.5355 64.6415 23.6441 64.7284C23.7571 64.8197 23.8484 64.937 23.9179 65.0804C23.9831 65.2238 24.0157 65.3977 24.0157 65.6019L24.0157 66.2473L21.6038 66.2473Z" fill="#EDEDED"/>
</svg>
