<svg width="42" height="175" viewBox="0 0 42 175" fill="none" xmlns="http://www.w3.org/2000/svg">
<g style="mix-blend-mode:difference">
<path d="M0 2L40.5 32V148L0 173.5" stroke="white" stroke-width="3"/>
</g>
<path d="M20.802 133.693L19.7198 133.693C19.3809 133.697 19.0376 133.727 18.6899 133.784C18.3422 133.836 18.0076 133.919 17.686 134.031C17.3644 134.149 17.0646 134.297 16.7864 134.475C16.5039 134.649 16.2584 134.857 16.0498 135.101C15.8412 135.344 15.6782 135.624 15.5609 135.941C15.4392 136.259 15.3784 136.613 15.3784 137.004C15.3784 137.395 15.4392 137.749 15.5609 138.067C15.6782 138.379 15.8412 138.658 16.0498 138.901C16.2628 139.144 16.5105 139.355 16.7929 139.533C17.0711 139.707 17.3709 139.851 17.6925 139.964C18.0141 140.081 18.3487 140.168 18.6964 140.224C19.0397 140.276 19.3809 140.305 19.7198 140.309L20.802 140.309C21.1409 140.305 21.4821 140.274 21.8254 140.218C22.1687 140.161 22.5012 140.074 22.8228 139.957C23.1443 139.844 23.4464 139.698 23.7289 139.52C24.007 139.342 24.2503 139.131 24.4589 138.888C24.6675 138.645 24.8327 138.366 24.9544 138.054C25.0717 137.736 25.1304 137.382 25.1304 136.991C25.1304 136.6 25.0717 136.248 24.9544 135.935C24.8327 135.618 24.6675 135.337 24.4589 135.094C24.2503 134.851 24.007 134.642 23.7289 134.468C23.4507 134.29 23.1509 134.144 22.8293 134.031C22.5077 133.919 22.1752 133.836 21.8319 133.784C21.4842 133.727 21.1409 133.697 20.802 133.693ZM19.7068 134.885L20.802 134.885C21.0279 134.89 21.2648 134.905 21.5125 134.931C21.7602 134.953 22.0036 134.994 22.2426 135.055C22.486 135.12 22.7185 135.205 22.9401 135.309C23.1574 135.409 23.3486 135.535 23.5137 135.687C23.6832 135.844 23.8179 136.031 23.9179 136.248C24.0178 136.461 24.0678 136.709 24.0678 136.991C24.0678 137.273 24.0178 137.521 23.9179 137.734C23.8179 137.947 23.6832 138.132 23.5137 138.288C23.3486 138.445 23.1552 138.575 22.9336 138.679C22.7119 138.784 22.4794 138.868 22.2361 138.934C21.997 138.999 21.7537 139.047 21.506 139.077C21.2583 139.103 21.0236 139.118 20.802 139.123L19.7068 139.123C19.4852 139.118 19.2527 139.103 19.0093 139.077C18.7616 139.047 18.5161 138.999 18.2727 138.934C18.0337 138.873 17.8055 138.79 17.5882 138.686C17.3666 138.582 17.171 138.451 17.0015 138.295C16.8364 138.138 16.7039 137.954 16.6039 137.741C16.5039 137.528 16.454 137.282 16.454 137.004C16.454 136.722 16.5039 136.474 16.6039 136.261C16.6995 136.048 16.8299 135.863 16.995 135.707C17.1645 135.55 17.3601 135.42 17.5817 135.316C17.799 135.211 18.0272 135.127 18.2662 135.061C18.5095 135.001 18.7551 134.957 19.0028 134.931C19.2462 134.905 19.4808 134.89 19.7068 134.885ZM21.4082 132.187L21.5516 132.187C22.0601 132.187 22.5316 132.113 22.9662 131.965C23.4007 131.817 23.7788 131.604 24.1004 131.326C24.422 131.052 24.6741 130.718 24.8566 130.322C25.0391 129.923 25.1304 129.473 25.1304 128.973C25.1304 128.478 25.0391 128.032 24.8566 127.637C24.6741 127.241 24.422 126.904 24.1004 126.626C23.7788 126.352 23.4007 126.142 22.9662 125.994C22.5316 125.846 22.0601 125.772 21.5516 125.772L21.4082 125.772C20.8997 125.772 20.4282 125.846 19.9936 125.994C19.5547 126.142 19.1744 126.352 18.8529 126.626C18.5313 126.904 18.2792 127.243 18.0967 127.643C17.9098 128.039 17.8164 128.486 17.8164 128.986C17.8164 129.481 17.9098 129.927 18.0967 130.322C18.2792 130.718 18.5313 131.052 18.8529 131.326C19.1744 131.604 19.5547 131.817 19.9936 131.965C20.4282 132.113 20.8997 132.187 21.4082 132.187ZM21.5516 130.981L21.4082 130.981C21.0649 130.981 20.7368 130.939 20.4239 130.857C20.1066 130.774 19.8285 130.648 19.5895 130.479C19.3505 130.314 19.1614 130.107 19.0223 129.86C18.8789 129.612 18.8072 129.321 18.8072 128.986C18.8072 128.651 18.8789 128.36 19.0223 128.113C19.1614 127.86 19.3505 127.65 19.5895 127.48C19.8285 127.315 20.1066 127.191 20.4239 127.109C20.7368 127.022 21.0649 126.978 21.4082 126.978L21.5516 126.978C21.8993 126.978 22.2317 127.02 22.549 127.102C22.8619 127.185 23.1378 127.309 23.3768 127.474C23.6159 127.643 23.8049 127.854 23.944 128.106C24.083 128.354 24.1526 128.643 24.1526 128.973C24.1526 129.308 24.083 129.601 23.944 129.853C23.8049 130.105 23.6159 130.314 23.3768 130.479C23.1378 130.648 22.8619 130.774 22.549 130.857C22.2317 130.939 21.8993 130.981 21.5516 130.981ZM18.3509 120.753C18.3509 120.996 18.3792 121.229 18.4357 121.45C18.4878 121.672 18.5617 121.881 18.6573 122.076C18.7572 122.272 18.8768 122.454 19.0158 122.624C19.1505 122.793 19.2983 122.948 19.4591 123.087C19.0593 123.021 18.7181 122.917 18.4357 122.774C18.1488 122.63 17.9076 122.454 17.7121 122.246C17.5165 122.037 17.3622 121.8 17.2493 121.535C17.1319 121.27 17.0407 120.985 16.9755 120.681C16.8842 120.251 16.806 119.918 16.7408 119.684C16.6756 119.445 16.5778 119.228 16.4475 119.032C16.2997 118.81 16.102 118.639 15.8542 118.517C15.6065 118.391 15.2806 118.328 14.8764 118.328L14.8764 119.319C15.0546 119.319 15.2024 119.36 15.3197 119.443C15.4327 119.525 15.5261 119.638 15.6 119.782C15.6782 119.929 15.7434 120.103 15.7956 120.303C15.8434 120.499 15.889 120.712 15.9325 120.942C16.0237 121.424 16.1954 121.863 16.4475 122.259C16.6952 122.65 17.0276 122.982 17.4448 123.256C17.6491 123.391 17.8729 123.51 18.1162 123.615C18.3596 123.719 18.6225 123.808 18.905 123.882C19.2092 123.96 19.5417 124.021 19.9024 124.064C20.2587 124.104 20.6412 124.123 21.0497 124.123L21.695 124.123C22.1861 124.123 22.6402 124.051 23.0574 123.908C23.4746 123.765 23.8375 123.558 24.146 123.289C24.4546 123.019 24.6958 122.689 24.8696 122.298C25.0435 121.907 25.1304 121.463 25.1304 120.968C25.1304 120.473 25.0435 120.031 24.8696 119.645C24.6958 119.254 24.4546 118.923 24.146 118.654C23.8375 118.384 23.4746 118.18 23.0574 118.041C22.6402 117.898 22.1861 117.826 21.695 117.826L21.5451 117.826C21.0888 117.826 20.6672 117.893 20.2805 118.028C19.8893 118.158 19.5504 118.35 19.2635 118.602C18.9811 118.854 18.7594 119.16 18.5986 119.521C18.4335 119.882 18.3509 120.292 18.3509 120.753ZM19.3418 120.981C19.3418 120.651 19.4026 120.364 19.5243 120.121C19.6416 119.873 19.8002 119.669 20.0001 119.508C20.2044 119.347 20.4391 119.228 20.7042 119.149C20.9693 119.071 21.2496 119.032 21.5451 119.032L21.695 119.032C22.0253 119.032 22.3404 119.071 22.6402 119.149C22.9357 119.228 23.1943 119.347 23.416 119.508C23.6419 119.669 23.8223 119.871 23.957 120.114C24.0874 120.353 24.1526 120.638 24.1526 120.968C24.1526 121.303 24.0874 121.594 23.957 121.842C23.8223 122.085 23.6419 122.285 23.416 122.441C23.1943 122.602 22.9357 122.722 22.6402 122.8C22.3404 122.878 22.0253 122.917 21.695 122.917L21.5451 122.917C21.2496 122.917 20.9693 122.878 20.7042 122.8C20.4391 122.722 20.2044 122.602 20.0001 122.441C19.8002 122.285 19.6416 122.085 19.5243 121.842C19.4026 121.598 19.3418 121.311 19.3418 120.981ZM21.4082 116.151L21.5516 116.151C22.0601 116.151 22.5316 116.077 22.9662 115.929C23.4007 115.781 23.7788 115.568 24.1004 115.29C24.422 115.016 24.6741 114.682 24.8566 114.286C25.0391 113.887 25.1304 113.437 25.1304 112.937C25.1304 112.442 25.0391 111.996 24.8566 111.601C24.6741 111.205 24.422 110.868 24.1004 110.59C23.7788 110.316 23.4007 110.106 22.9662 109.958C22.5316 109.81 22.0601 109.736 21.5516 109.736L21.4082 109.736C20.8997 109.736 20.4282 109.81 19.9936 109.958C19.5547 110.106 19.1744 110.316 18.8529 110.59C18.5313 110.868 18.2792 111.207 18.0967 111.607C17.9098 112.003 17.8164 112.45 17.8164 112.95C17.8164 113.445 17.9098 113.891 18.0967 114.286C18.2792 114.682 18.5313 115.016 18.8529 115.29C19.1744 115.568 19.5547 115.781 19.9936 115.929C20.4282 116.077 20.8997 116.151 21.4082 116.151ZM21.5516 114.945L21.4082 114.945C21.0649 114.945 20.7368 114.903 20.4239 114.821C20.1066 114.738 19.8285 114.612 19.5895 114.443C19.3505 114.278 19.1614 114.071 19.0223 113.823C18.8789 113.576 18.8072 113.285 18.8072 112.95C18.8072 112.615 18.8789 112.324 19.0223 112.076C19.1614 111.824 19.3505 111.614 19.5895 111.444C19.8285 111.279 20.1066 111.155 20.4239 111.073C20.7368 110.986 21.0649 110.942 21.4082 110.942L21.5516 110.942C21.8993 110.942 22.2317 110.984 22.549 111.066C22.8619 111.149 23.1378 111.273 23.3768 111.438C23.6159 111.607 23.8049 111.818 23.944 112.07C24.083 112.318 24.1526 112.607 24.1526 112.937C24.1526 113.272 24.083 113.565 23.944 113.817C23.8049 114.069 23.6159 114.278 23.3768 114.443C23.1378 114.612 22.8619 114.738 22.549 114.821C22.2317 114.903 21.8993 114.945 21.5516 114.945ZM27.7118 107.8L27.7118 106.594L24.3221 106.594C24.4177 106.507 24.5067 106.414 24.5893 106.314C24.6675 106.214 24.7393 106.108 24.8044 105.995C24.9087 105.808 24.9891 105.599 25.0456 105.369C25.1021 105.134 25.1304 104.882 25.1304 104.613C25.1304 104.169 25.0391 103.776 24.8566 103.433C24.6741 103.085 24.422 102.794 24.1004 102.559C23.7788 102.324 23.4007 102.146 22.9662 102.025C22.5272 101.903 22.0557 101.842 21.5516 101.842L21.4147 101.842C20.8889 101.842 20.4065 101.903 19.9676 102.025C19.5243 102.146 19.144 102.324 18.8268 102.559C18.5095 102.794 18.2618 103.085 18.0836 103.433C17.9055 103.78 17.8164 104.18 17.8164 104.632C17.8164 104.889 17.8446 105.13 17.9011 105.356C17.9533 105.577 18.0315 105.779 18.1358 105.962C18.2053 106.092 18.2901 106.214 18.39 106.327C18.4856 106.44 18.5943 106.544 18.716 106.64L17.9468 106.699L17.9468 107.8L27.7118 107.8ZM21.4147 103.048L21.5516 103.048C21.8949 103.048 22.223 103.087 22.5359 103.165C22.8488 103.239 23.1248 103.354 23.3638 103.511C23.6028 103.667 23.794 103.867 23.9374 104.111C24.0765 104.354 24.146 104.643 24.146 104.978C24.146 105.186 24.12 105.377 24.0678 105.551C24.0157 105.721 23.944 105.875 23.8527 106.014C23.7745 106.136 23.6789 106.244 23.5659 106.34C23.4529 106.436 23.3312 106.52 23.2008 106.594L19.8046 106.594C19.6568 106.512 19.5221 106.416 19.4004 106.307C19.2787 106.199 19.1766 106.075 19.094 105.936C19.0115 105.81 18.9485 105.669 18.905 105.512C18.8615 105.351 18.8398 105.178 18.8398 104.991C18.8398 104.652 18.9094 104.361 19.0484 104.117C19.1875 103.874 19.3744 103.672 19.609 103.511C19.848 103.354 20.124 103.239 20.4369 103.165C20.7455 103.087 21.0714 103.048 21.4147 103.048ZM27.8487 99.2086C27.8487 98.8913 27.79 98.611 27.6727 98.3676C27.5553 98.1243 27.4097 97.9113 27.2359 97.7288C27.0621 97.5463 26.873 97.392 26.6688 97.266C26.4645 97.1356 26.2711 97.0291 26.0886 96.9466L17.9468 93.3678L17.9468 94.7172L22.5229 96.5359L23.3508 96.8683L22.4968 97.1812L17.9468 99.1173L17.9468 100.467L24.6675 97.4289L25.6062 97.9113C25.6932 97.9548 25.804 98.0156 25.9387 98.0939C26.0734 98.1677 26.2038 98.2568 26.3298 98.3611C26.4558 98.4698 26.5645 98.5936 26.6558 98.7327C26.747 98.8674 26.7926 99.0173 26.7926 99.1825C26.7926 99.2433 26.7883 99.3281 26.7796 99.4367C26.7753 99.541 26.7687 99.6475 26.7601 99.7561L27.7444 99.9517C27.7618 99.8735 27.7835 99.7583 27.8096 99.6062C27.8356 99.4541 27.8487 99.3215 27.8487 99.2086ZM24.0157 91.875L24.0157 92.5399L27.0729 92.4226L27.0729 91.3405L25 91.3405L25 86.4188L27.0729 86.4188L27.0729 85.3302L24.0157 85.2129L24.0157 86.119L17.9468 86.119L17.9468 90.6625L20.5934 90.7668C21.0975 90.7972 21.5538 90.8385 21.9623 90.8907C22.3708 90.9385 22.7228 91.0037 23.0183 91.0862C23.3138 91.1688 23.5485 91.2753 23.7223 91.4057C23.8918 91.5317 23.9896 91.6881 24.0157 91.875ZM20.5934 89.5609L19.0615 89.5022L19.0615 87.3249L24.0157 87.3249L24.0157 90.2062C23.8245 90.1019 23.6072 90.015 23.3638 89.9455C23.1204 89.8716 22.8532 89.8107 22.562 89.7629C22.2752 89.7151 21.9666 89.676 21.6363 89.6456C21.3061 89.6108 20.9584 89.5826 20.5934 89.5609ZM21.4082 84.0786L21.5516 84.0786C22.0601 84.0786 22.5316 84.0047 22.9662 83.857C23.4007 83.7092 23.7788 83.4963 24.1004 83.2182C24.422 82.9444 24.6741 82.6097 24.8566 82.2143C25.0391 81.8145 25.1304 81.3647 25.1304 80.8649C25.1304 80.3695 25.0391 79.924 24.8566 79.5286C24.6741 79.1331 24.422 78.7963 24.1004 78.5182C23.7788 78.2444 23.4007 78.0336 22.9662 77.8859C22.5316 77.7381 22.0601 77.6642 21.5516 77.6642L21.4082 77.6642C20.8997 77.6642 20.4282 77.7381 19.9936 77.8859C19.5547 78.0336 19.1744 78.2444 18.8529 78.5182C18.5313 78.7963 18.2792 79.1353 18.0967 79.5351C17.9098 79.9306 17.8164 80.3782 17.8164 80.8779C17.8164 81.3734 17.9098 81.8188 18.0967 82.2143C18.2792 82.6097 18.5313 82.9444 18.8529 83.2182C19.1744 83.4963 19.5547 83.7092 19.9936 83.857C20.4282 84.0047 20.8997 84.0786 21.4082 84.0786ZM21.5516 82.8727L21.4082 82.8727C21.0649 82.8727 20.7368 82.8314 20.4239 82.7488C20.1066 82.6662 19.8285 82.5402 19.5895 82.3707C19.3504 82.2056 19.1614 81.9992 19.0223 81.7514C18.8789 81.5037 18.8072 81.2126 18.8072 80.8779C18.8072 80.5433 18.8789 80.2521 19.0223 80.0044C19.1614 79.7524 19.3504 79.5416 19.5895 79.3721C19.8285 79.207 20.1066 79.0831 20.4239 79.0006C20.7368 78.9136 21.0649 78.8702 21.4082 78.8702L21.5516 78.8702C21.8993 78.8702 22.2317 78.9115 22.549 78.994C22.8619 79.0766 23.1378 79.2005 23.3768 79.3656C23.6159 79.5351 23.8049 79.7459 23.944 79.9979C24.083 80.2456 24.1526 80.5346 24.1526 80.8649C24.1526 81.1995 24.083 81.4929 23.944 81.7449C23.8049 81.997 23.6159 82.2056 23.3768 82.3707C23.1378 82.5402 22.8619 82.6662 22.549 82.7488C22.2317 82.8314 21.8993 82.8727 21.5516 82.8727ZM25 75.7868L25 72.5666C25 72.1537 24.9587 71.7822 24.8761 71.4519C24.7936 71.1173 24.6675 70.8326 24.4981 70.5979C24.3329 70.3633 24.1265 70.1829 23.8788 70.0569C23.6267 69.9309 23.3334 69.8678 22.9988 69.8678C22.8075 69.8678 22.625 69.8983 22.4512 69.9591C22.2773 70.0199 22.1187 70.109 21.9753 70.2264C21.8362 70.3437 21.7167 70.4849 21.6168 70.6501C21.5125 70.8109 21.4321 70.9999 21.3756 71.2172L21.3626 71.2694C21.3104 71.1346 21.2517 71.0108 21.1866 70.8978C21.1214 70.7848 21.0475 70.6849 20.9649 70.5979C20.8258 70.4415 20.6651 70.3241 20.4825 70.2459C20.2957 70.1634 20.0958 70.1221 19.8828 70.1221C19.5482 70.1221 19.2592 70.1916 19.0158 70.3307C18.7725 70.4654 18.5725 70.6588 18.4161 70.9108C18.2597 71.1672 18.1423 71.4736 18.0641 71.83C17.9859 72.1863 17.9468 72.5818 17.9468 73.0164L17.9468 75.7868L25 75.7868ZM21.9036 74.5743L21.9036 72.5666C21.9036 72.3232 21.9275 72.1081 21.9753 71.9212C22.0231 71.7344 22.0927 71.5779 22.1839 71.4519C22.2708 71.3302 22.3795 71.2389 22.5099 71.1781C22.6402 71.1129 22.7902 71.0803 22.9596 71.0803C23.1248 71.0803 23.2725 71.1086 23.4029 71.1651C23.5289 71.2216 23.6354 71.3041 23.7223 71.4128C23.8223 71.5388 23.8983 71.6996 23.9505 71.8952C24.0026 72.0864 24.0287 72.3102 24.0287 72.5666L24.0287 74.5743L21.9036 74.5743ZM20.9388 74.5743L18.9246 74.5743L18.9246 73.0164C18.9246 72.7513 18.9441 72.5144 18.9832 72.3058C19.0223 72.0929 19.0832 71.9169 19.1658 71.7778C19.2483 71.6301 19.3548 71.5192 19.4852 71.4454C19.6155 71.3671 19.7698 71.328 19.948 71.328C20.0827 71.328 20.2044 71.3519 20.313 71.3997C20.4173 71.4475 20.5086 71.5149 20.5868 71.6018C20.7085 71.7409 20.7976 71.9278 20.8541 72.1624C20.9106 72.3971 20.9388 72.6774 20.9388 73.0033L20.9388 74.5743ZM25 63.0688L25 61.8107L24.8957 61.8107C24.7001 61.8889 24.472 61.9498 24.2112 61.9932C23.9461 62.0367 23.6963 62.0584 23.4616 62.0584L20.1827 62.0584C19.7872 62.0584 19.4417 62.1301 19.1462 62.2735C18.8507 62.417 18.603 62.6125 18.4031 62.8602C18.2075 63.1123 18.0619 63.41 17.9663 63.7533C17.8664 64.0966 17.8164 64.4682 17.8164 64.868C17.8164 65.3069 17.8772 65.7002 17.9989 66.0479C18.1206 66.3912 18.2792 66.6824 18.4748 66.9214C18.6747 67.1647 18.8985 67.3516 19.1462 67.482C19.3939 67.608 19.646 67.6732 19.9024 67.6776L19.9024 66.4651C19.7546 66.4651 19.6134 66.4303 19.4786 66.3608C19.3396 66.2869 19.2201 66.1848 19.1201 66.0544C19.0202 65.924 18.9398 65.7654 18.8789 65.5785C18.8181 65.3873 18.7877 65.1722 18.7877 64.9332C18.7877 64.6768 18.8203 64.4464 18.8854 64.2422C18.9506 64.0336 19.0419 63.8576 19.1592 63.7142C19.2809 63.5708 19.4265 63.4599 19.596 63.3817C19.7655 63.3035 19.9567 63.2644 20.1696 63.2644L20.7237 63.2644L20.7237 64.5812C20.7237 65.0722 20.7715 65.5177 20.8671 65.9175C20.9627 66.313 21.1062 66.6519 21.2974 66.9344C21.4929 67.2169 21.7363 67.4364 22.0275 67.5928C22.3186 67.7449 22.6576 67.821 23.0444 67.821C23.3399 67.821 23.6159 67.7645 23.8723 67.6515C24.1243 67.5341 24.3416 67.369 24.5241 67.1561C24.711 66.9475 24.8588 66.6932 24.9674 66.3934C25.076 66.0892 25.1304 65.7502 25.1304 65.3764C25.1304 65.1461 25.1065 64.9288 25.0587 64.7246C25.0109 64.5203 24.9457 64.3269 24.8631 64.1444C24.7805 63.9662 24.6849 63.8033 24.5763 63.6555C24.4676 63.5034 24.3525 63.3665 24.2308 63.2448C24.3785 63.2318 24.522 63.2122 24.661 63.1862C24.7957 63.1557 24.9087 63.1166 25 63.0688ZM24.0809 65.2004C24.0809 65.4351 24.0504 65.6415 23.9896 65.8197C23.9288 65.9979 23.844 66.1457 23.7354 66.263C23.6311 66.3803 23.505 66.4694 23.3573 66.5303C23.2095 66.5868 23.0487 66.615 22.8749 66.615C22.6924 66.615 22.5294 66.5824 22.386 66.5172C22.2426 66.4477 22.1187 66.3477 22.0144 66.2174C21.8667 66.0348 21.758 65.7893 21.6885 65.4807C21.6146 65.1678 21.5777 64.8028 21.5777 64.3856L21.5777 63.2644L23.0053 63.2644C23.1443 63.3339 23.2791 63.4295 23.4094 63.5512C23.5355 63.6729 23.6485 63.8163 23.7484 63.9814C23.8484 64.1509 23.9288 64.3378 23.9896 64.5421C24.0504 64.7463 24.0809 64.9658 24.0809 65.2004ZM25 53.8905L17.9468 53.8905L17.9468 55.0964L21.004 55.0964L21.004 58.5383L17.9468 58.5383L17.9468 59.7443L25 59.7443L25 58.5383L21.9884 58.5383L21.9884 55.0964L25 55.0964L25 53.8905ZM17.9468 47.0784L23.1552 50.5268L17.9468 50.5268L17.9468 51.7263L25 51.7263L25 50.5268L19.7981 47.0784L25 47.0784L25 45.8725L17.9468 45.8725L17.9468 47.0784ZM25.1304 40.5336C25.1304 39.847 24.9935 39.2712 24.7197 38.8062C24.4416 38.3368 24.1243 37.9848 23.768 37.7502L23.1943 38.4868C23.4811 38.7084 23.7115 38.9865 23.8853 39.3212C24.0591 39.6558 24.146 40.0382 24.146 40.4685C24.146 40.7944 24.0852 41.0921 23.9635 41.3615C23.8418 41.631 23.6745 41.8613 23.4616 42.0525C23.2617 42.2394 23.0313 42.3871 22.7706 42.4958C22.5098 42.6001 22.2078 42.6674 21.8645 42.6979L21.8189 42.6979L21.8189 37.6589L21.2778 37.6589C20.7867 37.6589 20.3304 37.7219 19.9089 37.8479C19.4873 37.9696 19.1201 38.1565 18.8072 38.4085C18.4987 38.6606 18.2575 38.9778 18.0836 39.3603C17.9055 39.7384 17.8164 40.1816 17.8164 40.6901C17.8164 41.0943 17.8989 41.4897 18.0641 41.8765C18.2292 42.2589 18.4661 42.6001 18.7746 42.8999C19.0875 43.2041 19.47 43.4475 19.9219 43.63C20.3695 43.8126 20.878 43.9038 21.4473 43.9038L21.7211 43.9038C22.2122 43.9038 22.6663 43.8212 23.0835 43.6561C23.5007 43.491 23.8614 43.2606 24.1656 42.9651C24.4698 42.6696 24.7067 42.3154 24.8761 41.9026C25.0456 41.4854 25.1304 41.0291 25.1304 40.5336ZM18.8072 40.6901C18.8072 40.3815 18.8637 40.1164 18.9767 39.8948C19.0897 39.6688 19.2375 39.482 19.42 39.3342C19.6025 39.1864 19.8198 39.0713 20.0719 38.9887C20.3196 38.9061 20.5521 38.8649 20.7694 38.8649L20.828 38.8649L20.828 42.6587C20.5021 42.6109 20.2153 42.5284 19.9676 42.411C19.7155 42.2894 19.5026 42.1416 19.3287 41.9678C19.1592 41.7939 19.031 41.5984 18.9441 41.3811C18.8529 41.1638 18.8072 40.9335 18.8072 40.6901Z" fill="#EDEDED"/>
</svg>
