<svg width="45" height="180" viewBox="0 0 45 180" fill="none" xmlns="http://www.w3.org/2000/svg">
<g style="mix-blend-mode:difference">
<path d="M0 4.5L40.5 34.5V150.5L0 176" stroke="white" stroke-width="9"/>
</g>
<path d="M20.7042 122.578L25 119.618L25 118.138L20.1044 121.632L15.5088 118.406L15.5088 119.788L19.7198 122.675L19.7198 123.692L15.5088 123.692L15.5088 124.898L25 124.898L25 123.692L20.7042 123.692L20.7042 122.578ZM21.4082 117.187L21.5516 117.187C22.0601 117.187 22.5316 117.113 22.9662 116.965C23.4007 116.817 23.7788 116.604 24.1004 116.326C24.422 116.052 24.6741 115.718 24.8566 115.322C25.0391 114.923 25.1304 114.473 25.1304 113.973C25.1304 113.478 25.0391 113.032 24.8566 112.637C24.6741 112.241 24.422 111.904 24.1004 111.626C23.7788 111.352 23.4007 111.142 22.9662 110.994C22.5316 110.846 22.0601 110.772 21.5516 110.772L21.4082 110.772C20.8997 110.772 20.4282 110.846 19.9936 110.994C19.5547 111.142 19.1744 111.352 18.8529 111.626C18.5313 111.904 18.2792 112.243 18.0967 112.643C17.9098 113.039 17.8164 113.486 17.8164 113.986C17.8164 114.481 17.9098 114.927 18.0967 115.322C18.2792 115.718 18.5313 116.052 18.8529 116.326C19.1744 116.604 19.5547 116.817 19.9936 116.965C20.4282 117.113 20.8997 117.187 21.4082 117.187ZM21.5516 115.981L21.4082 115.981C21.0649 115.981 20.7368 115.939 20.4239 115.857C20.1066 115.774 19.8285 115.648 19.5895 115.479C19.3505 115.314 19.1614 115.107 19.0223 114.86C18.8789 114.612 18.8072 114.321 18.8072 113.986C18.8072 113.651 18.8789 113.36 19.0223 113.113C19.1614 112.86 19.3505 112.65 19.5895 112.48C19.8285 112.315 20.1066 112.191 20.4239 112.109C20.7368 112.022 21.0649 111.978 21.4082 111.978L21.5516 111.978C21.8993 111.978 22.2317 112.02 22.549 112.102C22.8619 112.185 23.1378 112.309 23.3768 112.474C23.6159 112.643 23.8049 112.854 23.944 113.106C24.083 113.354 24.1526 113.643 24.1526 113.973C24.1526 114.308 24.083 114.601 23.944 114.853C23.8049 115.105 23.6159 115.314 23.3768 115.479C23.1378 115.648 22.8619 115.774 22.549 115.857C22.2317 115.939 21.8993 115.981 21.5516 115.981ZM25 103.035L17.9468 103.035L17.9468 104.241L21.004 104.241L21.004 107.682L17.9468 107.682L17.9468 108.888L25 108.888L25 107.682L21.9884 107.682L21.9884 104.241L25 104.241L25 103.035ZM18.9246 94.469L17.9468 94.469L17.9468 101.268L18.9246 101.268L18.9246 98.4976L25 98.4976L25 97.2851L18.9246 97.2851L18.9246 94.469ZM25 88.1589L25 86.9008L24.8957 86.9008C24.7001 86.979 24.472 87.0398 24.2112 87.0833C23.9461 87.1268 23.6963 87.1485 23.4616 87.1485L20.1827 87.1485C19.7872 87.1485 19.4417 87.2202 19.1462 87.3636C18.8507 87.507 18.603 87.7026 18.4031 87.9503C18.2075 88.2023 18.0619 88.5 17.9663 88.8434C17.8664 89.1867 17.8164 89.5582 17.8164 89.9581C17.8164 90.397 17.8772 90.7903 17.9989 91.1379C18.1206 91.4813 18.2792 91.7724 18.4748 92.0114C18.6747 92.2548 18.8985 92.4417 19.1462 92.5721C19.3939 92.6981 19.646 92.7633 19.9024 92.7676L19.9024 91.5551C19.7546 91.5551 19.6134 91.5204 19.4787 91.4508C19.3396 91.377 19.2201 91.2748 19.1201 91.1445C19.0202 91.0141 18.9398 90.8555 18.8789 90.6686C18.8181 90.4774 18.7877 90.2623 18.7877 90.0232C18.7877 89.7668 18.8203 89.5365 18.8854 89.3323C18.9506 89.1237 19.0419 88.9477 19.1592 88.8042C19.2809 88.6608 19.4265 88.55 19.596 88.4718C19.7655 88.3936 19.9567 88.3545 20.1696 88.3545L20.7237 88.3545L20.7237 89.6712C20.7237 90.1623 20.7715 90.6078 20.8671 91.0076C20.9627 91.403 21.1062 91.742 21.2974 92.0245C21.4929 92.307 21.7363 92.5264 22.0275 92.6829C22.3186 92.835 22.6576 92.911 23.0444 92.911C23.3399 92.911 23.6159 92.8545 23.8723 92.7415C24.1243 92.6242 24.3416 92.4591 24.5241 92.2461C24.711 92.0375 24.8588 91.7833 24.9674 91.4834C25.0761 91.1792 25.1304 90.8403 25.1304 90.4665C25.1304 90.2362 25.1065 90.0189 25.0587 89.8146C25.0109 89.6104 24.9457 89.417 24.8631 89.2345C24.7805 89.0563 24.6849 88.8933 24.5763 88.7456C24.4676 88.5935 24.3525 88.4566 24.2308 88.3349C24.3785 88.3219 24.522 88.3023 24.661 88.2762C24.7957 88.2458 24.9087 88.2067 25 88.1589ZM24.0809 90.2905C24.0809 90.5252 24.0504 90.7316 23.9896 90.9098C23.9288 91.088 23.844 91.2357 23.7354 91.3531C23.6311 91.4704 23.505 91.5595 23.3573 91.6203C23.2095 91.6768 23.0487 91.7051 22.8749 91.7051C22.6924 91.7051 22.5294 91.6725 22.386 91.6073C22.2426 91.5378 22.1187 91.4378 22.0144 91.3074C21.8667 91.1249 21.758 90.8794 21.6885 90.5708C21.6146 90.2579 21.5777 89.8929 21.5777 89.4757L21.5777 88.3545L23.0053 88.3545C23.1443 88.424 23.2791 88.5196 23.4094 88.6413C23.5355 88.763 23.6485 88.9064 23.7484 89.0715C23.8484 89.241 23.9288 89.4279 23.9896 89.6321C24.0504 89.8364 24.0809 90.0558 24.0809 90.2905ZM21.9949 82.4876L25 79.7954L25 78.2635L21.343 81.5228L17.9468 78.4982L17.9468 79.9649L20.9323 82.5919L20.9323 83.6349L17.9468 83.6349L17.9468 84.8409L25 84.8409L25 83.6349L21.9949 83.6349L21.9949 82.4876ZM18.9246 70.415L17.9468 70.415L17.9468 77.214L18.9246 77.214L18.9246 74.4435L25 74.4435L25 73.231L18.9246 73.231L18.9246 70.415ZM20.6194 67.7293L17.9468 67.7293L17.9468 68.9352L25 68.9352L25 67.0839C25 66.7015 24.9435 66.3647 24.8305 66.0735C24.7132 65.7823 24.5546 65.5368 24.3546 65.3369C24.1547 65.1413 23.9201 64.9936 23.6506 64.8936C23.3812 64.7893 23.0922 64.7372 22.7836 64.7372C22.4751 64.7372 22.1883 64.7893 21.9232 64.8936C21.6581 64.9936 21.4277 65.1413 21.2322 65.3369C21.041 65.5368 20.891 65.7845 20.7824 66.08C20.6737 66.3712 20.6194 66.7058 20.6194 67.0839L20.6194 67.7293ZM25 62.7881L17.9468 62.7881L17.9468 63.994L25 63.994L25 62.7881ZM21.6037 67.7293L21.6037 67.0839C21.6037 66.8796 21.6407 66.7058 21.7146 66.5624C21.7884 66.419 21.8841 66.3017 22.0014 66.2104C22.1187 66.1235 22.2513 66.0605 22.399 66.0214C22.5424 65.9779 22.6859 65.9562 22.8293 65.9562C22.9814 65.9562 23.1291 65.9779 23.2725 66.0214C23.4116 66.0605 23.5355 66.1235 23.6441 66.2104C23.7571 66.3017 23.8484 66.419 23.9179 66.5624C23.9831 66.7058 24.0157 66.8796 24.0157 67.0839L24.0157 67.7293L21.6037 67.7293Z" fill="#EDEDED"/>
</svg>
