<svg width="2344" height="2125" viewBox="0 0 2344 2125" fill="none" xmlns="http://www.w3.org/2000/svg">
<g filter="url(#filter0_dd_499_675)">
<path fill-rule="evenodd" clip-rule="evenodd" d="M858.556 450.623L840.661 454.009L835.894 487.404L802.91 464.455L798.443 493.209L834.219 523.114L839.866 552.427L775.953 508.91L769.957 476.923L790.223 444.22L787.593 396.383L778.372 402.122L770.932 435.866L755.147 454.316L737.062 462.12L722.684 491.333L732.819 561.896L697.956 636.53L706.126 678.204L750.891 672.349L793.306 711.427L798.802 753.45L776.918 788.177L785.99 801.564L808.08 810.528L770.787 824.47L754.761 785.637L776.862 731.776L759.404 695.849L714.773 695.272L693.622 721.745L697.852 774.881L662.991 821.276L628.003 839.519L606.496 869.664L515.593 828.77L512.312 803.68L572.061 822.291L600.083 806.773L643.541 770.131L667.334 701.476L657.423 667.282L695.028 530.441L698.334 507.208L688.241 478.546L719.578 439.863L720.504 391.492L688.002 358.369L715.968 350.946L707.276 317.011L678.754 318.579L679.979 343.939L688.002 358.369L669.177 353.58L644.994 377.66L618.162 423.075L596.296 450.479L559.835 464.382L542.616 485.738L565.681 509.079L549.262 550.412L520.881 563.188L521.747 576.742L551.244 600.216L545.536 626.413L552.167 641.931L563.844 654.977L534.714 689.745L521.796 674.143L507.777 636.79L465.48 585.286L447.65 604.631L462.167 623.929L462.686 624.698L462.382 625.575L443.542 672.385L457.064 702.202L457.437 702.92L457.038 703.6L444.963 729.095L444.683 729.62L444.161 729.898L420.823 741.247L406.982 762.302L406.642 762.904L405.897 763.071L344.695 773.865L316.746 803.807L316.32 804.281L315.771 804.353L295.593 807.341L300.652 859.88L300.723 860.429L300.503 860.876L280.81 897.966L300.753 928.896L360.635 925.597L361.192 925.593L361.571 925.823L392.821 944.048L393.501 944.447L393.608 945.27L398.23 973.672L409.44 981.549L477.843 976.228L478.606 976.198L479.166 976.752L503.605 1000.47L504.001 1000.84L504.142 1001.38L511.59 1044.47L525.158 1058.1L525.563 1058.54L525.635 1059.09L528.465 1087.65L573.367 1081.78L573.984 1081.7L574.527 1082.12L620.322 1113.99L679.96 1131.22L680.467 1131.36L680.795 1131.74L706.068 1163.44L745.813 1181.04L783.641 1179.72L811.275 1153.23L812.264 1152.27L813.418 1153.09L844.59 1175.51L873.06 1170.88L873.942 1170.7L874.589 1171.38L900.144 1199.9L911.357 1199.27L911.983 1199.26L912.457 1199.69L935.782 1217.55L971.27 1157.83L969.38 1122.58L969.386 1122.1L969.616 1121.72L992.698 1079.09L983.382 1048.38L948.083 1028.52L947.18 1028.01L947.182 1026.96L949.309 980.318L924.074 953.706L923.66 953.202L923.648 952.576L922.081 888.354L890.713 856.966L890.075 856.352L890.233 855.425L896.731 821.943L882.797 798.037L881.809 796.353L883.598 795.631L916.929 781.789L926.74 742.714L913.324 699.844L875.944 695.529L875.378 695.463L874.972 695.028L835.985 655.502L835.425 654.948L835.463 654.176L838.634 626.708L838.732 625.858L839.441 625.417L886.297 596.627L888.702 576.092L861.81 534.148L861.542 533.695L861.607 533.129L863.066 503.234L863.119 502.042L864.258 501.684L885.583 495.199L859.565 454.605L859.401 454.417L859.356 454.074L858.556 450.623Z" fill="url(#paint0_linear_499_675)"/>
<path fill-rule="evenodd" clip-rule="evenodd" d="M1630.61 1048.22L1622.63 1059.79L1622.38 1060.18L1621.93 1060.36L1600.39 1067.93L1581.47 1079.49L1585.51 1101.63L1593.27 1115.95L1593.59 1116.51L1593.41 1117.02L1585.3 1143.64L1599.01 1160.31L1599.23 1160.58L1599.27 1160.93L1605.17 1187.65L1605.28 1188.05L1605.15 1188.43L1592.01 1224.79L1591.88 1225.17L1591.55 1225.39L1564.62 1247.32L1578.05 1264.62L1578.63 1265.39L1578.14 1266.24L1567.92 1284.95L1577.42 1306.2L1603.57 1310.9L1604.37 1311.04L1604.65 1311.84L1610.35 1327.82L1610.62 1328.5L1610.16 1329.1L1594.29 1351.09L1595 1364.82L1607.17 1366.48L1607.91 1366.56L1608.24 1367.24L1616.39 1384.1L1616.79 1384.89L1616.23 1385.62L1604.21 1401.27L1601.14 1422.78L1600.91 1424.67L1599.19 1423.93L1571.38 1412.06L1571 1411.87L1570.77 1411.47L1554.96 1386.18L1532.53 1400.24L1532.08 1423.39L1532.08 1423.87L1531.82 1424.21L1486.9 1488.18L1492.65 1514.25L1492.85 1515.3L1491.9 1515.85L1478.61 1523.54L1477.44 1524.23L1476.69 1523.07L1450.84 1482.07L1439.38 1501.97L1439.04 1502.55L1438.39 1502.64L1384.35 1512.05L1368.04 1554.54L1397.24 1589.45L1397.66 1589.88L1397.62 1590.48L1395.72 1612.26L1395.61 1613.3L1394.62 1613.55L1371.15 1620.11L1360.98 1647.96L1365.49 1718.75L1365.57 1720.25L1364.07 1720.26L1340.67 1720.98L1325.25 1730.75L1327.04 1744.47L1371.19 1774.72L1435.97 1808.4L1459.69 1803.74L1460.92 1803.52L1461.37 1804.66L1462.84 1808.56L1478.19 1806.91L1502.81 1783.91L1503.88 1782.92L1504.86 1783.94L1525.12 1805.16L1582.68 1839.67L1608.19 1836.34L1608.9 1836.24L1609.38 1836.72L1632.35 1859.4L1632.63 1859.66L1632.74 1860.07L1637.53 1879.23L1665.51 1880.98L1666.42 1881.04L1666.78 1881.9L1672.18 1895.68L1694.95 1884.65L1697.59 1867.64L1672.73 1870.9L1671.84 1871.01L1671.32 1870.24L1664.28 1859.13L1663.59 1858.02L1664.63 1857.22L1675.51 1848.58L1675.73 1848.37L1676.01 1848.27L1691.9 1843.85L1721.49 1817.07L1730.79 1797.63L1730.88 1797.44L1731.04 1797.3L1752.29 1772.33L1755.54 1755.42L1755.58 1755.24L1755.62 1755.11L1766.61 1728.84L1766.66 1728.77L1780.42 1699.85L1789.96 1657.1L1796.78 1622.89L1781.57 1597.04L1781.4 1596.7L1781.42 1596.34L1780.59 1566.62L1780.6 1566.19L1780.85 1565.8L1793.67 1545.84L1773.55 1532.96L1773.09 1532.66L1772.97 1532.19L1767.7 1515.38L1767.27 1513.93L1768.79 1513.55L1799.58 1505.56L1801.04 1486.84L1801.18 1485.2L1802.79 1485.53L1820.28 1489.26L1848.24 1475.68L1853.66 1456.03L1854.06 1454.53L1855.52 1455.12L1871.38 1461.1L1886.21 1459.17L1886.92 1459.07L1887.41 1459.61L1899.8 1472.6L1959.51 1447.77L1962.9 1420.39L1963.09 1419.1L1964.41 1419.11L1977.06 1419.38L1990.41 1399.71L1992.28 1397L1993.06 1400.21L1997.45 1419.12L2035.95 1419.97L2056.14 1401.64L2053.31 1372.66L2027.5 1359.02L2026.86 1358.68L2026.76 1357.97L2019.99 1321.81L2019.83 1321.05L2020.36 1320.5L2032.15 1308.67L2032.47 1308.33L2032.94 1308.27L2065.06 1303.11L2025.77 1238.3L2008.05 1229.13L1981.22 1245.81L1979.88 1246.65L1979.21 1245.17L1964.72 1215.25L1916.8 1203L1894.56 1209.76L1869 1290.86L1868.96 1291.04L1868.87 1291.24L1848.6 1322.27L1847.75 1323.59L1846.49 1322.67L1826.8 1307.63L1818.38 1328.69L1818.06 1329.46L1817.24 1329.62L1784.69 1335.2L1764.71 1355.14L1763.8 1356.04L1762.73 1355.16L1738.51 1335.35L1738.04 1334.93L1738.02 1334.33L1734.32 1275.28L1734.29 1275.04L1734.37 1274.79L1747.8 1227.21L1721.77 1222.97L1721.09 1222.82L1720.78 1222.26L1705.37 1197.21L1705.13 1196.76L1705.18 1196.28L1709.32 1157.61L1687.51 1148.85L1686.68 1148.54L1686.63 1147.64L1683.11 1110.64L1664.34 1083.8L1653.44 1093.71L1653.07 1094.06L1652.59 1094.06L1635.17 1095.02L1633.79 1095.08L1633.62 1093.78L1631.19 1075.15L1631.09 1074.38L1631.74 1073.87L1644.04 1063.61L1630.61 1048.22ZM1584.2 1777.41L1579.63 1763.57L1579.23 1762.36L1580.36 1761.8L1593.55 1755.62L1584.92 1735.58L1584.4 1734.38L1585.58 1733.75L1601.2 1725.45L1602.38 1724.82L1603.12 1725.92L1619.29 1749.91L1648.76 1726.69L1649.8 1725.89L1650.7 1726.86L1663.77 1740.84L1674.35 1748.3L1686.09 1742.07L1686.32 1741.92L1686.55 1741.89L1703.62 1739.66L1704.39 1739.56L1704.89 1740.22L1715.1 1752.53L1715.74 1753.29L1715.19 1754.14L1687.52 1800.76L1686.83 1801.94L1685.61 1801.31L1663.62 1789.76L1639.23 1795.29L1638.76 1795.41L1638.32 1795.23L1622.65 1787.96L1622.58 1787.91L1603.63 1777.58L1585.6 1778.43L1584.53 1778.51L1584.2 1777.41Z" fill="url(#paint1_linear_499_675)"/>
<path fill-rule="evenodd" clip-rule="evenodd" d="M265.717 1601.57L290.979 1597.84L316.266 1630.25L333.303 1630.69L333.782 1630.06L337.379 1614.65L337.463 1614.22L337.712 1613.97L363.679 1582.37L365.48 1560.74L365.486 1560.24L365.794 1559.92L381.012 1537.87L381.542 1537.1L382.466 1537.19L405.394 1538.68L409.937 1528.89L411.422 1512.35L403.109 1496.53L383.26 1491.76L382.387 1491.52L382.081 1490.79L377.899 1480.81L377.584 1480.01L378.046 1479.25L385.666 1467.24L384.816 1439.28L384.804 1438.65L385.164 1438.18L412.992 1403.11L414.011 1401.79L415.337 1402.81L435.463 1418.28L436.564 1419.18L435.958 1420.46L427.958 1435.46L440.682 1436.19L441.105 1436.2L441.408 1436.37L476.636 1455.2L500.784 1448.32L501.327 1448.18L501.915 1448.38L526.642 1458.27L549.248 1456.23L576.876 1431.42L517.254 1397.76L516.882 1397.59L516.699 1397.27L483.677 1349.17L483.668 1349.1L458.697 1308.38L443.12 1306.77L442.982 1306.79L442.835 1306.73L409.251 1297.8L408.957 1297.69L408.723 1297.51L390.743 1284.5L387.704 1297.74L387.434 1298.9L386.192 1299.06L360.69 1301.48L355.521 1309.17L355.341 1309.41L355.084 1309.58L340.249 1320.08L339.803 1320.42L339.173 1320.43L326.473 1319.36L319.472 1326.45L319.034 1326.86L318.482 1326.93L302.547 1329.01L302.202 1329.06L301.839 1328.96L280.629 1322.9L274.084 1340.45L273.83 1341.19L273.02 1341.43L245.261 1350.75L231.053 1384.81L230.687 1385.77L229.712 1385.83L178.656 1390.82L168.694 1421.94L173.248 1450.32L173.419 1451.64L172.231 1452.21L159.198 1457.7L157.535 1480.94L172.547 1506.13L172.634 1506.25L172.721 1506.38L179.722 1523.43L201.954 1527.12L202.317 1527.21L202.629 1527.45L224.773 1542.8L225.388 1543.21L225.478 1543.9L228.517 1562.3L260.957 1583.95L261.494 1584.3L261.653 1584.98L265.699 1601.43L265.717 1601.57Z" fill="url(#paint2_linear_499_675)"/>
<path fill-rule="evenodd" clip-rule="evenodd" d="M2525.48 -71.5899L2519.5 -54.9836L2479.45 -24.9037L2444.09 -50.7021L2412.24 -49.7254L2371.23 -14.737L2345.5 27.0236L2339.53 67.0601L2319.93 76.0025L2293.1 66.6921L2269.07 72.2268L2258.65 90.4571L2246.39 82.431L2237.59 94.806L2223.52 84.6251L2239.16 64.1782L2196.34 66.5284L2174.73 91.0066L2194.07 134.908L2172.76 161.678L2168.13 126.279L2151.62 128.438L2137.07 145.552L2130.79 127.973L2152.3 102.711L2126.55 107.734L2054.65 157.129L2071.89 173.274L2052.69 197.437L2063.42 212.042L2078.11 202.086L2082.67 224.737L2104.4 244.282L2076.24 255.203L2069.17 268.149L2079.47 286L2056.43 293.001L2023.69 287.713L2018.93 324.341L1964.2 321.869L1974.5 400.627L1935.96 399.227L1870.88 354.131L1890.13 336.403L1847.87 288.261L1823.59 280.211L1790.56 296.553L1750.05 286.64L1752.4 347.178L1686.31 386.244L1657.2 371.651L1659.32 356.959L1587.66 365.535L1572.04 393.216L1569.5 410.354L1561.61 386.545L1546.69 376.474L1533.13 395.054L1512.75 408.821L1513.51 423.994L1525.47 436.231L1525.69 436.509L1525.85 436.855L1533.6 460.499L1573.57 503.788L1573.86 504.118L1573.93 504.6L1577.99 535.657L1597.85 554.036L1599.03 555.048L1597.95 556.17L1562.76 592.544L1562.9 610.927L1562.88 611.297L1562.74 611.622L1555.33 626.637L1552.8 661.133L1552.67 662.499L1551.33 662.551L1531.75 662.781L1504.04 692.166L1503.94 692.302L1503.77 692.386L1494.05 699.177L1523.62 733.645L1523.9 733.915L1523.95 734.276L1546.12 838.654L1546.26 839.249L1545.9 839.786L1527.35 866.624L1543.13 875.784L1543.92 876.233L1543.86 877.161L1541.68 905.906L1556.14 918.122L1556.56 918.496L1556.63 919.039L1559.19 938.638L1575.49 947.057L1576.54 947.594L1576.25 948.674L1571.59 968.789L1571.5 969.046L1571.41 969.242L1552.5 999.438L1552.88 1019.2L1589.57 1014.4L1590.05 1014.34L1590.51 1014.59L1608.05 1025.05L1623.61 1011.42L1624.66 1010.55L1625.64 1011.46L1636.78 1022.21L1637.69 1023.07L1637.58 1023.15L1652.66 1040.56L1653.6 1041.66L1652.44 1042.61L1639.41 1053.52L1641.62 1070.4L1657.56 1069.54L1669.42 1058.61L1670.69 1057.52L1671.66 1058.87L1691.94 1087.93L1692.23 1088.26L1692.22 1088.69L1695.74 1125.89L1718.19 1134.97L1719.22 1135.33L1719.12 1136.45L1714.8 1176.51L1729.96 1201.09L1757.44 1205.53L1759.07 1205.8L1758.6 1207.4L1744.61 1257.32L1748.26 1316.64L1771.44 1335.57L1791.23 1315.87L1791.56 1315.58L1792.03 1315.46L1824.88 1309.87L1833.93 1287.28L1834.68 1285.47L1836.18 1286.68L1856.41 1302.19L1876.06 1272.08L1902.29 1188.79L1902.57 1188.08L1903.27 1187.8L1927.13 1180.57L1927.55 1180.46L1927.93 1180.53L1977.82 1193.33L1978.51 1193.48L1978.78 1194.12L1993.19 1223.76L2019.82 1207.15L2020.5 1206.76L2021.28 1207.09L2040.47 1217.03L2040.86 1217.22L2041.09 1217.56L2082.43 1285.82L2134 1357.34L2157.85 1336.86L2157.95 1336.72L2158.07 1336.71L2183.76 1322.31L2184.49 1321.84L2185.23 1322.3L2208.16 1336.47L2218.11 1324.93L2219.02 1323.95L2220.1 1324.73L2238.67 1337.88L2251.91 1320.63L2252.33 1320.09L2252.94 1320.01L2291.07 1316.43L2291.55 1316.37L2291.95 1316.62L2318.16 1331.96L2362.52 1308.56L2363.26 1308.15L2363.99 1308.61L2381.23 1319.54L2441.6 1281.72L2441.99 1281.42L2442.48 1281.48L2461.56 1283.03L2480.69 1272.86L2476.24 1258.05L2475.93 1257.05L2476.77 1256.45L2523.08 1224.08L2506.09 1190.66L2505.68 1189.86L2506.19 1189.11L2520.54 1169.02L2511.35 1152.68L2476.89 1136.03L2475.71 1135.45L2476.15 1134.16L2488.62 1099.72L2454.72 1082.25L2453.27 1081.46L2454.13 1080.12L2466.44 1061.28L2457.11 989.997L2456.99 989.032L2457.9 988.544L2515.83 957.354L2514.57 929.488L2514.53 928.206L2515.78 927.98L2551.61 920.841L2556.94 897.388L2552.7 874.329L2552.51 873.372L2553.36 872.832L2569.7 862.414L2550.47 817.516L2523.97 803.685L2522.99 803.2L2523.16 802.136L2531.73 743.543L2501.91 687.457L2501.51 686.772L2501.97 686.038L2512.21 668.322L2512.76 667.391L2513.78 667.627L2558.59 676.731L2585.22 667.177L2592.6 649.159L2592.88 648.509L2593.59 648.294L2625.37 639.231L2628.43 617.67L2559.79 512.563L2559.55 512.164L2559.55 511.674L2561.44 483.519L2561.49 482.96L2561.93 482.535L2594.78 452.231L2577.67 427.727L2577.06 426.825L2577.74 425.939L2608.5 388.427L2608.82 388.079L2609.29 387.955L2640.07 380.618L2655.4 358.249L2654.02 322.855L2631.35 307.359L2630.87 306.992L2630.73 306.396L2626.69 283.924L2611.2 266.2L2610.4 265.261L2611.19 264.299L2624.73 247.869L2605.52 230.264L2604.47 229.297L2605.37 228.198L2641.03 185.628L2641.19 185.423L2641.42 185.331L2658.69 175.406L2669.6 153.862L2637.09 103.953L2605.17 108.129L2604.86 108.168L2604.55 108.087L2577.93 100.405L2577.36 100.235L2577.05 99.7233L2559.47 67.4292L2559.06 66.6243L2559.52 65.9504L2602.82 -0.680809L2598.97 -30.1093L2525.48 -71.5899Z" fill="url(#paint3_linear_499_675)"/>
<path d="M1607.3 1033.97L1606.52 1034.63L1605.58 1034.07L1587.29 1023.25L1547.41 1028.47L1547.37 1026.8L1546.9 1004.65L1546.9 1004.22L1547.17 1003.87L1566.42 973.195L1570.82 954.197L1554.66 945.951L1553.99 945.542L1551.27 924.746L1536.5 912.35L1535.87 911.812L1535.96 911.056L1538.13 882.115L1521.62 872.551L1520.21 871.743L1521.15 870.38L1540.45 842.485L1518.22 737.96L1486.49 700.737L1498.84 692.236L1527.28 662.093L1527.72 661.663L1528.34 661.645L1547.41 661.383L1549.92 627.497L1549.89 627.253L1550.04 626.985L1557.49 611.868L1557.38 592.965L1557.36 592.347L1557.8 591.917L1592.78 555.832L1573.37 537.9L1573.01 537.513L1568.83 505.496L1528.5 461.83L1528.23 461.618L1528.12 461.26L1520.28 437.35L1508.03 424.809L1507.61 424.43L1507.6 423.873L1506.87 409.764L1487.26 422.997L1465.76 444.48L1434.37 458.261L1424.55 482.249L1421.18 450.311L1478.33 373.179L1506.28 302.346L1515.28 241.249L1456.76 189.79L1408.8 194.45L1395.21 220.48L1376.48 226.217L1385.5 183.727L1345.9 184.006L1356.2 164.051L1329.75 147.289L1309.27 158.093L1281.71 213.49L1293.66 242.694L1257.32 249.866L1259.36 259.337L1275.5 277.448L1248.49 275.336L1236.67 289.783L1205.7 288.19L1199.9 275.178L1157.01 281.594L1161.04 306.189L1110.25 320.088L1078.89 352.536L1051.92 356.871L1034.34 377.035L1030.24 413.981L1050.9 442.045L1026.24 451.721L957.155 449.467L918.021 453.779L908.875 476.809L914.58 532.757L942.398 553.372L957.996 579.679L923.722 584.162L887.088 533.127L865.659 537.171L866.269 539.944L890.346 577.486L891.431 579.143L889.52 579.703L869.711 585.705L868.474 610.864L892.397 648.178L892.643 648.642L892.593 649.207L890.37 668.726L890.275 669.421L889.644 669.814L847.961 695.424L845.269 718.479L879.093 752.761L912.78 756.605L913.727 756.729L914.038 757.681L926.509 797.547L925.129 803.124L925.121 803.063L917.424 833.843L917.207 834.554L916.56 834.824L887.73 846.783L899.563 867.069L899.818 867.594L899.76 868.098L894.016 897.692L921.775 925.448L922.205 925.888L922.224 926.506L923.617 983.638L946.074 1007.37L946.504 1007.81L946.523 1008.43L944.66 1049.67L975.801 1067.25L976.337 1067.55L976.47 1068.09L985.153 1096.54L985.355 1097.14L985 1097.74L964.36 1135.8L966.049 1167.21L966.044 1167.65L965.848 1168.05L933.408 1222.59L938.433 1261.01L972.599 1275.15L973.776 1275.62L973.501 1276.83L969.683 1292.22L969.519 1292.86L969.002 1293.18L942.178 1309.09L942.003 1309.18L941.767 1309.27L917.886 1315.43L933.232 1351.2L933.572 1351.9L933.164 1352.57L924.487 1366.86L927.048 1386.44L1004.77 1388.3L1005.51 1388.33L1005.97 1388.95L1034.3 1432.02L1055.19 1431.89L1056.62 1431.89L1056.68 1433.31L1057.66 1450.8L1057.68 1451.41L1057.25 1451.9L1030.6 1482L1035.9 1503.08L1054.8 1517.6L1080.84 1522.26L1082.3 1522.5L1082.05 1523.9L1080.01 1539.12L1079.95 1539.62L1079.56 1539.98L1054.8 1564.56L1057.09 1592.05L1057.15 1592.97L1057.04 1593.05L1055.6 1610.97L1085.43 1654.09L1086.04 1654.94L1085.35 1655.84L1074.9 1669.42L1074.81 1669.62L1074.58 1669.78L1065.02 1675.87L1081.5 1709.44L1104.43 1706.44L1126.65 1700.8L1127.19 1700.67L1127.65 1700.92L1143.57 1708.33L1144.76 1708.92L1144.37 1710.15L1138.85 1727.74L1159.14 1751.51L1159.37 1751.79L1159.46 1752.03L1166.38 1774.13L1177.5 1797L1177.58 1797.17L1177.61 1797.35L1181.21 1814.5L1181.4 1815.47L1180.61 1816.07L1162.74 1828.82L1164.76 1844.25L1164.68 1844.57L1159.88 1860.09L1159.72 1860.73L1159.19 1860.98L1139.42 1871.51L1131.29 1896.64L1167.8 1915.87L1223.87 1915.86L1245.11 1892.79L1245.38 1892.51L1245.68 1892.41L1258.03 1887.75L1257.16 1874.91L1257.06 1874.17L1257.68 1873.66L1275.56 1858.6L1272.24 1845.08L1271.96 1843.88L1273.13 1843.35L1287.26 1837.6L1289.35 1817.54L1289.46 1816.47L1290.54 1816.2L1362.58 1800.27L1363.99 1783.03L1318.55 1751.94L1318 1751.51L1315.73 1734.19L1316.53 1733.66L1333.6 1722.8L1333.94 1722.57L1334.37 1722.58L1357.35 1721.86L1352.8 1650.07L1352.76 1649.77L1352.91 1649.44L1363.78 1619.67L1364.05 1618.95L1364.77 1618.73L1388.77 1612.06L1390.58 1591.29L1360.36 1555.11L1359.77 1554.44L1360.1 1553.6L1377.54 1508.2L1377.87 1507.36L1378.72 1507.24L1434.64 1497.51L1447.32 1475.45L1448.59 1473.29L1449.91 1475.35L1477.15 1518.56L1488.69 1511.9L1482.86 1485.37L1482.72 1484.77L1483.08 1484.23L1529.58 1418.1L1530.04 1394.1L1529.81 1393.32L1557.09 1376.17L1557.88 1377.43L1574.74 1404.38L1601.28 1415.73L1604.22 1395.07L1604.23 1394.63L1604.5 1394.35L1616.59 1378.62L1608.88 1362.82L1595.86 1360.99L1594.66 1360.84L1594.56 1359.61L1593.72 1343.72L1593.71 1343.16L1594.03 1342.75L1610.26 1320.28L1604.95 1305.28L1578.02 1300.49L1577.26 1300.34L1576.92 1299.64L1566.49 1276.32L1566.22 1275.67L1566.56 1275.01L1577.04 1255.96L1562.8 1237.72L1561.9 1236.54L1563.03 1235.65L1591.68 1212.36L1605 1175.7L1599.07 1148.87L1584.68 1131.34L1584.16 1130.72L1584.37 1129.95L1592.85 1102.29L1585.01 1087.87L1584.93 1087.7L1584.83 1087.46L1580.51 1063.4L1580.31 1062.37L1581.17 1061.83L1601.74 1049.34L1601.85 1049.2L1602.03 1049.17L1623.91 1041.47L1632.25 1029.34L1622.89 1020.33L1607.3 1033.97Z" fill="url(#paint4_linear_499_675)"/>
<path fill-rule="evenodd" clip-rule="evenodd" d="M903.398 1308.5L878.067 1294.95L835.227 1327.7L834.444 1328.34L833.505 1327.79L790.801 1304.39L735.29 1310.84L734.831 1310.9L734.403 1310.69L694.669 1291.1L667.581 1287L645.754 1308.63L635.19 1369.15L634.961 1370.45L633.633 1370.49L612.054 1370.73L597.008 1383.6L595.991 1401.68L595.955 1402.42L595.351 1402.9L568.194 1423.57L571.692 1437.46L571.91 1438.1L571.529 1438.75L558.823 1459.24L574.965 1472.4L575.484 1472.8L575.562 1473.39L582.126 1523.18L698.478 1560.83L698.831 1560.99L699.063 1561.22L723.111 1585.28L723.343 1585.52L723.443 1585.77L732.24 1606.97L763.794 1601.94L764.768 1601.75L765.34 1602.54L779.2 1621.67L841.716 1615.23L843.355 1615.02L843.506 1616.66L846.612 1660.97L855.449 1669.82L873.362 1650.37L873.769 1649.92L874.293 1649.85L891.208 1647.62L892.847 1647.4L892.855 1647.47L933.856 1642.26L946.745 1622.14L947.078 1621.63L947.659 1621.49L988.529 1610.23L988.979 1610.1L989.399 1610.25L1026.65 1621.09L1053.61 1605.05L1051.15 1575.74L1051.12 1575.01L1051.65 1574.48L1078.36 1547.93L1080.28 1533.59L1053.44 1528.86L1053.03 1528.78L1052.73 1528.55L1031.59 1512.38L1031.15 1512.04L1031 1511.46L1024.97 1487.43L1024.73 1486.66L1025.31 1485.98L1054.1 1453.42L1053.17 1436.79L1031.38 1436.92L1030.51 1436.91L1030.02 1436.17L999.491 1389.8L915.404 1387.94L914.002 1387.93L913.82 1386.55L910.793 1363.59L910.715 1363L911.048 1362.49L920.189 1347.33L903.398 1308.5Z" fill="url(#paint5_linear_499_675)"/>
<path fill-rule="evenodd" clip-rule="evenodd" d="M313.863 823.687L295.752 826.317L272.683 852.869L272.284 853.312L271.771 853.379L248.344 857.747L247.446 857.864L246.833 857.162L237.554 846.054L203.903 884.942L200.679 907.66L200.674 908.117L200.323 908.424L164.872 949.503L130.635 1030.78L141.236 1039.04L141.535 1039.33L141.722 1039.76L149.046 1059.86L181.639 1073.72L182.122 1073.92L182.381 1074.4L206.274 1115.48L206.372 1115.73L206.414 1116.05L210.659 1142.03L210.726 1142.54L210.464 1143.03L197.837 1166.65L208.416 1199.17L214.973 1218.39L215.193 1219.08L214.82 1219.71L199.327 1244.36L206.013 1256.59L241.599 1273.38L242.508 1273.85L242.506 1274.83L242.003 1307.88L242.652 1324.81L256.763 1340.96L281.5 1332.64L287.756 1315.66L288.293 1314.28L289.715 1314.68L310.523 1320.7L324.5 1318.87L331.119 1312.14L331.637 1311.61L332.359 1311.65L344.364 1312.68L357.433 1303.41L362.443 1295.85L362.889 1295.27L363.594 1295.18L386.978 1292.96L390.102 1279.45L390.65 1277.16L392.591 1278.54L410.897 1291.86L441.646 1300.09L456.845 1301.62L457.64 1301.72L457.98 1302.32L481.594 1340.76L512.05 1385.15L568.164 1416.8L594.143 1397.04L595.222 1379.36L595.267 1378.7L595.729 1378.25L611.398 1364.92L611.805 1364.54L612.399 1364.6L632.778 1364.34L643.019 1306.02L643.088 1305.56L643.495 1305.18L665.788 1283.16L666.371 1282.63L667.101 1282.73L694.651 1286.95L694.916 1286.98L695.061 1287.09L733.675 1306.1L788.035 1299.9L788.548 1299.83L788.967 1300.04L830.216 1322.74L872.088 1290.86L872.918 1290.23L873.827 1290.7L899.418 1304.37L925.526 1297.57L953.009 1281.32L956.498 1267.11L920.988 1252.39L920.096 1252.05L919.978 1251.16L914.588 1209.94L892.403 1192.9L881.779 1193.44L881.009 1193.54L880.541 1192.95L856.65 1166.34L830.278 1170.64L829.637 1170.72L829.138 1170.4L800.429 1149.84L775.1 1174.08L774.702 1174.52L774.117 1174.53L737.758 1175.77L737.374 1175.82L737.028 1175.67L699.229 1158.9L698.883 1158.75L698.64 1158.39L675.03 1128.95L619.525 1112.93L619.252 1112.84L619.043 1112.74L576.495 1083.1L533.537 1088.71L531.934 1088.92L531.788 1087.31L529 1059.51L516.384 1046.82L516.014 1046.48L515.955 1046.03L508.926 1005.75L486.957 984.37L423.101 989.267L422.524 989.342L422.089 989.008L410.598 980.927L410.026 980.546L409.943 979.905L405.63 953.414L377.53 937.01L321.002 940.1L320.088 940.089L319.603 939.371L299.964 908.886L299.471 908.103L299.891 907.331L318.517 872.234L313.863 823.687Z" fill="url(#paint6_linear_499_675)"/>
</g>
<defs>
<filter id="filter0_dd_499_675" x="-172.565" y="-71.5898" width="2851.21" height="2028.19" filterUnits="userSpaceOnUse" color-interpolation-filters="sRGB">
<feFlood flood-opacity="0" result="BackgroundImageFix"/>
<feColorMatrix in="SourceAlpha" type="matrix" values="0 0 0 0 0 0 0 0 0 0 0 0 0 0 0 0 0 0 127 0" result="hardAlpha"/>
<feOffset dy="36.2049"/>
<feGaussianBlur stdDeviation="2.2628"/>
<feComposite in2="hardAlpha" operator="out"/>
<feColorMatrix type="matrix" values="0 0 0 0 0.129167 0 0 0 0 0.77766 0 0 0 0 1 0 0 0 0.64 0"/>
<feBlend mode="normal" in2="BackgroundImageFix" result="effect1_dropShadow_499_675"/>
<feColorMatrix in="SourceAlpha" type="matrix" values="0 0 0 0 0 0 0 0 0 0 0 0 0 0 0 0 0 0 127 0" result="hardAlpha"/>
<feOffset dy="9.05121"/>
<feGaussianBlur stdDeviation="4.52561"/>
<feComposite in2="hardAlpha" operator="out"/>
<feColorMatrix type="matrix" values="0 0 0 0 0 0 0 0 0 0 0 0 0 0 0 0 0 0 1 0"/>
<feBlend mode="normal" in2="effect1_dropShadow_499_675" result="effect2_dropShadow_499_675"/>
<feBlend mode="normal" in="SourceGraphic" in2="effect2_dropShadow_499_675" result="shape"/>
</filter>
<linearGradient id="paint0_linear_499_675" x1="551.313" y1="335.247" x2="671.233" y2="1252.15" gradientUnits="userSpaceOnUse">
<stop stop-color="#002B34"/>
<stop offset="1" stop-color="#003256" stop-opacity="0.63"/>
</linearGradient>
<linearGradient id="paint1_linear_499_675" x1="1633.8" y1="1047.81" x2="1743.47" y2="1886.36" gradientUnits="userSpaceOnUse">
<stop stop-color="#002B34"/>
<stop offset="1" stop-color="#003256" stop-opacity="0.63"/>
</linearGradient>
<linearGradient id="paint2_linear_499_675" x1="345.525" y1="1290.41" x2="389.075" y2="1623.39" gradientUnits="userSpaceOnUse">
<stop stop-color="#002B34"/>
<stop offset="1" stop-color="#003256" stop-opacity="0.63"/>
</linearGradient>
<linearGradient id="paint3_linear_499_675" x1="2025.24" y1="-6.16406" x2="2202.4" y2="1348.39" gradientUnits="userSpaceOnUse">
<stop stop-color="#002B34"/>
<stop offset="1" stop-color="#003256" stop-opacity="0.63"/>
</linearGradient>
<linearGradient id="paint4_linear_499_675" x1="1155.15" y1="170.124" x2="1380.79" y2="1895.33" gradientUnits="userSpaceOnUse">
<stop stop-color="#002B34"/>
<stop offset="1" stop-color="#003256" stop-opacity="0.63"/>
</linearGradient>
<linearGradient id="paint5_linear_499_675" x1="789.818" y1="1270.88" x2="842.631" y2="1671.51" gradientUnits="userSpaceOnUse">
<stop stop-color="#002B34"/>
<stop offset="1" stop-color="#003256" stop-opacity="0.63"/>
</linearGradient>
<linearGradient id="paint6_linear_499_675" x1="548" y1="1085.5" x2="441.5" y2="1403" gradientUnits="userSpaceOnUse">
<stop stop-color="#002B34"/>
<stop offset="1" stop-color="#003256" stop-opacity="0.63"/>
</linearGradient>
</defs>
</svg>
